<?xml version="1.0" standalone="no"?>
<!DOCTYPE svg PUBLIC "-//W3C//DTD SVG 1.1//EN" "http://www.w3.org/Graphics/SVG/1.1/DTD/svg11.dtd" >
<svg xmlns="http://www.w3.org/2000/svg">
<metadata></metadata>
<defs>
<font id="minion_probold_italic" horiz-adv-x="1013" >
<font-face units-per-em="2048" ascent="1489" descent="-559" />
<missing-glyph horiz-adv-x="448" />
<glyph unicode="&#xfb01;" horiz-adv-x="1134" d="M-297 -406q0 31 22 65.5t50 55.5q27 20 49 4q31 -30 74 -50.5t75 -20.5q41 0 68 49q38 57 100 442q98 617 105 658h-158l-8 20l67 76h119q21 119 77 225t144 180q76 64 166.5 103t177.5 39q64 0 111.5 -16t71.5 -41t35.5 -50t11.5 -49q0 -36 -28 -70.5t-75 -48.5 q-94 -35 -106 25q-18 82 -45.5 122t-71.5 40q-74 0 -127.5 -126.5t-85.5 -332.5h119q192 0 367 35q42 1 51 -40.5t-12 -127.5q-21 -87 -61 -248t-58 -238q-12 -58 -10.5 -80t18.5 -22q11 0 50.5 26.5t80.5 63.5l33 -55q-89 -114 -195.5 -173t-167.5 -59q-118 0 -65 230 q18 75 53 224t53 224q22 98 5.5 121t-99.5 23h-182q-8 -42 -24 -131.5t-27 -147.5t-29 -145t-37 -166q-40 -166 -88.5 -280t-101 -183t-129.5 -133q-126 -111 -228 -111q-56 0 -96 27.5t-39 66.5z" />
<glyph unicode="&#xfb02;" horiz-adv-x="1148" d="M-299 -406q0 32 22 66.5t50 54.5q26 19 43 2q32 -29 78.5 -52t78.5 -23q45 0 70 51q47 105 100 446q24 148 56 354.5t47 301.5h-162l-8 20l67 78h121q42 235 199 377q73 70 179.5 120t188.5 50q45 0 90.5 -14t67.5 -33q125 47 170 47q15 0 18.5 -24t-6.5 -70 q-156 -749 -213 -1061q-4 -23 -6 -41t-2.5 -28t1 -20t2 -12t4.5 -9.5t4 -8.5q14 0 56.5 25t74.5 55l32 -58q-82 -100 -185 -156.5t-169 -56.5q-109 0 -57 265q135 698 198 1005q-21 35 -70.5 65.5t-103.5 30.5q-48 0 -85.5 -37t-63.5 -108.5t-41.5 -138t-32.5 -164.5h227 l-45 -80l-196 -18q-9 -49 -30 -171.5t-40.5 -226.5t-44.5 -207q-29 -124 -61.5 -215t-73.5 -157.5t-82 -112t-100 -94.5q-129 -111 -230 -111q-55 0 -96.5 27.5t-40.5 66.5z" />
<glyph unicode="&#xfb03;" horiz-adv-x="1687" d="M-272 -416q1 27 18.5 59.5t34.5 49.5q38 34 59 20q91 -65 137 -65q48 0 70 45q40 89 96 465q18 123 107 639h-172l-10 18l65 78h133q23 104 65 181.5t122 150.5q69 65 173 115.5t203 50.5q73 0 131 -24.5t91 -59.5q62 58 150.5 95.5t172.5 37.5q67 0 117 -17t75 -44 t36.5 -52.5t11.5 -48.5q0 -78 -111 -119q-83 -35 -96 21q-38 172 -121 172q-40 0 -73 -32.5t-57.5 -97t-42.5 -143t-34 -186.5h117q219 0 367 37q77 0 36 -168q-6 -25 -50.5 -212.5t-69.5 -297.5q-17 -78 8 -78q15 0 56 25.5t79 60.5l31 -59q-94 -106 -199.5 -166 t-159.5 -60q-27 0 -44 10t-28 34.5t-9.5 71t16.5 114.5q17 75 51.5 224t52.5 224q10 41 12 65.5t-1 41.5t-17.5 24.5t-34 10t-55.5 2.5h-176q-54 -331 -94 -539q-45 -236 -121.5 -371.5t-204.5 -230.5q-143 -107 -279 -107q-144 0 -237 101q-54 -54 -129 -102t-141 -48 q-51 0 -89 24t-38 60zM229 -227q40 -45 105.5 -77t132.5 -32q122 0 168 135q34 79 76 353q28 184 58 382t40 263h-311q-51 -300 -105 -572q-33 -155 -70.5 -259.5t-93.5 -192.5zM516 893h309q20 95 44 159t67 126q-82 116 -205 116q-54 0 -90 -32.5t-67 -120.5t-58 -248z " />
<glyph unicode="&#xfb04;" horiz-adv-x="1705" d="M-281 -416q1 26 18 56t36 45q14 15 29 22t30 0q89 -67 145 -67q22 0 42 13t30 36q36 66 98 469q8 55 103 639h-172l-10 18l65 78h133q24 105 66.5 186.5t122.5 153.5q67 63 170.5 110.5t210.5 47.5q129 0 213 -84q65 52 157 91.5t178 39.5q48 0 91.5 -14.5t66.5 -34.5 q134 49 172 49q37 0 15 -95q-83 -380 -216 -1095q-14 -82 9 -82q12 0 51.5 24t73.5 54l32 -51q-90 -103 -191.5 -160.5t-160.5 -57.5q-108 0 -63 242q135 691 204 1028q-24 39 -70.5 71t-99.5 32q-35 0 -64.5 -18.5t-51 -55.5t-37 -74t-28.5 -93.5t-20 -94t-16 -94.5 q-3 -17 -4 -25h226l-46 -82l-196 -16q-4 -23 -20 -129t-33 -207t-39 -211q-46 -230 -122 -363t-204 -229q-143 -107 -272 -107q-145 0 -242 105q-45 -51 -130 -102.5t-153 -51.5q-48 0 -87.5 24.5t-39.5 59.5zM233 -219q39 -45 109.5 -80t134.5 -35q58 0 96 30.5t62 98.5 q38 80 80 361q28 179 57.5 376t40.5 265h-315q-82 -473 -103 -578q-57 -281 -162 -438zM514 893h317q35 180 109 281q-39 57 -97 89.5t-114 32.5q-49 0 -84.5 -29.5t-70.5 -121t-60 -252.5z" />
<glyph horiz-adv-x="2048" />
<glyph horiz-adv-x="2048" />
<glyph unicode="&#xd;" horiz-adv-x="2048" />
<glyph unicode=" "  horiz-adv-x="448" />
<glyph unicode="&#x09;" horiz-adv-x="448" />
<glyph unicode="&#xa0;" horiz-adv-x="448" />
<glyph unicode="!" horiz-adv-x="559" d="M84 127q0 78 48 128t120 50q63 0 103 -43t40 -112v-3q0 -76 -50 -124t-116 -48h-2q-62 0 -102.5 43.5t-40.5 108.5zM254 449q4 111 13.5 334t13.5 335q6 129 10 162q7 40 45.5 60t132.5 20h2q90 0 123.5 -25.5t26.5 -64.5q-3 -15 -48 -152q-39 -111 -114.5 -334.5 t-114.5 -334.5q-9 -19 -48.5 -19t-41.5 19z" />
<glyph unicode="&#x22;" horiz-adv-x="798" d="M264 887q18 133 31.5 300t11.5 195l223 68l29 -25q-13 -61 -83.5 -231.5t-127.5 -269.5zM641 887q17 138 32 304.5t13 190.5l223 68l29 -25q-13 -57 -84.5 -229t-126.5 -272z" />
<glyph unicode="#" d="M80 383l33 164h202l76 246h-178l33 165h194l90 295h109l-92 -295h203l92 295h102l-92 -295h174l-35 -165h-186l-74 -246h162l-31 -164h-184l-100 -344h-105l102 344h-202l-103 -344h-106l102 344h-186zM424 547h203l73 246h-202z" />
<glyph unicode="$" d="M66 434l61 6q9 -48 27.5 -97t50.5 -103t86 -93.5t121 -50.5l84 451l-29 16q-130 66 -200 143.5t-70 188.5q0 165 123.5 262.5t314.5 102.5l31 147h84l-29 -147q108 -12 246 -74q3 -82 -4 -271l-64 -10q-32 239 -197 273l-79 -410l41 -23q52 -29 86.5 -51t74 -55t63 -66 t39 -79t15.5 -99q0 -88 -41 -160t-108 -117t-147.5 -70.5t-166.5 -29.5l-33 -165h-84l33 165q-201 17 -321 115q-2 15 -3 62t-2 119.5t-3 119.5zM414 985q0 -59 34.5 -99.5t96.5 -76.5l76 375q-92 -3 -149.5 -61.5t-57.5 -137.5zM496 94q101 9 155 68.5t54 156.5 q0 112 -132 189z" />
<glyph unicode="%" horiz-adv-x="1656" d="M188 848q0 115 49.5 218t140 168.5t200.5 65.5q130 0 197 -83t67 -205v-2q0 -113 -49 -214.5t-140 -166t-202 -64.5q-127 0 -195 83t-68 200zM301 -20l1057 1347l69 -59l-1060 -1348zM381 809q0 -27 3 -52t11 -54t25.5 -46.5t42.5 -17.5q47 0 85.5 52t59.5 126t32 142.5 t11 115.5v2q0 152 -80 152q-43 0 -81 -46t-60.5 -113.5t-35.5 -137t-13 -123.5zM911 258q0 115 49 218.5t139.5 169t200.5 65.5q88 0 149.5 -42.5t88.5 -106t27 -140.5v-2q0 -113 -49.5 -214.5t-140.5 -166t-201 -64.5q-128 0 -195.5 83t-67.5 200zM1104 217q0 -170 82 -170 q46 0 84.5 53t60 128t32.5 143t11 112v2q0 154 -82 154q-43 0 -80 -46t-59.5 -113.5t-35.5 -137.5t-13 -125z" />
<glyph unicode="&#x26;" horiz-adv-x="1576" d="M135 440q0 237 170 416q60 65 138.5 107.5t136.5 42.5q72 0 109.5 -43t39.5 -117q0 -21 -2 -31l4 -6q205 210 205 377q0 44 -16 94q-11 32 23.5 69t80.5 37q44 0 71 -35.5t27 -97.5q0 -100 -67.5 -204t-184.5 -218q-207 -207 -497 -395q27 -118 115 -184t194 -66 q333 0 494 449q-110 82 -172 82q-24 0 -40 -15.5t-16 -39.5q0 -36 23 -76q30 -42 30 -54q0 -24 -34 -44.5t-62 -20.5q-35 0 -62.5 34.5t-27.5 80.5q0 101 125 204q100 80 168 80q15 0 31.5 -3t34.5 -9.5t33 -12.5t35 -17.5t32 -18t32.5 -20.5t28 -19t27.5 -19t22 -16 q45 -31 60 -31q32 0 37 179h73q9 -124 9 -142q-1 -69 -10.5 -119.5t-23 -76.5t-31.5 -41.5t-30.5 -19t-25.5 -3.5q-39 0 -94 39q-13 8 -53 36t-52 36q-30 -107 -88.5 -217.5t-128.5 -188.5q-187 -207 -451 -207q-190 0 -315 125.5t-125 339.5zM352 573q0 -39 2 -59 q119 84 187 143q18 41 18 93q1 64 -23.5 106.5t-50.5 42.5h-2q-42 0 -86.5 -94.5t-44.5 -231.5z" />
<glyph unicode="'" horiz-adv-x="421" d="M264 887q16 111 30.5 288.5t12.5 206.5l223 68l29 -25q-12 -58 -82 -226.5t-127 -274.5z" />
<glyph unicode="(" horiz-adv-x="753" d="M172 371q0 183 49.5 356t136 311.5t202.5 246t251 169.5l41 -57q-152 -111 -262.5 -286t-164.5 -375.5t-54 -409.5q0 -411 153 -625l-61 -45q-141 123 -216 316t-75 399z" />
<glyph unicode=")" horiz-adv-x="710" d="M-20 -287q227 165 353 456t128 607q2 175 -33.5 345t-118.5 288l60 45q142 -121 216 -316t72 -407q-1 -241 -87 -460t-229 -376t-321 -239z" />
<glyph unicode="*" horiz-adv-x="872" d="M233 780l216 197l-216 227l39 51l258 -170l134 275l59 -17l-57 -294l284 -19l2 -59l-280 -56l65 -290l-57 -25l-148 274l-264 -151z" />
<glyph unicode="+" horiz-adv-x="1243" d="M156 453v133h419v409h154v-409h418v-133h-418v-453h-154v453h-419z" />
<glyph unicode="," horiz-adv-x="538" d="M-18 -182q98 39 155 94.5t58 118.5q0 48 -25 76.5t-76 42.5q-26 9 -26 40q0 59 39.5 95.5t89.5 36.5q83 0 131.5 -65t48.5 -151q0 -72 -31 -133.5t-83.5 -105t-117 -73.5t-137.5 -46z" />
<glyph unicode="-" horiz-adv-x="696" d="M84 397l35 146h508l-35 -146h-508z" />
<glyph unicode="." horiz-adv-x="538" d="M84 121q0 74 45 122t115 48q61 0 98 -42.5t37 -107.5q0 -73 -47.5 -119.5t-110.5 -46.5h-2q-58 0 -96.5 42t-38.5 104z" />
<glyph unicode="/" horiz-adv-x="653" d="M8 -92l629 1452h139l-631 -1452h-137z" />
<glyph unicode="0" d="M99.5 387.5q-2.5 85.5 4.5 177.5q6 79 26 161.5t53 165.5t82 156t109 129.5t139.5 89.5t168.5 33h2q70 0 126.5 -22t94 -61.5t65 -93.5t38.5 -117t15 -133t-5 -142q-8 -104 -34 -207t-73.5 -203t-111 -176t-154 -123t-194.5 -47q-86 0 -153 32.5t-106.5 88t-64.5 131 t-27.5 161zM361 284q0 -98 26 -162.5t76 -64.5q54 0 104.5 76t85.5 194.5t59 238t36 229.5q12 109 13 203.5t-23.5 158.5t-71.5 64h-2q-47 0 -90.5 -50t-75 -127.5t-57.5 -177t-42.5 -191t-25.5 -177.5q-12 -116 -12 -214z" />
<glyph unicode="1" d="M135 0l15 68q45 4 71.5 8.5t50 14.5t35 21t22.5 35.5t17.5 49.5t15.5 71l140 703q10 52 11 80t-11.5 45t-34 22.5t-64.5 7.5l-63 2l18 66q236 29 463 106l-198 -1032q-9 -47 -12.5 -71.5t-0.5 -49.5t11.5 -35.5t30.5 -20.5t50.5 -14.5t77.5 -8.5l-18 -68h-627z" />
<glyph unicode="2" d="M4 0l12 53q217 175 377 330q67 66 117.5 122t103 127t81 141.5t28.5 133.5q0 101 -49 156t-144 55q-137 0 -276 -170l-51 53l139 181q124 118 301 118q154 0 251 -89.5t97 -243.5q0 -47 -11.5 -91.5t-28.5 -82t-51 -80.5t-63.5 -74.5t-82.5 -78t-91 -77.5t-106 -85 q-15 -12 -23.5 -19t-22 -17.5t-24.5 -19.5l-149 -123h324q92 0 126 19t91 104l63 -27q-44 -105 -115 -315h-823z" />
<glyph unicode="3" d="M53 141q1 26 23.5 56.5t50.5 48.5q32 22 55 -4q28 -29 47 -46.5t58 -46.5t85 -44t95 -15q92 0 145.5 77.5t53.5 209.5q0 118 -64.5 188t-161.5 70q-62 0 -96 -12l-12 69q36 10 63 19t67.5 24.5t70 31t62 39t53.5 48.5t34.5 58t13.5 69q0 74 -42.5 114t-114.5 40 t-130 -39.5t-118 -108.5l-51 49l112 144q120 120 299 120q77 0 144.5 -26.5t114 -86.5t46.5 -145q0 -104 -88 -172q-76 -57 -178 -104l-2 -6q107 -27 179.5 -102t72.5 -189q0 -212 -233 -365q-91 -60 -194.5 -94.5t-182.5 -34.5q-66 0 -127 19t-97 49q-53 48 -53 98z" />
<glyph unicode="4" d="M37 356l14 80q237 277 420 479t360 373h150l-158 -819h176l-22 -113h-176l-21 -114q-10 -55 -11 -82.5t13.5 -48.5t44.5 -28.5t88 -12.5l-18 -70h-592l19 70q63 5 94.5 11.5t54.5 27.5t32 48t21 85l25 114h-514zM215 469h356l121 553h-8q-167 -177 -469 -553z" />
<glyph unicode="5" d="M37 143q0 25 24 58t50 47q29 17 53 -4l20 -20t29 -27.5t33 -28t42.5 -29.5t46.5 -23t55.5 -18t60.5 -6q103 0 153.5 72t50.5 190q0 154 -79.5 231t-213.5 77q-86 0 -159 -25l-15 20l174 619h642l-89 -217h-499l-101 -311q174 53 234 53q154 0 263.5 -88t109.5 -240 q0 -117 -72 -218t-199 -177q-171 -103 -332 -103q-70 0 -131.5 21.5t-97.5 52.5q-56 43 -53 94z" />
<glyph unicode="6" d="M78 414q0 130 42 254.5t123 236t212.5 202t298.5 142.5q135 41 305 64l14 -76q-100 -17 -229 -70q-300 -138 -426 -422l4 -4l102 47q75 31 119 33q149 0 242.5 -95t93.5 -263q0 -127 -64 -238.5t-180.5 -180.5t-257.5 -69q-184 0 -291.5 122t-107.5 317zM342 365 q0 -121 47 -215.5t129 -94.5q50 0 90 35t62 89t33.5 112t11.5 112q0 135 -53.5 209t-153.5 74h-2q-51 0 -115 -31q-49 -123 -49 -290z" />
<glyph unicode="7" d="M131 4q499 583 789 1053h-437q-94 0 -131 -22t-86 -111l-67 26q47 124 104 326h830l14 -25q-137 -228 -410.5 -666t-363.5 -585l-230 -25z" />
<glyph unicode="8" d="M59 303q0 126 117 209q77 56 213 131q-80 63 -123.5 129t-44.5 156q0 105 59.5 191t158.5 133.5t214 47.5h2q92 0 169.5 -33.5t127 -103t49.5 -164.5q0 -103 -100 -188q-68 -47 -166 -106q54 -39 90 -71t69.5 -73.5t50 -89t16.5 -102.5q0 -111 -72 -203t-184.5 -141.5 t-237.5 -49.5q-175 0 -291.5 87t-116.5 241zM305 301q0 -63 21.5 -116.5t68.5 -89.5t111 -36h2q85 0 139.5 64t54.5 162q0 93 -57.5 160.5t-185.5 150.5q-70 -49 -112 -126.5t-42 -168.5zM457 1030q0 -51 17.5 -94t54.5 -79t61.5 -54.5t71.5 -48.5q122 89 122 258 q0 86 -43.5 146.5t-117.5 60.5h-2q-68 0 -116 -55.5t-48 -133.5z" />
<glyph unicode="9" d="M90 33q207 46 378.5 189.5t244.5 350.5l-111 -53q-63 -31 -108 -31q-144 0 -242 90t-98 250q0 92 39 178t104 150.5t156 103.5t190 39h2q185 0 288 -123t103 -331q0 -174 -70.5 -335t-207.5 -288.5t-322 -195.5q-66 -24 -167 -43t-167 -21zM422 893q0 -121 54 -194.5 t155 -73.5q55 0 102 30q41 94 41 279q0 48 -7 94t-23.5 91t-49 72.5t-76.5 27.5h-2q-56 0 -102 -52t-69 -125.5t-23 -148.5z" />
<glyph unicode=":" horiz-adv-x="534" d="M80 119q0 74 44 122t114 48q60 0 97.5 -41.5t37.5 -106.5q0 -73 -47.5 -119.5t-110.5 -46.5h-2q-59 0 -96 41.5t-37 102.5zM166 700q0 72 44.5 120t113.5 48q60 0 98.5 -41.5t38.5 -105.5q0 -73 -48.5 -119.5t-111.5 -46.5h-2q-58 0 -95.5 41.5t-37.5 103.5z" />
<glyph unicode=";" horiz-adv-x="538" d="M-18 -186q99 39 156 94.5t57 118.5q0 95 -101 123q-26 9 -26 40q0 59 39.5 95.5t89.5 36.5q82 0 131 -62t49 -151q0 -71 -30.5 -133t-83 -106t-117 -74.5t-138.5 -47.5zM154 700q0 72 44 120t113 48q61 0 99.5 -41t38.5 -106q0 -74 -48 -120t-112 -46h-2 q-58 0 -95.5 41.5t-37.5 103.5z" />
<glyph unicode="&#x3c;" horiz-adv-x="1222" d="M145 449v139l930 448v-145l-780 -371v-4l780 -373v-143z" />
<glyph unicode="=" horiz-adv-x="1243" d="M156 266v133h991v-133h-991zM156 641v133h991v-133h-991z" />
<glyph unicode="&#x3e;" horiz-adv-x="1222" d="M213 0v143l780 373v4l-780 371v145l930 -448v-139z" />
<glyph unicode="?" horiz-adv-x="768" d="M150 127q0 78 46.5 128t118.5 50q65 0 105.5 -43t40.5 -112q0 -78 -50 -126.5t-118 -48.5h-2q-62 0 -101.5 43.5t-39.5 108.5zM186 664q0 46 20 86.5t59 74.5t75.5 57.5t89.5 51.5q21 12 55 30t55.5 29.5t49 27t44 27t32 24.5t23 25t7.5 23q0 23 -19.5 40.5t-55.5 17.5 q-55 0 -106 -17.5t-81.5 -38t-58.5 -38t-41 -17.5q-30 0 -63 43.5t-33 93.5q0 42 59 84q104 72 205 72h2q122 0 217.5 -100.5t95.5 -223.5q0 -170 -158 -258q-18 -10 -46.5 -26.5t-44.5 -26t-39.5 -24t-37 -23.5t-30.5 -22t-26.5 -23t-18.5 -21.5t-13 -23t-4 -23.5 q0 -58 41 -119l-55 -38q-73 33 -136 104t-63 152z" />
<glyph unicode="@" horiz-adv-x="1548" d="M109 399q-1 142 44.5 268t123.5 218.5t181 160t220 101t237 33.5q138 0 249.5 -43.5t182 -117t108.5 -167.5t38 -197q-2 -220 -148.5 -368t-371.5 -148q-79 0 -99.5 35.5t-5.5 110.5l19 77l-4 3q-66 -82 -161 -154t-163 -72q-48 0 -78.5 51.5t-29.5 133.5q4 223 170 378 q65 62 162.5 105t195.5 43q30 0 113 -16q30 -9 75 -9q-48 -162 -110 -446q-15 -77 -10.5 -109t30.5 -32q50 1 101.5 26t97.5 72.5t75.5 128.5t30.5 182q0 137 -64.5 238t-172 151.5t-242.5 50.5q-185 0 -329.5 -84.5t-224 -234t-79.5 -338.5q0 -81 16.5 -155.5t56 -146.5 t99.5 -125t154 -85.5t211 -32.5q89 0 170 19.5t133 44.5l25 -68q-172 -100 -400 -100q-127 0 -239.5 40.5t-199 116.5t-137 195t-50.5 266zM653 377q0 -92 41 -92q28 0 91 60.5t124 164.5q51 124 72 233q-36 21 -98 21h-2q-58 0 -117 -59q-43 -49 -76.5 -140t-34.5 -188z " />
<glyph unicode="A" horiz-adv-x="1376" d="M-41 0l18 70q52 8 77.5 16t56.5 33.5t57.5 64.5t71.5 117l589 1030l109 27l35 -234q20 -127 68 -407t71 -428q8 -51 13 -78.5t14.5 -54.5t19.5 -38.5t29.5 -23t42 -16t59.5 -8.5l-18 -70h-557l20 70q92 10 112 36q13 17 13 55q0 21 -4 48q-3 20 -14.5 99.5t-18.5 129.5 h-389q-32 -62 -112 -231q-25 -44 -25 -72q1 -14 7 -23q20 -28 134 -42l-18 -70h-461zM487 541h322l-66 460h-6q-17 -32 -109.5 -198.5t-140.5 -261.5z" />
<glyph unicode="B" horiz-adv-x="1273" d="M4 0l16 70q110 9 143 41.5t56 152.5l156 795q13 67 14.5 102t-16 57.5t-47 29.5t-90.5 12l18 69h534q435 0 435 -285q0 -71 -28.5 -127t-79 -92.5t-111 -59t-134.5 -34.5v-4q143 -27 230.5 -105t87.5 -208q0 -112 -62.5 -197.5t-171.5 -140.5q-156 -76 -460 -76h-490z M479 268q-8 -40 -8 -71q0 -51 21 -75q33 -38 102 -38q55 0 108 22.5t96.5 63.5t70 106.5t26.5 143.5q0 88 -42 146.5t-104 82t-139 23.5h-53zM573 756h54q156 0 236.5 76.5t80.5 203.5q0 104 -53 156.5t-135 52.5q-60 0 -80 -20q-21 -21 -35 -99z" />
<glyph unicode="C" horiz-adv-x="1333" d="M129 553q0 183 71 337t192 256.5t281.5 159t340.5 56.5q44 0 88 -3.5t75 -8t66 -12t52.5 -12t44 -12.5t30.5 -9q-5 -140 -22 -344l-70 -9q-28 178 -103 250t-202 72q-143 0 -268 -95.5t-199 -260t-74 -357.5q0 -233 93 -368.5t247 -135.5q114 0 215.5 80.5t222.5 253.5 l70 -31q-30 -75 -80 -174.5t-88 -162.5q-198 -54 -360 -54q-182 0 -321.5 66t-220.5 199.5t-81 318.5z" />
<glyph unicode="D" horiz-adv-x="1499" d="M2 0l18 70q59 5 91.5 13t54.5 31t32 53.5t21 90.5l154 805q8 44 11.5 70.5t1 49.5t-11 35t-28.5 21.5t-45.5 13.5t-67.5 7l19 69h526q340 0 521.5 -141t181.5 -426q0 -194 -85 -355.5t-253 -261.5q-128 -78 -287 -111.5t-364 -33.5h-490zM484 175q4 -36 30 -58 q39 -27 107 -27q163 0 293 94.5t200 252.5t70 347q0 94 -23.5 175.5t-70 146t-123 102t-174.5 37.5q-85 0 -109 -24q-21 -18 -37 -107l-153 -823q-12 -62 -12 -97q1 -11 2 -19z" />
<glyph unicode="E" horiz-adv-x="1167" d="M2 0l14 70q43 3 67 6.5t47 12.5t33.5 19t22 33t17 48.5t14.5 70.5l158 809q9 52 11 80t-2.5 51t-24.5 33.5t-47.5 16.5t-78.5 10l19 69h936q-1 -13 -8 -79t-14.5 -131.5t-12.5 -110.5l-74 -7q-10 149 -43 191q-18 28 -55.5 39.5t-122.5 11.5h-100q-58 0 -75 -14.5 t-28 -71.5l-80 -412h138h58.5t45 5t33.5 6t25.5 13.5t20 17.5t17.5 28.5t17 34.5t20 47h76l-84 -422h-74v19q0 104 -21 126q-23 24 -149 25h-141l-65 -346q-11 -61 -11 -102q0 -48 15 -68q17 -24 57 -33.5t115 -9.5q92 0 147 16t92 52q79 72 148 196l69 -26 q-66 -195 -125 -324h-997z" />
<glyph unicode="F" horiz-adv-x="1120" d="M12 0l17 70q105 9 136 40.5t54 149.5l156 805q9 46 12.5 72t0.5 49.5t-10.5 34t-27.5 20t-44.5 13t-67.5 6.5l16 69h952q-27 -251 -37 -321l-71 -7q-13 151 -41 191q-21 29 -61.5 40t-135.5 11h-106q-53 0 -71.5 -16.5t-27.5 -69.5l-84 -438h174q46 0 75 1.5t53.5 9.5 t37 14.5t28 29t24 39t26.5 57.5h72l-82 -419h-74q-1 45 -2 67.5t-8 45.5t-16.5 31t-32.5 16t-49.5 9t-73.5 1h-172l-68 -361q-8 -43 -11 -69t1.5 -48.5t14 -33.5t33 -20t52 -12.5t76.5 -6.5l-16 -70h-621z" />
<glyph unicode="G" horiz-adv-x="1429" d="M129 555q0 179 68 330.5t187 255.5t284.5 162.5t357.5 58.5q199 0 367 -57q-17 -189 -25 -340l-72 -9q-33 316 -317 316q-106 0 -205.5 -55t-174 -148.5t-120 -227.5t-45.5 -282q0 -231 100 -367.5t269 -136.5q62 0 99.5 27.5t51.5 107.5l33 177q7 41 9.5 65t-3.5 45 t-16 31t-37.5 18.5t-56.5 12.5t-84 10l18 69h608l-18 -69q-46 -6 -67.5 -12t-40 -26.5t-26.5 -50.5t-20 -93l-28 -162q-14 -69 -14 -127q0 -14 1 -27q-81 -24 -133.5 -38t-141.5 -29t-165 -15q-297 0 -470 153.5t-173 432.5z" />
<glyph unicode="H" horiz-adv-x="1562" d="M6 0l17 70q41 3 65.5 6.5t45.5 13.5t31.5 20t21.5 34.5t17 48t15 69.5l158 807q8 43 11 70t-1.5 49t-14 33t-32 20t-48.5 12.5t-71 6.5l17 69h610l-19 -69q-38 -3 -61.5 -7t-44 -13.5t-31 -20t-20.5 -34t-16 -48t-15 -68.5l-59 -311h540l62 311q8 43 11.5 68.5t0.5 48 t-11.5 34t-28.5 20.5t-45 13t-67 7l17 69h604l-14 -69q-62 -5 -92.5 -11.5t-53 -30.5t-31 -52.5t-22.5 -96.5l-156 -807q-9 -43 -12.5 -69t-0.5 -49t11.5 -34t29.5 -20t47.5 -13t70.5 -7l-17 -70h-618l16 70q64 5 96 11.5t55 29.5t32.5 54t21.5 97l74 391h-543l-74 -391 q-12 -64 -13 -96t16 -54.5t48 -29.5t95 -12l-17 -70h-608z" />
<glyph unicode="I" horiz-adv-x="749" d="M10 0l15 70q39 3 62.5 7t44.5 13t32 20t22 34.5t17.5 49t15.5 70.5l158 801q8 45 11.5 71t0.5 49.5t-11.5 34.5t-30 20t-47.5 13t-71 7l17 69h606l-16 -69q-40 -3 -64 -6.5t-45.5 -13.5t-32 -20t-21.5 -34.5t-17 -49.5t-15 -71l-154 -801q-11 -52 -13 -81.5t2.5 -52.5 t25 -33.5t48.5 -16.5t81 -10l-15 -70h-606z" />
<glyph unicode="J" horiz-adv-x="731" d="M-47 -221q80 17 137 71t90 166q30 97 66 285l141 764q8 44 11.5 70.5t-0.5 49t-12.5 33.5t-30 20.5t-46.5 13.5t-69 8l16 69h596l-14 -69q-41 -5 -62.5 -8t-43.5 -12.5t-31.5 -19.5t-20 -33.5t-16 -49.5t-13.5 -72l-145 -786q-34 -189 -98.5 -305t-188.5 -187 q-59 -38 -135 -61t-119 -23z" />
<glyph unicode="K" horiz-adv-x="1386" d="M16 0l17 70q38 3 61 6.5t43 13t30.5 20.5t20.5 34.5t16 48t15 69.5l156 805q8 43 11.5 69.5t0 49t-12 34t-29 20.5t-46 13t-68.5 7l15 69h590l-15 -69q-40 -3 -63.5 -6.5t-44 -13.5t-31 -20t-21 -34t-16 -48.5t-14.5 -70.5l-68 -344q89 23 156 82q194 160 366 350 q40 44 40 67q0 2 -1 4q-5 22 -65 29l-43 5l18 69h500l-14 -63q-94 -11 -150 -35.5t-153 -104.5q-179 -143 -394 -340q176 -348 310 -559q58 -92 97 -120t118 -37l-19 -70h-385q-117 202 -313 592q-30 57 -64 57q-9 0 -18 -4l-70 -381q-9 -45 -12 -70.5t-0.5 -49t10 -34.5 t27.5 -20t45.5 -13t68.5 -7l-16 -70h-586z" />
<glyph unicode="L" horiz-adv-x="1120" d="M-6 0l14 68q44 4 70.5 7.5t49.5 13.5t34.5 20t23 34t18 49t15.5 70l158 817q8 40 11 64t0 45.5t-11.5 32t-28.5 19.5t-46 13t-69 7l15 69h612l-16 -69q-63 -5 -95.5 -12t-55 -29t-31.5 -50t-21 -90l-154 -805q-9 -50 -9 -82v-10q2 -34 16 -55q33 -41 159 -41 q144 0 215 68q78 74 150 213l74 -25q-114 -303 -131 -342h-967z" />
<glyph unicode="M" horiz-adv-x="1812" d="M-31 0l17 70q80 6 119.5 35t68.5 102q42 92 119 346l149 479q17 59 23 92.5t3.5 61t-22.5 40.5t-52 21.5t-89 12.5l23 69h411q27 -132 89.5 -421t95.5 -455l534 876h404l-19 -69q-43 -4 -66.5 -7t-45.5 -11.5t-31 -16.5t-18.5 -30t-13.5 -42.5t-11 -62.5 q-55 -369 -105 -803q-6 -52 -8.5 -80.5t1 -55.5t11 -38t28.5 -21.5t44.5 -14t67.5 -7.5l-17 -70h-579l16 70q52 6 76.5 12.5t45 31.5t29 60.5t21.5 112.5q22 145 64 406.5t61 393.5h-8l-612 -1073h-64q-24 155 -52.5 324t-65.5 386.5t-60 354.5h-8l-144 -506 q-70 -246 -88 -368q-3 -19 -3 -34q0 -43 23 -65q31 -28 126 -36l-17 -70h-471z" />
<glyph unicode="N" horiz-adv-x="1441" d="M-12 0l18 70q78 4 115 32t59 97q42 131 86 342l88 413q20 110 20 156v8q-2 44 -22 78q-18 33 -55 46t-107 18l17 69h375l544 -944h4l74 391q41 231 49 346v14q0 64 -34 90q-38 28 -146 34l17 69h493l-16 -69q-88 -3 -123 -31t-55 -96q-37 -117 -82 -353l-154 -800h-106 l-584 1042h-4l-92 -481q-40 -207 -48 -334v-11q0 -64 34 -91q37 -29 145 -35l-17 -70h-493z" />
<glyph unicode="O" horiz-adv-x="1480" d="M129 547q0 162 57 310.5t156 260t243 178t308 66.5q256 0 410.5 -163t154.5 -425q0 -223 -95.5 -406.5t-270.5 -291t-396 -107.5q-255 0 -411 157t-156 421zM430 496q0 -132 27 -228t91 -154.5t161 -58.5t183.5 71t143.5 183t90 248.5t33 269.5q0 100 -15.5 179.5 t-48 140.5t-87 94t-127.5 33q-90 0 -174 -66.5t-144 -174.5t-96.5 -250t-36.5 -287z" />
<glyph unicode="P" horiz-adv-x="1216" d="M8 0l17 70q60 5 88.5 11t51 29t31.5 54.5t23 99.5l154 791q11 56 13.5 87.5t-1 55.5t-23 35t-45.5 17t-75 10l16 69h510q103 0 185 -17.5t151 -56.5t107 -110t38 -170q0 -194 -139.5 -313.5t-361.5 -137.5q-42 0 -62 2l-149 37l-58 -299q-9 -45 -12.5 -72t1.5 -49.5 t13.5 -33t34 -19.5t52 -12t77.5 -8l-16 -70h-621zM557 641q57 -23 115 -23q87 0 156.5 55.5t106 142.5t36.5 185q0 121 -57 183.5t-150 62.5q-49 0 -78 -18q-24 -13 -41 -109z" />
<glyph unicode="Q" horiz-adv-x="1480" d="M129 549q0 160 57 308t156 260t244 178.5t311 66.5q252 0 406.5 -163t154.5 -429q0 -271 -142.5 -478t-389.5 -284l22 -16q277 -188 455 -266l-14 -52q-53 -8 -108 -8q-28 0 -57 2q-86 6 -132 21q-175 49 -459 268l-23 18q-220 23 -350.5 177.5t-130.5 396.5zM428 510 q0 -171 51 -292t146 -155l170 46q9 -5 27 -18.5t26 -18.5q81 38 153 156.5t114 278t42 314.5q0 137 -27 236t-92 159t-164 60q-91 0 -175 -68.5t-142.5 -177.5t-93.5 -246.5t-35 -273.5z" />
<glyph unicode="R" horiz-adv-x="1296" d="M6 0l17 70q108 9 140.5 40.5t55.5 151.5l158 811q8 44 11.5 70t0.5 48.5t-10.5 33t-28.5 19t-45 11t-67 5.5l18 69h516q217 0 322 -63q137 -84 137 -260q0 -140 -90 -236t-230 -139q2 -6 23.5 -61.5t45 -112t44.5 -99.5q91 -181 125 -229q28 -36 54.5 -53.5t64.5 -28.5 l-19 -63h-35q-101 1 -168 12.5t-110.5 39t-67.5 59t-51 85.5q-63 130 -121 301q-20 53 -42.5 75t-65.5 22h-49l-58 -314q-12 -64 -13.5 -97.5t15 -55.5t45 -29t88.5 -12l-16 -70h-594zM555 659h51q125 0 199 48q69 44 107 121t38 169q0 120 -54.5 185t-135.5 65 q-56 0 -80 -24q-21 -18 -33 -84z" />
<glyph unicode="S" horiz-adv-x="1001" d="M74 96q2 36 2 118t-2 208l67 8q8 -45 22.5 -91.5t42 -99t62.5 -93t87.5 -67t113.5 -26.5q105 0 163 66t58 160q0 134 -162 262l-61 45q-54 42 -93.5 79.5t-76 85.5t-55.5 103.5t-19 116.5q0 178 127 284.5t320 106.5q119 0 231 -41q8 -3 84 -33q-8 -67 -12 -313l-72 -6 q-43 311 -248 311q-93 0 -144.5 -65t-51.5 -146q0 -72 39.5 -127t126.5 -117l61 -43q59 -43 101 -81t80 -87t57.5 -107t19.5 -124q0 -188 -142 -301t-354 -113q-118 0 -219.5 39t-152.5 88z" />
<glyph unicode="T" horiz-adv-x="1275" d="M172 993q64 209 102 387h54q14 -34 32 -42.5t62 -8.5h803q36 0 53 9.5t49 41.5h57q-15 -74 -55 -383l-76 -4q0 150 -30 199q-22 30 -64 40.5t-123 10.5h-102l-186 -981q-8 -44 -11 -67.5t-0.5 -47.5t12.5 -34.5t32.5 -21t53 -14.5t80.5 -7l-16 -70h-655l16 70 q67 5 102.5 13t59.5 32.5t33.5 54t21.5 92.5l191 981h-86q-107 0 -151.5 -14t-78.5 -49q-39 -43 -106 -187h-74z" />
<glyph unicode="U" horiz-adv-x="1447" d="M207 1260l16 69h598l-18 -69q-45 -4 -70 -10t-45.5 -16.5t-32.5 -34.5t-21 -55t-20 -87l-92 -492q-17 -92 -17 -165q1 -112 41 -180q68 -112 220 -111q167 0 271.5 129.5t152.5 388.5l31 174q40 213 47 332v11q0 58 -39 84q-43 28 -148 32l19 69h510l-17 -69 q-86 -3 -124.5 -31t-63.5 -101q-38 -117 -78 -327l-39 -201q-65 -334 -227 -489q-73 -70 -170 -106t-201 -36q-218 0 -342 113q-113 102 -113 307q0 84 19 186l92 482q10 54 12 84.5t-2.5 54.5t-24 35.5t-47 18t-77.5 10.5z" />
<glyph unicode="V" horiz-adv-x="1390" d="M193 1260l16 69h555l-19 -69l-40 -5q-59 -9 -73 -28q-9 -13 -9 -45q0 -16 2 -37q6 -54 27.5 -181t55 -318t52.5 -304h4q310 545 410 756q32 69 32 103q0 10 -2 17q-12 31 -90 39l-39 3l19 69h454l-16 -69q-49 -6 -76 -13.5t-56.5 -31t-54.5 -58.5t-67 -104 q-215 -344 -619 -1073h-94q-107 628 -198 1091q-21 116 -51.5 148t-122.5 41z" />
<glyph unicode="W" horiz-adv-x="1949" d="M215 1260l16 69h545l-14 -69l-47 -9q-55 -9 -69 -33q-9 -16 -9 -58q0 -22 2 -50l72 -725h4l440 932h92l160 -938h4q118 248 307 694q33 77 36.5 112t-19.5 50.5t-86 21.5l-35 3l16 69h449l-19 -69q-52 -7 -77 -14t-51.5 -31t-44.5 -56t-54 -104q-226 -449 -514 -1078 h-100l-158 916h-4l-447 -916h-98l-131 1088q-6 64 -13.5 96.5t-27 55t-46 30t-79.5 13.5z" />
<glyph unicode="X" horiz-adv-x="1314" d="M-57 0l18 70q85 9 133 31t101 77q115 115 393 463l-195 467q-36 90 -71.5 115.5t-133.5 36.5l19 69h547l-17 -69l-49 -11q-37 -9 -46 -22t1 -41q43 -118 137 -332q148 184 232 307q21 33 21 52q0 7 -3 11q-10 18 -59 27l-49 9l16 69h465l-17 -69q-97 -10 -139.5 -31.5 t-107.5 -89.5q-95 -98 -322 -371l219 -510q22 -51 37.5 -80t32 -50t40.5 -31.5t49 -16t73 -10.5l-17 -70h-600l17 70l47 8q57 9 69 29q4 7 5 19q0 20 -13 52q-34 102 -149 377q-189 -244 -267 -365q-31 -46 -31 -69q0 -4 1 -8q7 -22 67 -35l39 -8l-18 -70h-475z" />
<glyph unicode="Y" horiz-adv-x="1298" d="M195 1260l20 69h537l-17 -69l-55 -13q-43 -7 -51 -28q-3 -7 -3 -17q0 -21 11 -55q53 -176 149 -449q203 305 281 441q25 42 25 65q0 7 -2 12q-10 23 -74 35l-45 6l22 72h459l-20 -69q-96 -10 -139.5 -39t-129.5 -134q-76 -98 -299 -428q-40 -60 -55 -124l-53 -261 q-9 -45 -12.5 -73t0.5 -51.5t13.5 -36t32.5 -22t52 -14t76 -7.5l-19 -70h-647l18 70q65 5 97 12t58 30.5t37.5 58t26.5 103.5l52 238q7 36 7 61v11q-2 27 -16 69q-17 48 -63.5 189t-81.5 243q-38 110 -69.5 138t-122.5 37z" />
<glyph unicode="Z" horiz-adv-x="1243" d="M2 41q496 630 934 1202h-238q-141 0 -195.5 -15.5t-88.5 -51.5q-60 -64 -111 -195l-76 8q40 151 86 391h54q16 -34 35 -42.5t63 -8.5h819l19 -33q-38 -49 -389 -502.5t-535 -695.5q74 -12 256 -12q134 0 216.5 15.5t129.5 54.5q84 71 164 227l74 -31q-25 -77 -67 -196 t-60 -156h-1074z" />
<glyph unicode="[" horiz-adv-x="753" d="M104 -332l340 1774h377l-16 -74q-44 -5 -64.5 -7t-48.5 -8t-38.5 -10t-26 -16t-20.5 -22.5t-14 -33t-13 -44t-11 -58.5l-233 -1228q-7 -38 -11 -58t-3.5 -43t1.5 -32.5t13 -22t21 -16.5t37 -10.5t49 -9t67 -7.5l-18 -74h-388z" />
<glyph unicode="\" horiz-adv-x="772" d="M244 1360h133l309 -1452h-133z" />
<glyph unicode="]" horiz-adv-x="753" d="M2 -332l16 74q45 5 64.5 7t48.5 8t38.5 10t26 15.5t21 22t14 33t14 44t11.5 59.5l233 1228q22 134 0.5 158.5t-170.5 39.5q-4 1 -6 1l21 74h387l-338 -1774h-381z" />
<glyph unicode="^" horiz-adv-x="1163" d="M137 436l395 840h136l395 -840h-160l-307 686l-307 -686h-152z" />
<glyph unicode="_" horiz-adv-x="1024" d="M0 -154h1024v-102h-1024v102z" />
<glyph unicode="`" horiz-adv-x="819" d="M383 1343l8 31q25 9 102 20.5t111 8.5q44 -238 66 -379l-76 -23q-62 103 -211 342z" />
<glyph unicode="a" horiz-adv-x="1062" d="M70 225q0 147 61.5 288.5t163.5 234.5q81 72 201.5 127t238.5 55q43 0 131 -15q66 -14 119 -14l12 -8q-81 -336 -135 -639q-5 -32 -5 -52q0 -28 11 -28q14 0 58.5 32t77.5 66l34 -53q-96 -116 -199 -180t-163 -64q-21 0 -35.5 7.5t-26.5 30.5q-11 20 -11 54v11 q2 42 13 112l23 109h-4q-89 -121 -203 -219q-126 -105 -219 -105q-63 0 -103 66.5t-40 183.5zM336 274q0 -114 43 -114q49 0 152 117.5t135 185.5q54 221 73 336q-51 28 -118 28q-49 0 -91 -26q-90 -66 -142 -223t-52 -304z" />
<glyph unicode="b" horiz-adv-x="1036" d="M129 336q29 148 88 429t88 425q9 39 9 63q0 16 -4 24q-10 20 -66 23l-54 3l11 63q88 10 173 28.5t134.5 32t64.5 13.5q23 0 23 -30q0 -15 -6 -38q-26 -112 -80 -347.5t-84 -362.5h4q111 130 219 199t189 69q75 0 121.5 -69t46.5 -183q0 -167 -84 -327.5t-224 -258.5 q-81 -56 -175.5 -86.5t-170.5 -30.5q-72 0 -124 27.5t-81 71.5q-32 45 -32 131q0 57 14 131zM360 238q2 -48 10.5 -79.5t26 -49.5t34.5 -24.5t36 -6.5q40 0 82 31q65 48 128.5 206.5t63.5 323.5q0 62 -16 94.5t-41 32.5q-44 0 -121.5 -64.5t-154.5 -177.5q-17 -45 -37 -170 q-12 -58 -12 -101q1 -8 1 -15z" />
<glyph unicode="c" horiz-adv-x="817" d="M78 283q0 135 57.5 268.5t165.5 226.5q71 63 169.5 107.5t182.5 44.5q76 0 130 -33t55 -86q0 -77 -90 -127q-16 -10 -29 -10q-18 0 -31 18q-85 129 -164 129q-58 0 -102 -94q-35 -69 -56.5 -170t-21.5 -211q0 -209 129 -209q58 0 131 43.5t119 87.5l39 -57 q-103 -116 -216 -176t-216 -60q-122 0 -187 79.5t-65 228.5z" />
<glyph unicode="d" horiz-adv-x="1095" d="M70 236q0 147 64.5 293.5t170.5 236.5q74 64 189 114t182 50q62 0 112 -15l56 281q6 29 6 49q0 23 -9 33q-16 18 -89 20h-35l12 68q90 8 176 26.5t137.5 33t65.5 14.5q12 0 16 -6q4 -5 4 -17v-5q-1 -16 -8 -44q-110 -479 -227 -1112q-9 -38 -8 -59q0 -25 12 -25 q15 0 52.5 25.5t76.5 64.5l33 -57q-92 -112 -193.5 -171t-160.5 -59q-21 0 -35 7t-26 28.5t-10.5 60t11.5 101.5l27 135h-4q-105 -138 -236 -244q-113 -88 -201 -88q-71 0 -116 68.5t-45 192.5zM338 281q0 -58 15.5 -89.5t41.5 -31.5q56 0 152 108t151 211l62 295 q-63 60 -148 60q-50 0 -84 -27q-59 -43 -104 -142t-65.5 -200.5t-20.5 -183.5z" />
<glyph unicode="e" horiz-adv-x="856" d="M74 283q0 147 63 288t174 228q68 53 161.5 92t172.5 39q105 0 160 -50.5t55 -127.5q0 -43 -19 -83t-49 -71.5t-75 -60.5t-89 -50t-100.5 -41.5t-99 -33.5t-94.5 -27q-2 -23 -2 -53q0 -85 35 -139t108 -54q60 0 141 41t152 109l41 -58q-244 -256 -483 -256q-39 0 -73 8.5 t-67.5 30.5t-57.5 56t-39 88.5t-15 124.5zM342 463q159 49 226 113t67 151q0 54 -26 81.5t-52 27.5q-29 0 -61 -21q-45 -32 -91 -122.5t-63 -229.5z" />
<glyph unicode="f" horiz-adv-x="604" d="M-293 -401q3 61 74 116q24 18 43 4q30 -28 79 -49.5t81 -21.5q47 0 67 51q32 92 86 424q20 121 56 341t55 331h-164l-10 20l69 78h123q32 132 75 221t114 158q82 80 173.5 124t157.5 44q70 0 110 -34q38 -32 38 -71t-26 -73q-24 -34 -50 -48q-30 -15 -55 7 q-87 108 -139 108q-14 1 -24.5 -5.5t-24.5 -31.5t-27.5 -71t-31 -128t-36.5 -200h238l-43 -82l-213 -16q-8 -41 -31 -170.5t-42 -225.5t-44 -200q-39 -165 -86.5 -278t-99.5 -181.5t-129 -132.5q-128 -107 -226 -107q-52 0 -94.5 30t-42.5 69z" />
<glyph unicode="g" horiz-adv-x="919" d="M-90 -272q0 70 83.5 133t246.5 137q-33 21 -53 49t-19 55q0 33 36.5 67t119.5 79q-209 41 -209 246q0 96 46 183.5t132 149.5q67 46 148 74.5t151 28.5q108 0 194 -58q172 3 250 50l23 -45q-97 -102 -176 -117q-4 -1 -15.5 -2t-17.5 -2q12 -47 12 -97q0 -87 -40.5 -160.5 t-100.5 -121.5q-94 -79 -307 -131q-20 -12 -23 -37q0 -19 31.5 -42t105.5 -58q164 -77 233.5 -143.5t69.5 -141.5q0 -87 -86.5 -163.5t-210 -118.5t-239.5 -42q-163 0 -274 66t-111 162zM162 -229q0 -71 71.5 -120.5t165.5 -49.5q97 0 153 36.5t56 90.5q0 35 -27 66.5 t-92 68.5q-54 34 -186 96q-60 -35 -100.5 -86t-40.5 -102zM360 471q0 -63 21.5 -100t60.5 -37q70 0 127.5 102.5t57.5 255.5q0 72 -20.5 116t-63.5 44q-40 0 -74 -37.5t-57 -93.5q-52 -121 -52 -250z" />
<glyph unicode="h" horiz-adv-x="1093" d="M57 -6q140 646 240 1196q6 30 6 50q1 26 -9 36q-16 18 -85 22l-41 2l14 66q92 7 178 25.5t136 33.5t61 15q20 0 24.5 -15.5t-3.5 -58.5l-162 -778h4q155 192 303 284q98 58 168 58q99 0 99 -139q0 -67 -23 -166l-82 -369q-8 -36 -8 -57q0 -27 14 -27q12 0 50.5 23.5 t68.5 52.5l32 -60q-102 -104 -196 -158.5t-156 -54.5q-75 0 -75 108q0 50 16 124l100 430q8 38 8 63q0 45 -26 45q-49 0 -146.5 -94.5t-173.5 -212.5q-46 -193 -82 -418q-85 -8 -239 -45z" />
<glyph unicode="i" horiz-adv-x="604" d="M92 713q106 99 210.5 158t162.5 59q43 0 53 -56q3 -17 4 -38q0 -46 -16 -109l-117 -475q-8 -35 -8 -54q0 -26 14 -26q15 0 52.5 22.5t78.5 59.5l35 -53q-99 -109 -202 -167.5t-158 -58.5q-79 0 -79 104q0 48 17 118l107 458q7 36 7 54t-7 18q-30 0 -125 -72zM317 1182 q0 56 42.5 104.5t113.5 48.5q55 0 85 -35t30 -86q0 -63 -45 -111t-111 -48q-54 0 -83.5 33.5t-31.5 93.5z" />
<glyph unicode="j" horiz-adv-x="589" d="M-233 -424q0 30 22.5 66t48.5 57q21 18 41 0q81 -61 131 -61q25 0 41 25.5t35 107.5q53 240 168 866q9 45 9 68q0 26 -11 26q-16 0 -61.5 -26.5t-71.5 -49.5l-29 56q94 91 205 155t174 64q46 0 55 -57q2 -15 2 -35q0 -55 -18 -148q-23 -136 -119 -600 q-33 -160 -100.5 -279.5t-188.5 -205.5q-154 -111 -231 -111q-38 0 -70 23t-32 59zM311 1190q0 56 42.5 104.5t113.5 48.5q54 0 84.5 -35t30.5 -85q0 -64 -43 -112t-107 -48q-56 0 -88.5 33.5t-32.5 93.5z" />
<glyph unicode="k" horiz-adv-x="999" d="M51 -12q144 640 258 1202q8 36 8 57q0 17 -5 26q-12 19 -74 23l-54 2l15 68q85 8 170.5 26.5t138 33t65.5 14.5q18 0 21.5 -15t-4.5 -49q-29 -127 -92 -411.5t-99 -442.5h4q78 93 162 174q120 118 162 152q101 82 176 82q45 0 76 -22.5t31 -55.5q0 -28 -16 -59.5 t-38 -53.5q-22 -26 -41 -16q-44 22 -102 22q-50 0 -104.5 -30t-92.5 -76q26 -90 93 -254q54 -130 82 -180.5t53 -50.5q41 0 108 75l39 -55q-77 -106 -152.5 -152.5t-129.5 -46.5q-87 0 -150 146q-76 188 -125 344q-37 -40 -63 -84q-59 -296 -70 -363q-113 -11 -233 -43z" />
<glyph unicode="l" horiz-adv-x="561" d="M95 108q3 56 20 136q31 154 93.5 462t92.5 461q10 49 10 76q-1 18 -5 27q-12 21 -73 26l-59 7l12 61q87 7 173 26t138 34.5t64 15.5q20 0 24 -18q1 -5 1 -13q0 -18 -6 -47q-38 -187 -114 -559.5t-114 -558.5q-8 -36 -8 -56q0 -24 12 -24q13 0 55 25t78 57l33 -58 q-94 -100 -195 -156.5t-161 -56.5q-23 0 -38 11q-16 10 -26 38q-8 21 -8 59q0 12 1 25z" />
<glyph unicode="m" horiz-adv-x="1642" d="M88 -2q65 241 160 668q6 27 6 44q0 24 -12 25q-15 0 -56 -27t-71 -55l-27 60q100 100 195 158.5t155 58.5q52 0 60 -58q2 -13 3 -29q0 -57 -24 -153l-28 -123h4q90 119 175.5 198t143.5 116q82 49 146 49q20 0 35.5 -5t31 -23.5t21.5 -49.5q4 -21 5 -55q0 -15 -1 -33 q-3 -58 -19 -135l-10 -51h4q169 223 320 307q77 45 137 45q92 0 93 -137q0 -69 -24 -172l-90 -390q-5 -23 -5 -38q0 -25 14 -25q13 0 51.5 27t70.5 57l33 -57q-95 -105 -194 -162.5t-156 -57.5q-34 0 -53 17q-20 17 -26 63q-2 11 -1 24q0 41 16 103l109 453q10 47 10 74 q0 39 -20 39q-44 0 -153 -115.5t-165 -216.5q-44 -185 -84 -396q-121 -11 -239 -45l-17 21q17 69 46.5 190.5t53 218t42.5 179.5q18 82 18 122v6q-2 38 -24 38q-49 0 -160 -121t-158 -215q-35 -111 -92 -394q-112 -11 -236 -45z" />
<glyph unicode="n" horiz-adv-x="1124" d="M84 719q103 101 195.5 156t152.5 55q63 0 63 -102q0 -60 -22 -156l-22 -103h4q136 186 297 295q92 66 170 66q24 0 41 -6t32 -26t21 -54q3 -18 3 -41t-3 -51q-5 -58 -23 -138q-61 -269 -84 -368q-7 -31 -7 -50q0 -24 13 -24q12 0 51 26t74 58l33 -61 q-108 -113 -199.5 -166.5t-152.5 -53.5q-76 0 -76 101q0 48 17 119q10 41 44.5 192.5t53.5 233.5q13 53 13 84q0 41 -23 43q-47 0 -157.5 -119.5t-166.5 -220.5q-44 -170 -86 -388q-110 -8 -234 -45l-16 21q91 368 154 666q9 38 9 57.5t-9 19.5q-15 0 -59.5 -26.5 t-71.5 -55.5z" />
<glyph unicode="o" horiz-adv-x="1007" d="M82 313q0 188 88.5 331t216.5 210q142 76 268 76q147 0 225 -88t78 -240q0 -141 -54.5 -272t-162.5 -221q-69 -60 -164 -97t-188 -37q-70 0 -125 20.5t-88.5 53t-55.5 77.5t-30 90.5t-8 96.5zM348 295q0 -111 36.5 -169t86.5 -58q21 0 51 10q64 25 118 178t54 358 q0 113 -32.5 169.5t-86.5 56.5q-26 0 -51 -11q-17 -8 -38.5 -32.5t-46 -70.5t-44.5 -105t-33.5 -145t-13.5 -181z" />
<glyph unicode="p" horiz-adv-x="1050" d="M-137 -487l14 67q90 19 121 49.5t51 122.5q95 449 205 998q-87 -28 -158 -68l-20 63q85 56 198 101l23 88q37 35 110.5 80.5t131.5 68.5l22 -14l-39 -162q95 23 185 23q158 0 231.5 -78t73.5 -229q0 -99 -43.5 -209.5t-126.5 -200.5q-75 -84 -183.5 -148.5t-216.5 -89.5 q-48 0 -104 19l-49 -250q-6 -33 -6 -56q0 -30 10 -44q18 -24 96 -33l43 -4l-12 -70zM371 135q16 -24 45 -45q29 -20 53 -20h2q56 0 121 81t110.5 210t45.5 253q0 207 -162 207q-39 0 -86 -14z" />
<glyph unicode="q" horiz-adv-x="1044" d="M70 229q0 148 64.5 290.5t174.5 236.5q55 50 148.5 94.5t165.5 60.5q82 19 133 19q76 0 219 -31l35 -6q-37 -141 -92 -451l-117 -673q-9 -52 -9 -84q0 -26 6 -39q13 -27 70 -33l56 -6l-9 -70l-542 -24l14 67l33 8q44 11 66 24.5t37.5 46t29.5 97.5l106 529h-4 q-89 -111 -188 -197q-133 -113 -238 -113q-74 0 -116.5 70.5t-42.5 183.5zM336 291q0 -66 17 -99.5t44 -33.5q51 0 140.5 92t134.5 174q50 201 76 371q-44 32 -115 32t-119 -45q-82 -73 -130 -215t-48 -276z" />
<glyph unicode="r" horiz-adv-x="798" d="M80 717q93 93 187 153t151 60q62 0 62 -103q0 -54 -17 -135l-19 -92h9q174 330 290 330q62 0 99 -53q18 -25 18 -54q0 -35 -26 -75q-44 -62 -72 -84q-29 -24 -51 -5q-45 39 -84 39q-37 0 -82 -61q-40 -57 -72 -120.5t-43 -104.5q-40 -161 -78 -392q-110 -9 -233 -45 l-17 21q80 330 138 641q8 43 8 67q0 29 -12 29q-13 0 -55.5 -25t-67.5 -49z" />
<glyph unicode="s" horiz-adv-x="724" d="M8 144q0 32 20 64q20 34 48 50q28 15 44.5 14t29.5 -18q57 -69 120 -110.5t115 -41.5q39 0 64.5 20.5t25.5 53.5q0 32 -27.5 65.5t-101.5 88.5q-96 69 -127 99q-80 78 -80 169q0 126 129 227q135 105 252 105q82 0 135.5 -40t53.5 -95q1 -30 -18 -60.5t-52 -52.5 q-17 -11 -31 -11q-16 0 -28 15q-87 119 -185 119q-37 0 -58.5 -20.5t-19.5 -51.5q0 -66 144 -160q99 -66 148.5 -125.5t49.5 -136.5q0 -88 -67 -168t-161.5 -124t-182.5 -44q-91 0 -165 48q-75 49 -75 121z" />
<glyph unicode="t" horiz-adv-x="655" d="M106 815l58 78h121l45 188l237 150l27 -19l-72 -319h223l-57 -88l-190 -10l-107 -514q-10 -50 -10 -79q0 -42 20 -42q21 0 75 34.5t93 71.5l33 -53q-63 -86 -179.5 -162t-199.5 -76q-39 0 -62 27q-23 28 -29 92q-1 13 -2 28q0 58 20 144l114 529h-147z" />
<glyph unicode="u" horiz-adv-x="1116" d="M94 719q98 94 196.5 152.5t158.5 58.5q45 0 57 -46q4 -14 4 -34q0 -47 -18 -131q-60 -275 -99 -428q-11 -49 -11 -80q0 -49 28 -49q43 0 111.5 63.5t120 132t75.5 113.5q43 183 88 403l227 56h27q-97 -395 -150 -664q-9 -51 -8 -71q0 -21 10 -21q13 0 54.5 28t74.5 62 l35 -61q-107 -115 -200 -171.5t-154 -56.5q-72 0 -72 98q0 45 15 111q12 50 28 127h-4q-156 -205 -309 -295q-68 -41 -141 -41q-103 0 -103 141q0 64 21 156q68 292 88 375q8 40 8 64q0 20 -6 28q-16 0 -125 -82z" />
<glyph unicode="v" horiz-adv-x="956" d="M80 705q74 99 158 162t145 63q54 0 82.5 -60.5t40.5 -189.5q30 -364 33 -434h4q47 59 80 104.5t72 108t60 120.5t21 107q0 54 -26 100q-8 27 0 48q11 41 44 68.5t80 27.5q46 0 77.5 -36.5t31.5 -96.5q0 -51 -29.5 -114t-103.5 -163q-295 -392 -438 -545h-82 q-31 420 -62 650q-18 114 -37 114q-12 0 -44 -25.5t-68 -64.5z" />
<glyph unicode="w" horiz-adv-x="1392" d="M88 700q70 99 157.5 164.5t149.5 65.5q51 0 75 -56.5t30 -187.5q7 -134 7 -266q0 -53 -1 -105h4q34 61 100 176t123 216t105 192h73q20 -122 50 -336.5t45 -308.5h4q211 285 211 428q0 58 -25 106q-7 14 -7 29q0 17 9 35q14 33 44 55.5t65 22.5q47 0 79.5 -38t32.5 -97 q0 -80 -80 -209q-51 -79 -208 -294t-238 -317h-84q-33 245 -80 553h-4q-30 -49 -151 -251t-187 -302h-80q-22 488 -43 658q-12 100 -31 100q-32 0 -108 -84z" />
<glyph unicode="x" horiz-adv-x="997" d="M30 180q32 35 68 35q15 0 39 -20q23 -23 49 -23q34 0 93.5 64.5t136.5 183.5l-54 182q-18 58 -32 88.5t-23 38.5t-20 8q-36 0 -119 -108l-45 51q81 118 160.5 184t138.5 66q46 0 75.5 -46t65.5 -153l31 -96q118 169 186 232t135 63q51 0 77 -33q25 -31 24 -73v-7 q-3 -49 -37 -83t-70 -34q-16 0 -39 23q-21 25 -49 25q-30 0 -82 -52q-34 -32 -116 -143l82 -262q38 -127 75 -127q40 0 140 119l43 -52q-85 -133 -167 -194.5t-147 -61.5q-52 0 -88.5 46.5t-68.5 152.5l-48 156q-126 -204 -195 -279.5t-145 -75.5q-46 -1 -78 33 q-31 32 -30 81q0 55 34 91z" />
<glyph unicode="y" horiz-adv-x="960" d="M-100 -444q166 107 268 192.5t186 192.5v20q0 121 -21 321q-23 216 -52 353q-18 92 -43 92q-30 0 -111 -104l-43 55q68 110 149.5 181t145.5 71q57 0 91 -64t52 -213q28 -203 43 -456h4q51 78 80 126.5t66 118t55 128.5q16 56 16 104v6q0 18 -3.5 35.5t-6.5 27.5t-9.5 26 t-8.5 22q-5 14 -5 28q0 22 13 43q17 31 46.5 49.5t61.5 18.5q43 0 75.5 -36t33.5 -101v-7q0 -95 -80 -223q-86 -145 -330 -495q-243 -342 -385 -504l-270 -64z" />
<glyph unicode="z" horiz-adv-x="847" d="M14 22v7q0 19 7 41q8 26 33.5 64t66.5 79q54 54 251.5 236t293.5 276q-43 -12 -99 -12q-21 0 -43 2q-17 1 -70 4.5t-79 3.5h-8q-35 0 -63 -8q-30 -9 -56.5 -30t-45 -45t-44.5 -65l-62 37q54 119 103 195q81 121 166 121q67 0 182 -23q135 -26 205 -26q27 0 66 21.5 t77 57.5l45 -49q-6 -7 -61 -71.5t-91 -100.5q-128 -136 -501 -487h12q71 0 154 -33q96 -35 157 -35q42 0 91 36.5t116 129.5l55 -43q-89 -194 -165 -272t-154 -78q-25 0 -61.5 11t-59 20.5t-75.5 34.5t-64 30q-66 31 -101.5 32.5t-58.5 -20.5q-27 -21 -59 -69 q-15 -22 -29 -19q-12 4 -20.5 15.5t-10.5 31.5z" />
<glyph unicode="{" horiz-adv-x="753" d="M172 518l16 74q49 3 86 17.5t57 30t34.5 42.5t19 42t10.5 42q9 45 21 182q10 125 35 252q13 62 40.5 108.5t62 74t81.5 44t91.5 22t98.5 5.5l-12 -72q-87 -12 -126.5 -58.5t-55.5 -121.5q-8 -34 -23 -184q-5 -151 -20 -232q-16 -84 -72 -146t-154 -81v-8q76 -18 111 -65 t33 -111q0 -34 -8 -73.5t-16.5 -67.5t-24.5 -73.5t-23 -68.5q-51 -173 -51 -233q0 -54 28 -87.5t97 -43.5l-21 -72q-280 0 -282 199q0 20 1 40.5t6 47t7.5 42t11 48t11 42t13 47t11.5 40.5q51 186 51 233q1 24 -4.5 43t-20.5 37t-45.5 29t-74.5 14z" />
<glyph unicode="|" horiz-adv-x="559" d="M246 -512v2048h172v-2048h-172z" />
<glyph unicode="}" horiz-adv-x="753" d="M2 -344l8 72q152 21 185 176q9 42 24 188q5 153 21 227q15 88 75 150t152 82v8q-76 17 -113 75t-26 138q1 22 5.5 46.5t12.5 53.5t14 47.5t17.5 52.5t15.5 46q46 159 49 209q14 138 -123 157l19 70q57 0 105.5 -11t92 -35.5t66.5 -72t19 -114.5q-2 -69 -60 -273 q-5 -18 -19 -68t-21.5 -82.5t-8.5 -54.5q-1 -18 -2.5 -37.5t7 -38.5t22.5 -35t44 -27.5t72 -14.5l-16 -72q-49 -3 -86 -17t-57 -30t-34.5 -43.5t-19 -42t-10.5 -41.5q-7 -36 -20 -182q-16 -171 -35 -252q-15 -77 -51.5 -129.5t-90.5 -78.5t-108.5 -36t-124.5 -10z" />
<glyph unicode="~" horiz-adv-x="1181" d="M133 436q103 232 289 232q59 0 109 -18.5t118 -61.5q127 -82 201 -82q54 0 94 40.5t72 127.5l98 -62q-81 -237 -274 -237q-111 0 -248 92q-58 38 -99 55t-83 17q-116 0 -185 -174z" />
<glyph unicode="&#xa1;" horiz-adv-x="550" d="M-33 -362q7 38 47 153q39 111 116 333.5t116 332.5q8 18 44.5 16t41.5 -14q-3 -130 -13 -370.5t-12 -297.5q-6 -129 -12 -162q-6 -41 -44 -60.5t-134 -19.5h-2q-89 0 -122 25t-26 64zM190 762q0 79 50.5 127.5t117.5 48.5h2q63 0 103.5 -44t40.5 -110v-2 q0 -75 -47.5 -125.5t-120.5 -50.5q-64 0 -105 44t-41 112z" />
<glyph unicode="&#xa2;" d="M150 582q0 134 71.5 247.5t196 183.5t276.5 83l31 164h86l-29 -158q120 -3 189 -53q41 -26 41 -62q0 -45 -31.5 -76.5t-56.5 -31.5q-18 0 -43 28q-2 2 -10 11.5t-10.5 12.5l-10 12t-11.5 12.5t-11.5 11t-12 11t-12 9t-13.5 8.5t-13.5 6t-14.5 5l-123 -650h23 q131 3 247 99l37 -58q-70 -84 -158 -134t-178 -62l-39 -197h-86l39 197q-166 11 -270 110t-104 271zM401 629q0 -102 41.5 -169t114.5 -87l121 643q-127 -6 -202 -115.5t-75 -271.5z" />
<glyph unicode="&#xa3;" d="M-20.5 20.5q-14.5 26.5 2.5 67.5q11 24 37.5 54.5t67 72t54.5 57.5q122 134 125 324h-192l16 88h176q0 88 8 156q29 225 228 366q127 94 248 94q123 0 186 -77q32 -48 -4 -93q-20 -31 -60 -57q-38 -17 -67 6q-12 10 -38.5 35.5t-41.5 38t-39.5 24t-48.5 11.5 q-44 0 -67 -30.5t-31 -92.5q-4 -29 -6 -62t-2 -78.5t0.5 -72t2.5 -87.5t3 -81h309l-17 -88h-297q-16 -115 -88 -197.5t-194 -146.5q108 3 227 -47q4 -2 38.5 -16t47 -19t43 -16t48 -15.5t40.5 -9t41 -4.5q83 0 90 53q3 26 -8 82q-6 22 14 49q50 56 91 56q27 0 37 -27t2 -74 q-8 -61 -65 -130t-124 -114q-109 -75 -221 -75q-30 0 -60.5 6.5t-66.5 23.5t-53.5 26t-60.5 35t-50 30q-48 26 -70 34.5t-49 8.5q-21 0 -45 -22t-41 -58q-6 -16 -15 -25.5t-17 -9.5q-29 0 -43.5 26.5z" />
<glyph unicode="&#xa4;" d="M84 276l145 140q-88 95 -88 250q0 154 88 249l-145 140l96 98l137 -154q95 76 228 76h2q128 0 223 -76l137 154l99 -98l-148 -140q90 -97 90 -249q0 -153 -90 -250l148 -140l-99 -98l-137 154q-95 -76 -225 -76q-138 0 -228 76l-137 -154zM313 666q0 -118 65.5 -193.5 t166.5 -75.5q103 0 167 75t64 194q0 115 -64.5 191.5t-166.5 76.5h-2q-98 0 -164 -77t-66 -191z" />
<glyph unicode="&#xa5;" d="M82 358l16 84h275l28 162h-274l20 84h250q-42 212 -88 381q-22 80 -49.5 105t-105.5 34l10 68h491l-14 -68l-47 -10q-30 -5 -39.5 -18t-5.5 -43q13 -67 38.5 -197t41.5 -207q147 234 215 359q32 60 25.5 82t-56.5 30l-41 4l10 68h392l-13 -68q-54 -5 -85 -19t-52 -36.5 t-70 -85.5q-32 -39 -73 -98t-72.5 -106.5t-114.5 -174.5h250l-18 -84h-267l-32 -162h270l-16 -84h-271l-16 -84q-9 -47 -12.5 -75.5t-1 -53t11 -36.5t29 -21.5t46 -13t68.5 -6.5l-16 -68h-590l16 68q105 6 137.5 40.5t57.5 163.5l18 86h-276z" />
<glyph unicode="&#xa6;" horiz-adv-x="559" d="M246 -358v716h172v-716h-172zM246 666v716h172v-716h-172z" />
<glyph unicode="&#xa7;" horiz-adv-x="1026" d="M115 -84q2 20 24.5 50.5t46.5 43.5q27 16 50 -4q39 -32 94.5 -57t99.5 -25q59 0 96 29.5t37 69.5q1 48 -24.5 89t-77.5 95q-132 132 -195 209q-116 130 -116 293q0 114 68.5 226.5t178.5 205.5q89 75 173.5 118.5t181.5 63.5q60 0 104.5 -18t65.5 -43q25 -27 18 -60 q-3 -24 -24.5 -51.5t-43.5 -38.5q-19 -6 -32 4q-98 88 -193 88q-54 0 -85.5 -32t-31.5 -70q0 -50 54 -113q90 -90 172 -168q104 -98 148 -180.5t44 -179.5v-2q0 -253 -291 -498q-173 -143 -342 -172q-110 0 -172 59q-31 31 -28 68zM301 809q0 -65 26 -125t91 -127l100 -104 q101 -104 144 -183q40 -66 28 -178h6q99 102 99 250q0 124 -123 260q-106 112 -201 219q-96 99 -72 228l-4 2q-46 -52 -70 -118.5t-24 -121.5v-2z" />
<glyph unicode="&#xa8;" horiz-adv-x="819" d="M233 1171q0 53 40.5 100.5t105.5 47.5h2q52 0 80 -33.5t28 -81.5q0 -62 -39 -106.5t-102 -44.5q-52 0 -83.5 31.5t-31.5 86.5zM633 1171q0 53 40 100.5t105 47.5h2q52 0 80.5 -33.5t28.5 -81.5q0 -62 -39 -106.5t-102 -44.5q-52 0 -83.5 31.5t-31.5 86.5z" />
<glyph unicode="&#xa9;" horiz-adv-x="1433" d="M141 664q0 172 81 315.5t226.5 228t325.5 84.5h2q177 0 322.5 -84.5t227 -228.5t81.5 -315q0 -127 -48 -242t-131 -199t-201.5 -134t-252.5 -50q-181 0 -327 85t-226 227.5t-80 312.5zM250 666q0 -151 67.5 -276t188.5 -198t272 -73q150 0 270.5 73t187.5 198t67 276 q0 152 -67 277t-187.5 197t-270.5 72h-2q-150 0 -270.5 -72t-188 -197t-67.5 -277zM420 657q0 112 57.5 197.5t148.5 127.5t199 42q125 0 217 -37q6 -80 23 -182l-49 -12q-33 82 -76.5 123.5t-120.5 41.5q-98 0 -156.5 -80t-58.5 -204q0 -131 65 -215t158 -84 q73 0 122.5 40.5t86.5 119.5l54 -13q-7 -23 -25.5 -89.5t-26.5 -86.5q-126 -41 -223 -41q-80 0 -146.5 20.5t-112 54.5t-76.5 79.5t-45.5 95.5t-14.5 102z" />
<glyph unicode="&#xaa;" horiz-adv-x="751" d="M135 713q0 83 38 171t103 146q52 47 134.5 80t169.5 33h2q27 0 75 -10q23 -4 107 -9q-60 -259 -78 -379q-9 -59 2 -59q9 0 33 12t45 29l22 -43q-57 -56 -127 -91.5t-114 -35.5q-11 0 -20 3.5t-19 15t-10.5 33.5t6.5 59l20 92h-2q-62 -78 -127 -131q-91 -72 -157 -72 q-45 0 -74 38.5t-29 117.5zM322 745q0 -61 28 -61q31 0 80 49q60 57 105 152q21 43 49 164q-30 18 -84 18h-2q-25 0 -54 -20q-39 -26 -75 -99q-47 -96 -47 -203z" />
<glyph unicode="&#xab;" horiz-adv-x="956" d="M106 463q171 169 359 379l59 -37l-202 -342l120 -342l-69 -33q-152 228 -267 375zM467 463q150 148 360 379l60 -37l-203 -342l119 -342l-68 -33q-9 13 -44 65t-47 69t-41.5 59.5t-47 66t-42 56t-46.5 59.5z" />
<glyph unicode="&#xac;" horiz-adv-x="1243" d="M139 635v133h994v-561h-154v428h-840z" />
<glyph unicode="&#xad;" horiz-adv-x="696" d="M84 397l35 146h508l-35 -146h-508z" />
<glyph unicode="&#xae;" horiz-adv-x="638" d="M147 1083q0 110 78.5 190.5t192.5 80.5h2q114 0 192 -80.5t78 -190.5q0 -109 -78.5 -188.5t-193.5 -79.5t-193 77t-78 191zM207 1083q0 -95 60.5 -158t150.5 -63q92 0 152.5 63t60.5 158q0 93 -61 157.5t-152 64.5h-2q-90 0 -149.5 -64.5t-59.5 -157.5zM287 940v31 q29 3 35 8.5t6 32.5v145q0 28 -6 33.5t-33 7.5v31h141q102 0 102 -76q0 -50 -57 -74q28 -51 68 -94q14 -16 28 -20l-8 -27q-68 0 -100 45q-21 30 -41 64q-7 14 -25 14h-10v-49q0 -27 6 -32.5t35 -8.5v-31h-141zM387 1094h21q21 0 34 10q25 12 25 43q0 28 -16 39.5t-35 11.5 q-29 0 -29 -27v-77z" />
<glyph unicode="&#xaf;" horiz-adv-x="819" d="M270 1094l35 143h486l-35 -143h-486z" />
<glyph unicode="&#xb0;" horiz-adv-x="743" d="M205 1073q0 124 87 205.5t212 81.5h2q115 0 190.5 -69t75.5 -189q0 -125 -88 -205t-211 -80q-119 0 -193.5 69.5t-74.5 186.5zM336 1071q0 -70 40.5 -116t104.5 -46q71 0 117.5 55.5t46.5 133.5q0 75 -39.5 122.5t-105.5 47.5h-2q-69 0 -115.5 -55.5t-46.5 -141.5z" />
<glyph unicode="&#xb1;" horiz-adv-x="1243" d="M125 0v133h989v-133h-989zM125 623v133h420v370h151v-370h418v-133h-418v-396h-151v396h-420z" />
<glyph unicode="&#xb2;" horiz-adv-x="698" d="M96 813l13 53q17 15 98.5 74t130.5 102q171 149 174 265q0 47 -31 75.5t-82 28.5q-39 0 -82.5 -28t-80.5 -70l-41 43l92 108q82 82 211 82q90 0 153.5 -55t63.5 -148q0 -28 -8 -54.5t-19 -48t-32.5 -45.5t-38.5 -40t-47 -38.5t-48 -34.5t-51.5 -34t-48.5 -32l-80 -58v-4 h174q51 0 74.5 13.5t60.5 62.5l51 -20q-6 -13 -81 -197h-525z" />
<glyph unicode="&#xb3;" horiz-adv-x="698" d="M129 909q5 17 20.5 37.5t32.5 28.5q13 8 26 6t21 -12q2 -2 16.5 -15t22 -19t23.5 -17.5t28.5 -17t29.5 -10.5t34 -5q47 0 78 38t31 97q0 73 -37.5 106t-96.5 33q-37 0 -67 -10l-8 57q94 21 149 61t55 95q0 33 -20 52.5t-59 19.5q-69 0 -144 -86l-41 36l80 91 q34 31 84.5 51t101.5 20h3q83 0 142.5 -39t59.5 -110q0 -46 -34.5 -82.5t-116.5 -69.5v-4q66 -13 109.5 -53t43.5 -103q0 -140 -182 -229q-107 -55 -213 -55q-47 0 -91 15t-63 34q-29 26 -18 59z" />
<glyph unicode="&#xb4;" horiz-adv-x="819" d="M426 1044q102 186 176 342q30 8 114 10.5t118 -3.5l10 -41l-355 -351z" />
<glyph unicode="&#xb5;" horiz-adv-x="1089" d="M-4 -360q4 84 74 393q30 136 72 326t71 319.5t45 200.5l240 49l14 -10q-100 -404 -137 -586q-16 -68 -16 -107t10 -51t30 -12q28 0 71.5 37.5t85 90.5t75 102.5t49.5 80.5q24 105 90 401l225 56h29q-89 -341 -150 -666q-10 -54 -9.5 -73t12.5 -19q13 0 53.5 27.5 t75.5 62.5l32 -59q-107 -115 -200 -171.5t-154 -56.5q-104 0 -57 205q9 46 26 129h-4q-141 -201 -231 -272q-78 -62 -142 -62q-73 0 -94 107h-4q-18 -50 -24.5 -138.5t2.5 -168.5q14 -117 69 -201l2 -16q-14 -23 -58 -46.5t-91 -23.5q-39 0 -62.5 39t-19.5 113z" />
<glyph unicode="&#xb6;" horiz-adv-x="1015" d="M96 -293q9 18 26 37t32 29q20 14 43 -2q33 -25 75.5 -40.5t75.5 -15.5q32 0 55 10t50 40t50.5 98t43.5 172l53 266l-135 -55q-20 -10 -43 -10q-113 0 -202 110.5t-89 263.5q0 148 80 271t210.5 191.5t280.5 68.5h385l9 -29l-70 -59l-164 -19l-184 -966q-25 -128 -71 -215 t-128 -160q-62 -55 -128 -86t-103 -31q-84 0 -135 51q-40 36 -17 80z" />
<glyph unicode="&#xb7;" horiz-adv-x="538" d="M139 459q0 75 46.5 124.5t117.5 49.5q62 0 100.5 -42.5t38.5 -109.5q0 -77 -47.5 -123.5t-113.5 -46.5h-2q-60 0 -100 42.5t-40 105.5z" />
<glyph unicode="&#xb8;" horiz-adv-x="819" d="M166 -428q68 30 103.5 57t35.5 58q2 32 -37 82q-32 39 -32 69t34 72l80 96h103l-50 -57q-18 -23 -15 -40t28 -50q31 -43 44.5 -73.5t10.5 -64.5q-3 -66 -80 -122.5t-198 -90.5z" />
<glyph unicode="&#xb9;" horiz-adv-x="698" d="M172 813l14 55q77 9 100 29t36 92l63 322q13 75 3.5 92.5t-62.5 23.5l-37 5l12 53q136 14 330 61l-109 -557q-13 -71 5 -91.5t98 -29.5l-15 -55h-438z" />
<glyph unicode="&#xba;" horiz-adv-x="702" d="M147 776q-1 106 52 191.5t139 128.5q78 43 168 43h2q107 0 169 -59.5t62 -168.5q0 -81 -36.5 -156.5t-104.5 -125.5q-43 -33 -102 -52.5t-117 -19.5q-111 0 -171.5 61.5t-60.5 157.5zM330 770q0 -70 24.5 -106.5t59.5 -36.5q17 0 49 14q33 20 65.5 109t32.5 196 q-3 125 -82 125h-2q-21 0 -43 -14q-37 -20 -70.5 -93t-33.5 -194z" />
<glyph unicode="&#xbb;" horiz-adv-x="958" d="M92 121l205 342l-121 342l70 33q178 -267 266 -375q-162 -159 -360 -381zM453 121l204 342l-120 342l69 33q158 -237 266 -375q-172 -169 -358 -381z" />
<glyph unicode="&#xbc;" horiz-adv-x="1718" d="M152 569l12 56q76 9 99 29t36 91l63 322q13 75 3.5 93t-62.5 24l-39 4l12 53q132 14 330 62l-106 -558q-15 -71 3 -91t99 -29l-12 -56h-438zM256 -23l1083 1350l66 -59l-1088 -1350zM801 193l10 55q218 246 471 485h127l-86 -457h111l-17 -83h-110l-11 -48q-8 -48 8 -65 t80 -27l-10 -53h-401l14 53q71 11 91.5 24.5t29.5 63.5l10 52h-317zM940 276h195l61 285h-4q-15 -18 -110 -122t-142 -163z" />
<glyph unicode="&#xbd;" horiz-adv-x="1597" d="M133 569l17 56q76 9 99 29t36 91l63 322q13 75 3.5 93t-62.5 24l-39 4l12 53q132 14 330 62l-107 -558q-15 -71 3.5 -90.5t99.5 -27.5l-15 -58h-440zM233 -23l1086 1350l65 -59l-1087 -1350zM860 0l12 53q17 15 98 74.5t132 103.5q172 147 172 263q0 47 -30 75.5 t-81 28.5q-39 0 -83 -28t-81 -70l-41 43l89 104q89 86 215 86q90 0 153.5 -55t63.5 -148q0 -32 -9 -61t-28 -55.5t-37.5 -47.5t-50.5 -45.5t-53 -40t-58.5 -40.5t-54.5 -37l-80 -58v-4h170q51 0 76 13.5t61 62.5l51 -20q-27 -62 -82 -197h-524z" />
<glyph unicode="&#xbe;" horiz-adv-x="1597" d="M168 666q5 16 20.5 36.5t32.5 28.5q25 16 47 -6l10 -9q9 -9 11.5 -11t12 -10.5t14 -11.5t14.5 -10.5t16.5 -10.5t17 -8t19 -7t19 -4t20.5 -2q46 0 77 37t31 96q0 73 -38 107t-97 34q-35 0 -65 -10l-8 58q93 21 148.5 60.5t55.5 94.5q0 33 -20.5 52.5t-59.5 19.5 q-68 0 -143 -86l-41 37l80 90q34 31 85 51.5t101 20.5h2q83 0 143 -39t60 -109q0 -48 -34.5 -84.5t-116.5 -69.5v-4q65 -13 109 -52.5t44 -102.5q0 -141 -182 -230q-107 -55 -213 -55q-46 0 -90 15t-64 32q-29 29 -18 62zM287 -23l1083 1350l66 -59l-1088 -1350zM809 193 l10 55q241 269 473 485h127l-88 -457h113l-19 -83h-110l-8 -48q-8 -48 7.5 -65t80.5 -27l-11 -53h-401l14 53q70 10 91 24t30 64l10 52h-319zM950 276h195l61 285h-4q-22 -25 -63.5 -70.5t-66.5 -73t-59 -67t-63 -74.5z" />
<glyph unicode="&#xbf;" horiz-adv-x="768" d="M-14 -129q0 170 155 258q19 11 58.5 34t57 33t47 29t42.5 30.5t29 27.5t22 31t6 30q0 54 -43 115l54 43q45 -21 89 -56t79.5 -90t35.5 -110q-1 -48 -21 -88.5t-59.5 -74.5t-75 -56.5t-89.5 -51.5q-21 -11 -56 -29.5t-55 -29.5t-47.5 -26.5t-43 -26.5t-31 -24.5 t-22.5 -25.5t-7 -24q0 -23 20.5 -40t58.5 -17q52 0 102 17t80 38t57.5 38t41.5 17q30 0 62 -44t32 -95q0 -45 -59 -82q-52 -36 -108.5 -54t-96.5 -18h-2q-122 0 -217.5 99.5t-95.5 222.5zM342 762q0 79 50.5 127.5t117.5 48.5h2q62 0 101.5 -43.5t39.5 -110.5 q0 -77 -47 -127.5t-119 -50.5q-64 0 -104.5 44t-40.5 112z" />
<glyph unicode="&#xc0;" horiz-adv-x="1376" d="M-41 0l18 70q52 8 77.5 16t56.5 33.5t57.5 64.5t71.5 117l589 1030l109 27l35 -234q20 -127 68 -407t71 -428q8 -51 13 -78.5t14.5 -54.5t19.5 -38.5t29.5 -23t42 -16t59.5 -8.5l-18 -70h-557l20 70q92 10 112 36t9 103q-3 20 -14.5 99.5t-18.5 129.5h-389 q-32 -62 -112 -231q-38 -67 -18.5 -95t134.5 -42l-18 -70h-461zM487 541h322l-66 460h-6q-17 -32 -109.5 -198.5t-140.5 -261.5zM549 1542q8 38 43.5 92.5t64.5 67.5q196 -128 365 -242l-33 -61l-434 119z" />
<glyph unicode="&#xc1;" horiz-adv-x="1376" d="M-41 0l18 70q52 8 77.5 16t56.5 33.5t57.5 64.5t71.5 117l589 1030l109 27l35 -234q20 -127 68 -407t71 -428q8 -51 13 -78.5t14.5 -54.5t19.5 -38.5t29.5 -23t42 -16t59.5 -8.5l-18 -70h-557l20 70q92 10 112 36t9 103q-3 20 -14.5 99.5t-18.5 129.5h-389 q-32 -62 -112 -231q-38 -67 -18.5 -95t134.5 -42l-18 -70h-461zM487 541h322l-66 460h-6q-17 -32 -109.5 -198.5t-140.5 -261.5zM756 1460q335 221 364 240q29 -7 66 -62.5t43 -97.5l-10 -24l-431 -119z" />
<glyph unicode="&#xc2;" horiz-adv-x="1376" d="M-41 0l18 70q52 8 77.5 16t56.5 33.5t57.5 64.5t71.5 117l589 1030l109 27l35 -234q20 -127 68 -407t71 -428q8 -51 13 -78.5t14.5 -54.5t19.5 -38.5t29.5 -23t42 -16t59.5 -8.5l-18 -70h-557l20 70q92 10 112 36t9 103q-3 20 -14.5 99.5t-18.5 129.5h-389 q-32 -62 -112 -231q-38 -67 -18.5 -95t134.5 -42l-18 -70h-461zM487 541h322l-66 460h-6q-17 -32 -109.5 -198.5t-140.5 -261.5zM590 1460q99 64 303 232h68q118 -130 231 -234l-43 -57q-163 63 -246 112q-140 -66 -278 -112z" />
<glyph unicode="&#xc3;" horiz-adv-x="1376" d="M-41 0l18 70q52 8 77.5 16t56.5 33.5t57.5 64.5t71.5 117l589 1030l109 27l35 -234q20 -127 68 -407t71 -428q8 -51 13 -78.5t14.5 -54.5t19.5 -38.5t29.5 -23t42 -16t59.5 -8.5l-18 -70h-557l20 70q92 10 112 36t9 103q-3 20 -14.5 99.5t-18.5 129.5h-389 q-32 -62 -112 -231q-38 -67 -18.5 -95t134.5 -42l-18 -70h-461zM487 541h322l-66 460h-6q-17 -32 -109.5 -198.5t-140.5 -261.5zM598 1442q35 97 83 142.5t101 45.5t140 -41q7 -3 21.5 -8.5t21.5 -8t18 -6.5t18 -5.5t16 -3t17 -1.5q32 0 55 23t48 66l63 -39 q-68 -195 -178 -195q-53 0 -156 47q-59 27 -100 27q-58 0 -102 -90z" />
<glyph unicode="&#xc4;" horiz-adv-x="1376" d="M-41 0l18 70q52 8 77.5 16t56.5 33.5t57.5 64.5t71.5 117l589 1030l109 27l35 -234q20 -127 68 -407t71 -428q8 -51 13 -78.5t14.5 -54.5t19.5 -38.5t29.5 -23t42 -16t59.5 -8.5l-18 -70h-557l20 70q92 10 112 36t9 103q-3 20 -14.5 99.5t-18.5 129.5h-389 q-32 -62 -112 -231q-38 -67 -18.5 -95t134.5 -42l-18 -70h-461zM487 541h322l-66 460h-6q-17 -32 -109.5 -198.5t-140.5 -261.5zM561 1534q0 55 40 102t104 47h2q53 0 81.5 -33.5t28.5 -82.5q0 -61 -39.5 -105.5t-101.5 -44.5q-52 0 -83.5 31t-31.5 86zM991 1534 q0 55 40 102t106 47h2q53 0 80.5 -33.5t27.5 -82.5q0 -61 -39.5 -105.5t-101.5 -44.5q-52 0 -83 31t-32 86z" />
<glyph unicode="&#xc5;" horiz-adv-x="1376" d="M-41 0l18 70q52 8 77.5 16t56.5 33.5t57.5 64.5t71.5 117l589 1030l109 27l35 -234q20 -127 68 -407t71 -428q8 -51 13 -78.5t14.5 -54.5t19.5 -38.5t29.5 -23t42 -16t59.5 -8.5l-18 -70h-557l20 70q92 10 112 36t9 103q-3 20 -14.5 99.5t-18.5 129.5h-389 q-32 -62 -112 -231q-38 -67 -18.5 -95t134.5 -42l-18 -70h-461zM487 541h322l-66 460h-6q-17 -32 -109.5 -198.5t-140.5 -261.5zM711 1583q1 87 64 141t147 54q76 0 128.5 -50t49.5 -131v-2q-3 -84 -66.5 -137t-144.5 -53q-79 0 -130 48.5t-48 129.5zM815 1585 q0 -43 21.5 -69.5t60.5 -26.5q40 0 67 31t29 77v2q2 40 -19.5 69.5t-58.5 29.5q-42 0 -70 -32.5t-30 -80.5z" />
<glyph unicode="&#xc6;" horiz-adv-x="1759" d="M-121 0l17 72q99 10 139.5 35.5t109.5 119.5q247 344 629 910q20 29 28 45.5t10.5 29t-9.5 19t-30 10.5t-54 8l-111 13l23 67h1141q-32 -296 -35 -319l-74 -6q-13 136 -47 184q-20 32 -60.5 43.5t-130.5 11.5h-94q-52 0 -67.5 -14t-24.5 -64l-88 -473h141q47 0 74.5 1 t53 8.5t38.5 15.5t28.5 29.5t25 42.5t26.5 63h74l-80 -424h-76q1 46 0.5 68t-7.5 44.5t-15.5 30t-32.5 15t-49.5 8t-75.5 0.5h-146l-55 -307q-20 -119 12 -160q33 -41 175 -41q87 0 142 14.5t95 51.5q53 48 137 202l70 -28q-83 -253 -119 -326h-995l12 72q59 5 86.5 11 t53.5 25t38.5 53t24.5 97l63 336h-350q-209 -324 -239 -379q-39 -72 -31 -98t76 -35l57 -10l-16 -72h-488zM584 692h305l108 545q-29 0 -73 -33q-269 -401 -340 -512z" />
<glyph unicode="&#xc7;" horiz-adv-x="1333" d="M131 549q0 149 45.5 278.5t127.5 226.5t193 167t243.5 105.5t277.5 35.5q44 0 87 -3.5t74 -8t65.5 -12t52 -12.5t43 -12.5t30.5 -8.5q-3 -93 -20 -344l-72 -9q-28 179 -102.5 250.5t-202.5 71.5q-143 0 -267 -95.5t-198 -260.5t-74 -357q0 -237 89.5 -370.5t246.5 -133.5 q119 0 218 79.5t224 254.5l68 -31q-31 -83 -78.5 -178.5t-87.5 -158.5q-191 -50 -330 -52l-24 -28q-18 -24 -15.5 -42t27.5 -51q32 -44 46 -75.5t13 -65.5q-3 -68 -79 -125t-201 -92l-25 62q142 65 144 118q1 10 -0.5 19t-7.5 20t-8 14.5t-12 16.5l-9 14q-35 41 -35.5 72.5 t35.5 73.5l59 71q-254 14 -407.5 164.5t-153.5 411.5z" />
<glyph unicode="&#xc8;" horiz-adv-x="1167" d="M2 0l14 70q43 3 67 6.5t47 12.5t33.5 19t22 33t17 48.5t14.5 70.5l158 809q9 52 11 80t-2.5 51t-24.5 33.5t-47.5 16.5t-78.5 10l19 69h936q-1 -13 -8 -79t-14.5 -131.5t-12.5 -110.5l-74 -7q-10 149 -43 191q-18 28 -55.5 39.5t-122.5 11.5h-100q-58 0 -75 -14.5 t-28 -71.5l-80 -412h138h58.5t45 5t33.5 6t25.5 13.5t20 17.5t17.5 28.5t17 34.5t20 47h76l-84 -422h-74q2 121 -21 145.5t-149 24.5h-141l-65 -346q-24 -133 4 -170q17 -24 57 -33.5t115 -9.5q92 0 147 16t92 52q79 72 148 196l69 -26q-66 -195 -125 -324h-997zM459 1550 q8 38 43.5 92.5t64.5 67.5q196 -128 365 -242l-33 -61l-434 119z" />
<glyph unicode="&#xc9;" horiz-adv-x="1167" d="M2 0l14 70q43 3 67 6.5t47 12.5t33.5 19t22 33t17 48.5t14.5 70.5l158 809q9 52 11 80t-2.5 51t-24.5 33.5t-47.5 16.5t-78.5 10l19 69h936q-1 -13 -8 -79t-14.5 -131.5t-12.5 -110.5l-74 -7q-10 149 -43 191q-18 28 -55.5 39.5t-122.5 11.5h-100q-58 0 -75 -14.5 t-28 -71.5l-80 -412h138h58.5t45 5t33.5 6t25.5 13.5t20 17.5t17.5 28.5t17 34.5t20 47h76l-84 -422h-74q2 121 -21 145.5t-149 24.5h-141l-65 -346q-24 -133 4 -170q17 -24 57 -33.5t115 -9.5q92 0 147 16t92 52q79 72 148 196l69 -26q-66 -195 -125 -324h-997zM649 1466 q306 202 365 240q29 -7 65.5 -62.5t42.5 -97.5l-10 -24l-430 -119z" />
<glyph unicode="&#xca;" horiz-adv-x="1167" d="M2 0l14 70q43 3 67 6.5t47 12.5t33.5 19t22 33t17 48.5t14.5 70.5l158 809q9 52 11 80t-2.5 51t-24.5 33.5t-47.5 16.5t-78.5 10l19 69h936q-1 -13 -8 -79t-14.5 -131.5t-12.5 -110.5l-74 -7q-10 149 -43 191q-18 28 -55.5 39.5t-122.5 11.5h-100q-58 0 -75 -14.5 t-28 -71.5l-80 -412h138h58.5t45 5t33.5 6t25.5 13.5t20 17.5t17.5 28.5t17 34.5t20 47h76l-84 -422h-74q2 121 -21 145.5t-149 24.5h-141l-65 -346q-24 -133 4 -170q17 -24 57 -33.5t115 -9.5q92 0 147 16t92 52q79 72 148 196l69 -26q-66 -195 -125 -324h-997zM487 1462 q104 67 304 232h67q113 -125 232 -234l-43 -57q-158 61 -246 113q-146 -68 -279 -113z" />
<glyph unicode="&#xcb;" horiz-adv-x="1167" d="M2 0l14 70q43 3 67 6.5t47 12.5t33.5 19t22 33t17 48.5t14.5 70.5l158 809q9 52 11 80t-2.5 51t-24.5 33.5t-47.5 16.5t-78.5 10l19 69h936q-1 -13 -8 -79t-14.5 -131.5t-12.5 -110.5l-74 -7q-10 149 -43 191q-18 28 -55.5 39.5t-122.5 11.5h-100q-58 0 -75 -14.5 t-28 -71.5l-80 -412h138h58.5t45 5t33.5 6t25.5 13.5t20 17.5t17.5 28.5t17 34.5t20 47h76l-84 -422h-74q2 121 -21 145.5t-149 24.5h-141l-65 -346q-24 -133 4 -170q17 -24 57 -33.5t115 -9.5q92 0 147 16t92 52q79 72 148 196l69 -26q-66 -195 -125 -324h-997zM465 1534 q0 55 39.5 102t103.5 47h2q53 0 82 -33.5t29 -82.5q0 -61 -39.5 -105.5t-101.5 -44.5q-52 0 -83.5 31t-31.5 86zM895 1534q0 55 39.5 102t105.5 47h2q53 0 81 -33.5t28 -82.5q0 -61 -39.5 -105.5t-101.5 -44.5q-52 0 -83 31t-32 86z" />
<glyph unicode="&#xcc;" horiz-adv-x="749" d="M10 0l15 70q39 3 62.5 7t44.5 13t32 20t22 34.5t17.5 49t15.5 70.5l158 801q8 45 11.5 71t0.5 49.5t-11.5 34.5t-30 20t-47.5 13t-71 7l17 69h606l-16 -69q-40 -3 -64 -6.5t-45.5 -13.5t-32 -20t-21.5 -34.5t-17 -49.5t-15 -71l-154 -801q-11 -52 -13 -81.5t2.5 -52.5 t25 -33.5t48.5 -16.5t81 -10l-15 -70h-606zM254 1542q8 38 43.5 92.5t64.5 67.5q196 -128 365 -242l-33 -61l-434 119z" />
<glyph unicode="&#xcd;" horiz-adv-x="749" d="M10 0l15 70q39 3 62.5 7t44.5 13t32 20t22 34.5t17.5 49t15.5 70.5l158 801q8 45 11.5 71t0.5 49.5t-11.5 34.5t-30 20t-47.5 13t-71 7l17 69h606l-16 -69q-40 -3 -64 -6.5t-45.5 -13.5t-32 -20t-21.5 -34.5t-17 -49.5t-15 -71l-154 -801q-11 -52 -13 -81.5t2.5 -52.5 t25 -33.5t48.5 -16.5t81 -10l-15 -70h-606zM422 1460q335 221 364 240q29 -7 66 -62.5t43 -97.5l-10 -24l-430 -119z" />
<glyph unicode="&#xce;" horiz-adv-x="749" d="M10 0l15 70q39 3 62.5 7t44.5 13t32 20t22 34.5t17.5 49t15.5 70.5l158 801q8 45 11.5 71t0.5 49.5t-11.5 34.5t-30 20t-47.5 13t-71 7l17 69h606l-16 -69q-40 -3 -64 -6.5t-45.5 -13.5t-32 -20t-21.5 -34.5t-17 -49.5t-15 -71l-154 -801q-11 -52 -13 -81.5t2.5 -52.5 t25 -33.5t48.5 -16.5t81 -10l-15 -70h-606zM264 1462q99 64 303 232h68q118 -130 231 -234l-43 -57q-155 60 -245 113q-146 -68 -279 -113z" />
<glyph unicode="&#xcf;" horiz-adv-x="749" d="M10 0l15 70q39 3 62.5 7t44.5 13t32 20t22 34.5t17.5 49t15.5 70.5l158 801q8 45 11.5 71t0.5 49.5t-11.5 34.5t-30 20t-47.5 13t-71 7l17 69h606l-16 -69q-40 -3 -64 -6.5t-45.5 -13.5t-32 -20t-21.5 -34.5t-17 -49.5t-15 -71l-154 -801q-11 -52 -13 -81.5t2.5 -52.5 t25 -33.5t48.5 -16.5t81 -10l-15 -70h-606zM248 1534q0 55 39.5 102t103.5 47h2q53 0 82 -33.5t29 -82.5q0 -61 -40 -105.5t-102 -44.5q-52 0 -83 31t-31 86zM678 1534q0 55 39.5 102t105.5 47h2q53 0 81 -33.5t28 -82.5q0 -61 -39.5 -105.5t-101.5 -44.5q-51 0 -82.5 31 t-32.5 86z" />
<glyph unicode="&#xd0;" horiz-adv-x="1511" d="M8 0l21 70q60 5 92.5 13t54.5 31t31.5 51.5t21.5 88.5l76 393h-203l23 101h199l63 329q8 42 11 67t-0.5 47t-11.5 32t-29 18.5t-46 12t-69 6.5l18 69h543q324 0 504 -140t180 -419q0 -198 -86 -361.5t-254 -265.5q-239 -143 -658 -143h-481zM498 264q-23 -119 26 -153 q39 -25 111 -25q155 0 283 95t200 255.5t72 349.5q0 120 -29 210t-82 143.5t-120.5 79.5t-149.5 26q-77 0 -107 -20q-29 -18 -45 -109l-71 -368h288l-24 -101h-285z" />
<glyph unicode="&#xd1;" horiz-adv-x="1441" d="M-12 0l18 70q78 4 115 32t59 97q42 131 86 342l88 413q22 120 20 163.5t-22 78.5q-18 33 -55 46t-107 18l17 69h375l544 -944h4l74 391q41 231 49 346q4 76 -34 104.5t-146 33.5l17 69h493l-16 -69q-88 -3 -123 -31t-55 -96q-37 -117 -82 -353l-154 -800h-106l-584 1042 h-4l-92 -481q-40 -207 -48 -334q-3 -73 34 -102t145 -35l-17 -70h-493zM625 1432q35 97 83 142.5t101 45.5q52 0 139 -41q86 -33 113 -33q32 0 54.5 22.5t47.5 65.5l64 -39q-67 -194 -178 -194q-53 0 -156 47q-59 27 -100 27q-58 0 -103 -91z" />
<glyph unicode="&#xd2;" horiz-adv-x="1480" d="M129 547q0 162 57 310.5t156 260t243 178t308 66.5q256 0 410.5 -163t154.5 -425q0 -223 -95.5 -406.5t-270.5 -291t-396 -107.5q-255 0 -411 157t-156 421zM430 496q0 -132 27 -228t91 -154.5t161 -58.5t183.5 71t143.5 183t90 248.5t33 269.5q0 100 -15.5 179.5 t-48 140.5t-87 94t-127.5 33q-90 0 -174 -66.5t-144 -174.5t-96.5 -250t-36.5 -287zM618 1561q8 38 44 92t65 67q233 -152 365 -241l-33 -62l-434 119z" />
<glyph unicode="&#xd3;" horiz-adv-x="1480" d="M129 547q0 162 57 310.5t156 260t243 178t308 66.5q256 0 410.5 -163t154.5 -425q0 -223 -95.5 -406.5t-270.5 -291t-396 -107.5q-255 0 -411 157t-156 421zM430 496q0 -132 27 -228t91 -154.5t161 -58.5t183.5 71t143.5 183t90 248.5t33 269.5q0 100 -15.5 179.5 t-48 140.5t-87 94t-127.5 33q-90 0 -174 -66.5t-144 -174.5t-96.5 -250t-36.5 -287zM748 1479q290 192 364 239q29 -7 66 -62t43 -97l-11 -25l-430 -119z" />
<glyph unicode="&#xd4;" horiz-adv-x="1480" d="M129 547q0 162 57 310.5t156 260t243 178t308 66.5q256 0 410.5 -163t154.5 -425q0 -223 -95.5 -406.5t-270.5 -291t-396 -107.5q-255 0 -411 157t-156 421zM430 496q0 -132 27 -228t91 -154.5t161 -58.5t183.5 71t143.5 183t90 248.5t33 269.5q0 100 -15.5 179.5 t-48 140.5t-87 94t-127.5 33q-90 0 -174 -66.5t-144 -174.5t-96.5 -250t-36.5 -287zM614 1473q110 71 304 231h67q113 -125 232 -234l-43 -57q-158 61 -246 113q-146 -68 -279 -113z" />
<glyph unicode="&#xd5;" horiz-adv-x="1480" d="M129 547q0 162 57 310.5t156 260t243 178t308 66.5q256 0 410.5 -163t154.5 -425q0 -223 -95.5 -406.5t-270.5 -291t-396 -107.5q-255 0 -411 157t-156 421zM430 496q0 -132 27 -228t91 -154.5t161 -58.5t183.5 71t143.5 183t90 248.5t33 269.5q0 100 -15.5 179.5 t-48 140.5t-87 94t-127.5 33q-90 0 -174 -66.5t-144 -174.5t-96.5 -250t-36.5 -287zM612 1462q35 97 83.5 143t101.5 46q52 0 139 -41q86 -33 113 -33q32 0 54.5 22.5t47.5 65.5l63 -39q-67 -194 -178 -194q-52 0 -155 47q-57 26 -101 26q-58 0 -102 -90z" />
<glyph unicode="&#xd6;" horiz-adv-x="1480" d="M129 547q0 162 57 310.5t156 260t243 178t308 66.5q256 0 410.5 -163t154.5 -425q0 -223 -95.5 -406.5t-270.5 -291t-396 -107.5q-255 0 -411 157t-156 421zM430 496q0 -132 27 -228t91 -154.5t161 -58.5t183.5 71t143.5 183t90 248.5t33 269.5q0 100 -15.5 179.5 t-48 140.5t-87 94t-127.5 33q-90 0 -174 -66.5t-144 -174.5t-96.5 -250t-36.5 -287zM598 1552q0 55 39.5 102.5t103.5 47.5h2q53 0 82 -34t29 -83q0 -61 -39.5 -105t-101.5 -44q-52 0 -83.5 30.5t-31.5 85.5zM1028 1552q0 55 40 102.5t106 47.5h2q53 0 80.5 -34t27.5 -83 q0 -61 -39.5 -105t-101.5 -44q-52 0 -83 30.5t-32 85.5z" />
<glyph unicode="&#xd7;" horiz-adv-x="1243" d="M156 123l370 381l-370 377l98 104l373 -379l372 383l101 -102l-373 -383l373 -381l-101 -103l-372 381l-373 -381z" />
<glyph unicode="&#xd8;" horiz-adv-x="1476" d="M129 555q0 159 57.5 306t156.5 257.5t243.5 177t308.5 66.5q178 0 311 -88l115 151l72 -55l-115 -149q84 -77 132 -192.5t48 -256.5q0 -224 -95.5 -407t-270 -289.5t-394.5 -106.5q-189 0 -325 88l-117 -151l-66 61l111 144q-82 73 -128 192.5t-44 251.5zM422 516 q0 -132 31 -223l643 842q-28 65 -85.5 103t-131.5 38q-126 0 -232.5 -111t-165.5 -285.5t-59 -363.5zM496 203q58 -148 219 -148q129 0 234.5 116t160.5 288.5t55 353.5q0 137 -28 229z" />
<glyph unicode="&#xd9;" horiz-adv-x="1447" d="M207 1260l16 69h598l-18 -69q-45 -4 -70 -10t-45.5 -16.5t-32.5 -34.5t-21 -55t-20 -87l-92 -492q-44 -233 23.5 -344.5t220.5 -111.5q167 0 271.5 129.5t152.5 388.5l31 174q40 213 47 332q4 67 -39 94.5t-148 32.5l19 69h510l-17 -69q-86 -3 -124.5 -31t-63.5 -101 q-38 -117 -78 -327l-39 -201q-65 -334 -227 -489q-73 -70 -170 -106t-201 -36q-218 0 -342 113q-160 144 -94 493l92 482q10 54 12 84.5t-2.5 54.5t-24 35.5t-47 18t-77.5 10.5zM625 1542q8 38 43.5 92.5t64.5 67.5q196 -128 365 -242l-33 -61l-434 119z" />
<glyph unicode="&#xda;" horiz-adv-x="1447" d="M207 1260l16 69h598l-18 -69q-45 -4 -70 -10t-45.5 -16.5t-32.5 -34.5t-21 -55t-20 -87l-92 -492q-44 -233 23.5 -344.5t220.5 -111.5q167 0 271.5 129.5t152.5 388.5l31 174q40 213 47 332q4 67 -39 94.5t-148 32.5l19 69h510l-17 -69q-86 -3 -124.5 -31t-63.5 -101 q-38 -117 -78 -327l-39 -201q-65 -334 -227 -489q-73 -70 -170 -106t-201 -36q-218 0 -342 113q-160 144 -94 493l92 482q10 54 12 84.5t-2.5 54.5t-24 35.5t-47 18t-77.5 10.5zM788 1460q306 202 365 240q29 -7 66 -62.5t43 -97.5l-11 -24l-430 -119z" />
<glyph unicode="&#xdb;" horiz-adv-x="1447" d="M207 1260l16 69h598l-18 -69q-45 -4 -70 -10t-45.5 -16.5t-32.5 -34.5t-21 -55t-20 -87l-92 -492q-44 -233 23.5 -344.5t220.5 -111.5q167 0 271.5 129.5t152.5 388.5l31 174q40 213 47 332q4 67 -39 94.5t-148 32.5l19 69h510l-17 -69q-86 -3 -124.5 -31t-63.5 -101 q-38 -117 -78 -327l-39 -201q-65 -334 -227 -489q-73 -70 -170 -106t-201 -36q-218 0 -342 113q-160 144 -94 493l92 482q10 54 12 84.5t-2.5 54.5t-24 35.5t-47 18t-77.5 10.5zM641 1462q99 64 303 232h68q118 -130 231 -234l-43 -57q-158 61 -246 113q-148 -69 -278 -113z " />
<glyph unicode="&#xdc;" horiz-adv-x="1447" d="M207 1260l16 69h598l-18 -69q-45 -4 -70 -10t-45.5 -16.5t-32.5 -34.5t-21 -55t-20 -87l-92 -492q-44 -233 23.5 -344.5t220.5 -111.5q167 0 271.5 129.5t152.5 388.5l31 174q40 213 47 332q4 67 -39 94.5t-148 32.5l19 69h510l-17 -69q-86 -3 -124.5 -31t-63.5 -101 q-38 -117 -78 -327l-39 -201q-65 -334 -227 -489q-73 -70 -170 -106t-201 -36q-218 0 -342 113q-160 144 -94 493l92 482q10 54 12 84.5t-2.5 54.5t-24 35.5t-47 18t-77.5 10.5zM610 1534q0 55 40 102t104 47h2q53 0 81.5 -33.5t28.5 -82.5q0 -61 -39.5 -105.5t-101.5 -44.5 q-52 0 -83.5 31t-31.5 86zM1040 1534q0 55 40 102t106 47h2q53 0 80.5 -33.5t27.5 -82.5q0 -61 -39.5 -105.5t-101.5 -44.5q-51 0 -82.5 31t-32.5 86z" />
<glyph unicode="&#xdd;" horiz-adv-x="1298" d="M195 1260l20 69h537l-17 -69l-55 -13q-43 -7 -51 -28t8 -72q53 -176 149 -449q203 305 281 441q33 55 23 77.5t-74 34.5l-45 6l22 72h459l-20 -69q-96 -10 -139.5 -39t-129.5 -134q-76 -98 -299 -428q-40 -60 -55 -124l-53 -261q-9 -45 -12.5 -73t0.5 -51.5t13.5 -36 t32.5 -22t52 -14t76 -7.5l-19 -70h-647l18 70q65 5 97 12t58 30.5t37.5 58t26.5 103.5l52 238q9 44 7 71.5t-16 69.5q-17 48 -63.5 189t-81.5 243q-38 110 -69.5 138t-122.5 37zM713 1460q335 221 364 240q29 -7 66 -62.5t43 -97.5l-10 -24l-431 -119z" />
<glyph unicode="&#xde;" horiz-adv-x="1198" d="M8 0l15 70q59 4 88 10t51.5 26t32 49t20.5 87l164 843q7 39 10 61.5t0.5 43.5t-10.5 31t-26.5 19t-43.5 13t-65 7l18 69h582l-17 -69q-42 -3 -65 -6.5t-45 -14.5t-32 -22t-21.5 -40.5t-17.5 -57.5t-17 -85h137q428 0 428 -334q0 -116 -65 -207.5t-175 -142t-245 -55.5 q-36 -3 -74 4l-139 33l-21 -90q-8 -38 -10.5 -61t1.5 -43t14.5 -30.5t34 -19t53.5 -12t79 -6.5l-16 -70h-623zM512 412q52 -21 123 -21q119 0 195.5 96.5t76.5 233.5q0 114 -55 171.5t-156 57.5q-49 0 -71 -18q-17 -11 -31 -84z" />
<glyph unicode="&#xdf;" horiz-adv-x="1114" d="M-260 -418q0 25 18 55.5t39 51.5q36 29 58 12q32 -26 71.5 -42.5t67.5 -16.5q49 0 72 51q25 64 79 413q18 118 40 264.5t36.5 243.5t26.5 181h-156l-10 22l65 76h119q48 277 244 434q163 125 326 125q142 -1 217 -73t75 -191q1 -37 -9 -68.5t-23 -44.5 q-70 -50 -114.5 -91t-64.5 -75t-26 -57.5t-6 -54.5q2 -63 71 -187q46 -76 67 -131.5t21 -116.5q0 -66 -30.5 -128.5t-78.5 -108t-105 -80.5t-111.5 -52.5t-95.5 -17.5q-70 0 -124.5 33.5t-54.5 81.5q0 47 56 94q28 22 55 2q111 -86 190 -86q41 0 71 26.5t30 70.5 q0 67 -86 219q-8 15 -28 47.5t-30.5 51.5t-23.5 47.5t-19 55.5t-6 56q0 62 55 139t187 188q25 55 25 127q0 109 -42 172.5t-106 63.5q-120 1 -185 -185q-36 -101 -77 -352q-1 -9 -2 -12q-18 -99 -45.5 -264t-40.5 -240q-87 -492 -322 -702q-62 -56 -124.5 -87.5 t-110.5 -31.5t-86.5 27t-38.5 65z" />
<glyph unicode="&#xe0;" horiz-adv-x="1062" d="M70 225q0 147 61.5 288.5t163.5 234.5q81 72 201.5 127t238.5 55q43 0 131 -15q66 -14 119 -14l12 -8q-81 -336 -135 -639q-13 -80 6 -80q14 0 58.5 32t77.5 66l34 -53q-96 -116 -199 -180t-163 -64q-21 0 -35.5 7.5t-27 30.5t-10.5 65t13 112l23 109h-4 q-89 -121 -203 -219q-126 -105 -219 -105q-63 0 -103 66.5t-40 183.5zM336 274q0 -114 43 -114q49 0 152 117.5t135 185.5q54 221 73 336q-51 28 -118 28q-49 0 -91 -26q-90 -66 -142 -223t-52 -304zM494 1343l8 31q25 9 102 20.5t111 8.5q37 -200 65 -379l-75 -23 q-62 103 -211 342z" />
<glyph unicode="&#xe1;" horiz-adv-x="1062" d="M70 225q0 147 61.5 288.5t163.5 234.5q81 72 201.5 127t238.5 55q43 0 131 -15q66 -14 119 -14l12 -8q-81 -336 -135 -639q-13 -80 6 -80q14 0 58.5 32t77.5 66l34 -53q-96 -116 -199 -180t-163 -64q-21 0 -35.5 7.5t-27 30.5t-10.5 65t13 112l23 109h-4 q-89 -121 -203 -219q-126 -105 -219 -105q-63 0 -103 66.5t-40 183.5zM336 274q0 -114 43 -114q49 0 152 117.5t135 185.5q54 221 73 336q-51 28 -118 28q-49 0 -91 -26q-90 -66 -142 -223t-52 -304zM584 1044q102 186 176 342q30 8 113.5 10.5t117.5 -3.5l10 -41l-354 -351 z" />
<glyph unicode="&#xe2;" horiz-adv-x="1062" d="M70 225q0 147 61.5 288.5t163.5 234.5q81 72 201.5 127t238.5 55q43 0 131 -15q66 -14 119 -14l12 -8q-81 -336 -135 -639q-13 -80 6 -80q14 0 58.5 32t77.5 66l34 -53q-96 -116 -199 -180t-163 -64q-21 0 -35.5 7.5t-27 30.5t-10.5 65t13 112l23 109h-4 q-89 -121 -203 -219q-126 -105 -219 -105q-63 0 -103 66.5t-40 183.5zM336 274q0 -114 43 -114q49 0 152 117.5t135 185.5q54 221 73 336q-51 28 -118 28q-49 0 -91 -26q-90 -66 -142 -223t-52 -304zM414 1055q11 12 41 46t43 49t38.5 44.5t41.5 48.5t37 45t39.5 50t35.5 48 h70q31 -87 151 -337l-61 -50q-26 24 -50.5 51t-62.5 72.5t-45 53.5q-148 -124 -225 -177z" />
<glyph unicode="&#xe3;" horiz-adv-x="1062" d="M70 225q0 147 61.5 288.5t163.5 234.5q81 72 201.5 127t238.5 55q43 0 131 -15q66 -14 119 -14l12 -8q-81 -336 -135 -639q-13 -80 6 -80q14 0 58.5 32t77.5 66l34 -53q-96 -116 -199 -180t-163 -64q-21 0 -35.5 7.5t-27 30.5t-10.5 65t13 112l23 109h-4 q-89 -121 -203 -219q-126 -105 -219 -105q-63 0 -103 66.5t-40 183.5zM336 274q0 -114 43 -114q49 0 152 117.5t135 185.5q54 221 73 336q-51 28 -118 28q-49 0 -91 -26q-90 -66 -142 -223t-52 -304zM377 1077q33 97 82 149t102 52q45 0 129 -41q88 -37 111 -37 q29 0 50.5 24t43.5 70l70 -30q-68 -213 -187 -213q-16 0 -35 5t-31.5 9.5t-37.5 15.5t-35 15q-57 28 -100 28q-51 0 -99 -92z" />
<glyph unicode="&#xe4;" horiz-adv-x="1062" d="M70 225q0 147 61.5 288.5t163.5 234.5q81 72 201.5 127t238.5 55q43 0 131 -15q66 -14 119 -14l12 -8q-81 -336 -135 -639q-13 -80 6 -80q14 0 58.5 32t77.5 66l34 -53q-96 -116 -199 -180t-163 -64q-21 0 -35.5 7.5t-27 30.5t-10.5 65t13 112l23 109h-4 q-89 -121 -203 -219q-126 -105 -219 -105q-63 0 -103 66.5t-40 183.5zM336 274q0 -114 43 -114q49 0 152 117.5t135 185.5q54 221 73 336q-51 28 -118 28q-49 0 -91 -26q-90 -66 -142 -223t-52 -304zM371 1171q0 53 40 100.5t105 47.5h2q52 0 80.5 -33.5t28.5 -81.5 q0 -62 -39.5 -106.5t-102.5 -44.5q-52 0 -83 31.5t-31 86.5zM770 1171q0 53 40 100.5t105 47.5h3q52 0 80 -33.5t28 -81.5q0 -62 -39 -106.5t-102 -44.5q-52 0 -83.5 31.5t-31.5 86.5z" />
<glyph unicode="&#xe5;" horiz-adv-x="1062" d="M70 225q0 147 61.5 288.5t163.5 234.5q81 72 201.5 127t238.5 55q43 0 131 -15q66 -14 119 -14l12 -8q-81 -336 -135 -639q-13 -80 6 -80q14 0 58.5 32t77.5 66l34 -53q-96 -116 -199 -180t-163 -64q-21 0 -35.5 7.5t-27 30.5t-10.5 65t13 112l23 109h-4 q-89 -121 -203 -219q-126 -105 -219 -105q-63 0 -103 66.5t-40 183.5zM336 274q0 -114 43 -114q49 0 152 117.5t135 185.5q54 221 73 336q-51 28 -118 28q-49 0 -91 -26q-90 -66 -142 -223t-52 -304zM494 1180q3 88 67.5 143t149.5 55h2q77 0 131 -51.5t51 -134.5 q-3 -86 -68.5 -140.5t-150.5 -54.5q-79 0 -132 50.5t-50 132.5zM602 1182q0 -44 22.5 -72.5t59.5 -28.5q42 0 71 32.5t31 80.5q2 42 -20 71t-59 29h-2q-39 0 -70.5 -33t-32.5 -79z" />
<glyph unicode="&#xe6;" horiz-adv-x="1406" d="M63 213q0 153 62.5 300.5t161.5 236.5q74 69 195 124.5t223 55.5q41 0 120 -21q44 4 90 13l11 -11l-27 -104l4 -2q67 60 149.5 92.5t159.5 32.5q96 0 148.5 -49t52.5 -125q0 -44 -19.5 -84.5t-49.5 -72t-77 -61t-91.5 -50.5t-103.5 -42t-101 -33.5t-97 -27.5v-51 q0 -197 156 -197q141 0 293 152l39 -62q-231 -252 -490 -252q-44 0 -84 13.5t-77 42.5t-59 84.5t-23 130.5q0 24 2 49h-4q-84 -116 -187 -205q-138 -115 -235 -115q-62 0 -102 59.5t-40 178.5zM330 258q0 -46 11.5 -72t31.5 -26q52 0 129 88q101 115 149 231q16 33 44.5 155 t31.5 163q-52 37 -111 37h-2q-53 0 -90 -29q-69 -48 -127 -199q-67 -178 -67 -348zM883 467q161 51 231 116t70 154q0 42 -20.5 67t-53.5 25h-2q-40 0 -80 -34q-46 -37 -86.5 -118.5t-58.5 -209.5z" />
<glyph unicode="&#xe7;" horiz-adv-x="811" d="M74 279q0 135 58.5 271.5t166.5 229.5q72 63 172 106.5t184 43.5q73 0 129 -33t56 -84q0 -62 -76 -117q-51 -39 -76 2q-88 125 -158 125q-64 0 -108 -90q-36 -73 -59 -181t-23 -208q-3 -211 129 -211q61 0 129.5 42.5t118.5 90.5l37 -55q-68 -81 -153.5 -138t-166.5 -79 l-43 -51q-20 -22 -17.5 -41t27.5 -52q33 -44 47 -75.5t13 -65.5q-3 -68 -79.5 -125t-201.5 -92l-24 62q141 65 143 118q1 10 -0.5 19t-7.5 20t-8 14.5t-11 16.5l-10 14q-34 40 -34.5 71t34.5 73l64 73v2q-122 -3 -187 76.5t-65 227.5z" />
<glyph unicode="&#xe8;" horiz-adv-x="856" d="M74 283q0 147 63 288t174 228q68 53 161.5 92t172.5 39q105 0 160 -50.5t55 -127.5q0 -43 -19 -83t-49 -71.5t-75 -60.5t-89 -50t-100.5 -41.5t-99 -33.5t-94.5 -27q-2 -23 -2 -53q0 -85 35 -139t108 -54q60 0 141 41t152 109l41 -58q-244 -256 -483 -256q-39 0 -73 8.5 t-67.5 30.5t-57.5 56t-39 88.5t-15 124.5zM342 463q159 49 226 113t67 151q0 54 -26 81.5t-52 27.5q-29 0 -61 -21q-45 -32 -91 -122.5t-63 -229.5zM385 1343l8 31q25 9 102 20.5t111 8.5q44 -238 66 -379l-76 -23q-62 103 -211 342z" />
<glyph unicode="&#xe9;" horiz-adv-x="856" d="M74 283q0 147 63 288t174 228q68 53 161.5 92t172.5 39q105 0 160 -50.5t55 -127.5q0 -43 -19 -83t-49 -71.5t-75 -60.5t-89 -50t-100.5 -41.5t-99 -33.5t-94.5 -27q-2 -23 -2 -53q0 -85 35 -139t108 -54q60 0 141 41t152 109l41 -58q-244 -256 -483 -256q-39 0 -73 8.5 t-67.5 30.5t-57.5 56t-39 88.5t-15 124.5zM342 463q159 49 226 113t67 151q0 54 -26 81.5t-52 27.5q-29 0 -61 -21q-45 -32 -91 -122.5t-63 -229.5zM483 1044q102 186 176 342q30 8 114 10.5t118 -3.5l10 -41l-354 -351z" />
<glyph unicode="&#xea;" horiz-adv-x="856" d="M74 283q0 147 63 288t174 228q68 53 161.5 92t172.5 39q105 0 160 -50.5t55 -127.5q0 -43 -19 -83t-49 -71.5t-75 -60.5t-89 -50t-100.5 -41.5t-99 -33.5t-94.5 -27q-2 -23 -2 -53q0 -85 35 -139t108 -54q60 0 141 41t152 109l41 -58q-244 -256 -483 -256q-39 0 -73 8.5 t-67.5 30.5t-57.5 56t-39 88.5t-15 124.5zM317 1055q9 11 55.5 63t63 71t50.5 59t59 72t49 66h70q31 -87 151 -337l-61 -50q-26 24 -50.5 51t-62.5 72.5t-45 53.5q-148 -124 -225 -177zM342 463q159 49 226 113t67 151q0 54 -26 81.5t-52 27.5q-29 0 -61 -21 q-45 -32 -91 -122.5t-63 -229.5z" />
<glyph unicode="&#xeb;" horiz-adv-x="856" d="M74 283q0 147 63 288t174 228q68 53 161.5 92t172.5 39q105 0 160 -50.5t55 -127.5q0 -43 -19 -83t-49 -71.5t-75 -60.5t-89 -50t-100.5 -41.5t-99 -33.5t-94.5 -27q-2 -23 -2 -53q0 -85 35 -139t108 -54q60 0 141 41t152 109l41 -58q-244 -256 -483 -256q-39 0 -73 8.5 t-67.5 30.5t-57.5 56t-39 88.5t-15 124.5zM274 1171q0 53 40.5 100.5t105.5 47.5h2q52 0 80 -33.5t28 -81.5q0 -62 -39 -106.5t-102 -44.5q-52 0 -83.5 31.5t-31.5 86.5zM342 463q159 49 226 113t67 151q0 54 -26 81.5t-52 27.5q-29 0 -61 -21q-45 -32 -91 -122.5 t-63 -229.5zM674 1171q0 53 40 100.5t105 47.5h2q52 0 80.5 -33.5t28.5 -81.5q0 -62 -39.5 -106.5t-102.5 -44.5q-52 0 -83 31.5t-31 86.5z" />
<glyph unicode="&#xec;" horiz-adv-x="608" d="M94 713q109 100 212 158.5t161 58.5q40 0 52.5 -52.5t-9.5 -150.5l-117 -475q-19 -80 4 -80q15 0 52.5 22.5t80.5 59.5l35 -53q-98 -109 -202 -167.5t-158 -58.5q-117 0 -64 222l107 458q11 54 0 72q-30 0 -125 -72zM221 1343l8 31q25 9 102 20.5t111 8.5 q44 -238 66 -379l-76 -23q-62 103 -211 342z" />
<glyph unicode="&#xed;" horiz-adv-x="608" d="M94 713q109 100 212 158.5t161 58.5q40 0 52.5 -52.5t-9.5 -150.5l-117 -475q-19 -80 4 -80q15 0 52.5 22.5t80.5 59.5l35 -53q-98 -109 -202 -167.5t-158 -58.5q-117 0 -64 222l107 458q11 54 0 72q-30 0 -125 -72zM338 1044q102 186 176 342q30 8 113.5 10.5 t117.5 -3.5l11 -41l-355 -351z" />
<glyph unicode="&#xee;" horiz-adv-x="608" d="M94 713q109 100 212 158.5t161 58.5q40 0 52.5 -52.5t-9.5 -150.5l-117 -475q-19 -80 4 -80q15 0 52.5 22.5t80.5 59.5l35 -53q-98 -109 -202 -167.5t-158 -58.5q-117 0 -64 222l107 458q11 54 0 72q-30 0 -125 -72zM152 1055q11 12 41 46t43 49t38.5 44.5t41.5 48.5 t37 45t39.5 50t35.5 48h70q31 -87 151 -337l-61 -50q-26 24 -50.5 51t-62.5 72.5t-45 53.5q-148 -124 -225 -177z" />
<glyph unicode="&#xef;" horiz-adv-x="608" d="M94 713q109 100 212 158.5t161 58.5q40 0 52.5 -52.5t-9.5 -150.5l-117 -475q-19 -80 4 -80q15 0 52.5 22.5t80.5 59.5l35 -53q-98 -109 -202 -167.5t-158 -58.5q-117 0 -64 222l107 458q11 54 0 72q-30 0 -125 -72zM129 1171q0 53 40 100.5t105 47.5h2q52 0 80.5 -33.5 t28.5 -81.5q0 -62 -39 -106.5t-102 -44.5q-52 0 -83.5 31.5t-31.5 86.5zM528 1171q0 53 40.5 100.5t105.5 47.5h2q52 0 80 -33.5t28 -81.5q0 -62 -39 -106.5t-102 -44.5q-52 0 -83.5 31.5t-31.5 86.5z" />
<glyph unicode="&#xf0;" horiz-adv-x="1001" d="M88 317q0 187 86.5 328t212.5 209q132 72 242 72q35 0 76 -13q-8 91 -68 199l-283 -139l-28 76l258 129q-47 66 -120.5 120t-125.5 76q10 32 37 66q73 -12 173.5 -67t172.5 -122l252 127l35 -73l-224 -115q82 -97 129.5 -234t47.5 -262q0 -186 -57.5 -335t-162.5 -242 q-71 -65 -163.5 -103.5t-184.5 -38.5q-68 0 -122 20.5t-87.5 53.5t-55.5 78.5t-31 92t-9 97.5zM352 305q0 -110 32.5 -173.5t80.5 -63.5h2q32 0 55 10q67 29 126.5 194.5t58.5 413.5q0 81 -31 115q-33 41 -84 41q-30 0 -70 -21q-24 -13 -51.5 -50.5t-55 -99t-45.5 -158 t-18 -208.5z" />
<glyph unicode="&#xf1;" horiz-adv-x="1124" d="M84 719q103 101 195.5 156t152.5 55q100 0 41 -258l-22 -103h4q136 186 297 295q92 66 170 66q24 0 41 -6t32 -26t20.5 -53.5t0.5 -92t-23 -138.5q-61 -269 -84 -368q-17 -74 6 -74q12 0 51 26t74 58l33 -61q-108 -113 -199.5 -166.5t-152.5 -53.5q-113 0 -59 220 q10 41 44.5 192.5t53.5 233.5q30 123 -10 127q-47 0 -157.5 -119.5t-166.5 -220.5q-44 -170 -86 -388q-110 -8 -234 -45l-16 21q91 368 154 666q18 77 0 77q-15 0 -59.5 -26.5t-71.5 -55.5zM379 1077q33 97 82 149t102 52q45 0 129 -41q88 -37 111 -37q29 0 50.5 24t43.5 70 l70 -30q-68 -213 -187 -213q-16 0 -35 5t-31.5 9.5t-37.5 15.5t-35 15q-57 28 -100 28q-51 0 -99 -92z" />
<glyph unicode="&#xf2;" horiz-adv-x="1007" d="M82 313q0 188 88.5 331t216.5 210q142 76 268 76q147 0 225 -88t78 -240q0 -141 -54.5 -272t-162.5 -221q-69 -60 -164 -97t-188 -37q-70 0 -125 20.5t-88.5 53t-55.5 77.5t-30 90.5t-8 96.5zM348 295q0 -111 36.5 -169t86.5 -58q21 0 51 10q64 25 118 178t54 358 q0 113 -32.5 169.5t-86.5 56.5q-26 0 -51 -11q-17 -8 -38.5 -32.5t-46 -70.5t-44.5 -105t-33.5 -145t-13.5 -181zM436 1343l8 31q25 9 102 20.5t111 8.5q44 -238 66 -379l-76 -23q-62 103 -211 342z" />
<glyph unicode="&#xf3;" horiz-adv-x="1007" d="M82 313q0 188 88.5 331t216.5 210q142 76 268 76q147 0 225 -88t78 -240q0 -141 -54.5 -272t-162.5 -221q-69 -60 -164 -97t-188 -37q-70 0 -125 20.5t-88.5 53t-55.5 77.5t-30 90.5t-8 96.5zM348 295q0 -111 36.5 -169t86.5 -58q21 0 51 10q64 25 118 178t54 358 q0 113 -32.5 169.5t-86.5 56.5q-26 0 -51 -11q-17 -8 -38.5 -32.5t-46 -70.5t-44.5 -105t-33.5 -145t-13.5 -181zM514 1044q102 186 176 342q30 8 114 10.5t118 -3.5l10 -41l-354 -351z" />
<glyph unicode="&#xf4;" horiz-adv-x="1007" d="M82 313q0 188 88.5 331t216.5 210q142 76 268 76q147 0 225 -88t78 -240q0 -141 -54.5 -272t-162.5 -221q-69 -60 -164 -97t-188 -37q-70 0 -125 20.5t-88.5 53t-55.5 77.5t-30 90.5t-8 96.5zM348 295q0 -111 36.5 -169t86.5 -58q21 0 51 10q64 25 118 178t54 358 q0 113 -32.5 169.5t-86.5 56.5q-26 0 -51 -11q-17 -8 -38.5 -32.5t-46 -70.5t-44.5 -105t-33.5 -145t-13.5 -181zM375 1055q11 12 41 46t43 49t38.5 44.5t41.5 48.5t37 45t39.5 50t35.5 48h70q31 -87 151 -337l-61 -50q-26 24 -50.5 51t-62.5 72.5t-45 53.5 q-148 -124 -225 -177z" />
<glyph unicode="&#xf5;" horiz-adv-x="1007" d="M82 313q0 188 88.5 331t216.5 210q142 76 268 76q147 0 225 -88t78 -240q0 -141 -54.5 -272t-162.5 -221q-69 -60 -164 -97t-188 -37q-70 0 -125 20.5t-88.5 53t-55.5 77.5t-30 90.5t-8 96.5zM344 1077q33 97 82 149t102 52q45 0 129 -41q88 -37 111 -37q29 0 50.5 24 t43.5 70l70 -30q-68 -213 -187 -213q-16 0 -35 5t-31.5 9.5t-37.5 15.5t-35 15q-57 28 -100 28q-27 0 -50 -22t-48 -70zM348 295q0 -111 36.5 -169t86.5 -58q21 0 51 10q64 25 118 178t54 358q0 113 -32.5 169.5t-86.5 56.5q-26 0 -51 -11q-17 -8 -38.5 -32.5t-46 -70.5 t-44.5 -105t-33.5 -145t-13.5 -181z" />
<glyph unicode="&#xf6;" horiz-adv-x="1007" d="M82 313q0 188 88.5 331t216.5 210q142 76 268 76q147 0 225 -88t78 -240q0 -141 -54.5 -272t-162.5 -221q-69 -60 -164 -97t-188 -37q-70 0 -125 20.5t-88.5 53t-55.5 77.5t-30 90.5t-8 96.5zM322 1171q0 53 40 100.5t105 47.5h2q52 0 80.5 -33.5t28.5 -81.5 q0 -62 -39.5 -106.5t-102.5 -44.5q-52 0 -83 31.5t-31 86.5zM348 295q0 -111 36.5 -169t86.5 -58q21 0 51 10q64 25 118 178t54 358q0 113 -32.5 169.5t-86.5 56.5q-26 0 -51 -11q-17 -8 -38.5 -32.5t-46 -70.5t-44.5 -105t-33.5 -145t-13.5 -181zM721 1171q0 53 40 100.5 t105 47.5h2q52 0 80.5 -33.5t28.5 -81.5q0 -62 -39 -106.5t-102 -44.5q-52 0 -83.5 31.5t-31.5 86.5z" />
<glyph unicode="&#xf7;" horiz-adv-x="1243" d="M152 453v133h991v-133h-991zM524 203q0 51 35.5 87t87.5 36h2q46 0 83.5 -36.5t37.5 -86.5q0 -49 -38.5 -87t-84.5 -38q-52 0 -87.5 37.5t-35.5 87.5zM528 836q0 50 37.5 88.5t83.5 38.5q52 0 88.5 -37.5t36.5 -89.5q0 -48 -36.5 -84.5t-88.5 -36.5h-2q-45 0 -82 37 t-37 84z" />
<glyph unicode="&#xf8;" horiz-adv-x="1009" d="M82 322q0 182 86 322.5t211 209.5q140 78 276 78q89 0 156 -37l78 100l53 -43l-74 -98q93 -87 93 -268q0 -132 -55.5 -259.5t-155.5 -213.5q-65 -57 -164.5 -97.5t-190.5 -40.5q-105 0 -166 39l-82 -104l-49 47l74 96q-90 94 -90 269zM330 338q0 -54 6 -74l354 475 q-15 50 -42.5 76.5t-61.5 26.5q-29 0 -58 -13q-26 -12 -57 -45t-64 -90t-55 -151t-22 -205zM356 174q37 -104 111 -104q30 0 51 8q66 26 131 173t64 347v49z" />
<glyph unicode="&#xf9;" horiz-adv-x="1116" d="M94 719q98 94 196.5 152.5t158.5 58.5q46 0 57.5 -45.5t-14.5 -165.5q-60 -275 -99 -428q-28 -129 17 -129q43 0 111.5 63.5t120 132t75.5 113.5q43 183 88 403l227 56h27q-97 -395 -150 -664q-9 -54 -8.5 -73t10.5 -19q13 0 54.5 28t74.5 62l35 -61 q-107 -115 -200 -171.5t-154 -56.5q-105 0 -57 209q12 50 28 127h-4q-156 -205 -309 -295q-68 -41 -141 -41q-150 0 -82 297q68 292 88 375q15 75 2 92q-16 0 -125 -82zM463 1343l8 31q25 9 102 20.5t111 8.5q44 -238 66 -379l-76 -23q-62 103 -211 342z" />
<glyph unicode="&#xfa;" horiz-adv-x="1116" d="M94 719q98 94 196.5 152.5t158.5 58.5q46 0 57.5 -45.5t-14.5 -165.5q-60 -275 -99 -428q-28 -129 17 -129q43 0 111.5 63.5t120 132t75.5 113.5q43 183 88 403l227 56h27q-97 -395 -150 -664q-9 -54 -8.5 -73t10.5 -19q13 0 54.5 28t74.5 62l35 -61 q-107 -115 -200 -171.5t-154 -56.5q-105 0 -57 209q12 50 28 127h-4q-156 -205 -309 -295q-68 -41 -141 -41q-150 0 -82 297q68 292 88 375q15 75 2 92q-16 0 -125 -82zM588 1044q102 186 176 342q30 8 113.5 10.5t117.5 -3.5l11 -41l-355 -351z" />
<glyph unicode="&#xfb;" horiz-adv-x="1116" d="M94 719q98 94 196.5 152.5t158.5 58.5q46 0 57.5 -45.5t-14.5 -165.5q-60 -275 -99 -428q-28 -129 17 -129q43 0 111.5 63.5t120 132t75.5 113.5q43 183 88 403l227 56h27q-97 -395 -150 -664q-9 -54 -8.5 -73t10.5 -19q13 0 54.5 28t74.5 62l35 -61 q-107 -115 -200 -171.5t-154 -56.5q-105 0 -57 209q12 50 28 127h-4q-156 -205 -309 -295q-68 -41 -141 -41q-150 0 -82 297q68 292 88 375q15 75 2 92q-16 0 -125 -82zM430 1055q9 11 55.5 63t63 71t50.5 59t59 72t49 66h69q15 -42 35.5 -90t34 -76.5t43 -89t39.5 -81.5 l-62 -50q-26 24 -51 52t-60.5 70.5t-45.5 54.5q-143 -121 -226 -177z" />
<glyph unicode="&#xfc;" horiz-adv-x="1116" d="M94 719q98 94 196.5 152.5t158.5 58.5q46 0 57.5 -45.5t-14.5 -165.5q-60 -275 -99 -428q-28 -129 17 -129q43 0 111.5 63.5t120 132t75.5 113.5q43 183 88 403l227 56h27q-97 -395 -150 -664q-9 -54 -8.5 -73t10.5 -19q13 0 54.5 28t74.5 62l35 -61 q-107 -115 -200 -171.5t-154 -56.5q-105 0 -57 209q12 50 28 127h-4q-156 -205 -309 -295q-68 -41 -141 -41q-150 0 -82 297q68 292 88 375q15 75 2 92q-16 0 -125 -82zM375 1171q0 53 40 100.5t105 47.5h2q52 0 80.5 -33.5t28.5 -81.5q0 -62 -39.5 -106.5t-102.5 -44.5 q-52 0 -83 31.5t-31 86.5zM774 1171q0 53 40.5 100.5t105.5 47.5h2q52 0 80 -33.5t28 -81.5q0 -62 -39 -106.5t-102 -44.5q-52 0 -83.5 31.5t-31.5 86.5z" />
<glyph unicode="&#xfd;" horiz-adv-x="960" d="M-100 -444q166 107 268 192.5t186 192.5q2 124 -21 340.5t-52 353.5q-18 92 -43 92q-30 0 -111 -104l-43 55q68 110 149.5 181t145.5 71q57 0 91 -64t52 -213q28 -203 43 -456h4q51 78 80 126.5t66 118t54.5 128.5t16.5 110q0 18 -3.5 35.5t-6.5 27.5t-9.5 26t-8.5 22 q-13 37 8 71q17 31 46.5 49.5t61.5 18.5q43 0 75.5 -36t33.5 -101q3 -97 -80 -230q-86 -145 -330 -495q-243 -342 -385 -504l-270 -64zM530 1044q109 199 177 342q30 8 113.5 10.5t117.5 -3.5l10 -41l-354 -351z" />
<glyph unicode="&#xfe;" horiz-adv-x="1040" d="M-162 -496l4 72q36 4 57 8.5t41.5 13.5t31.5 21t22.5 35t18.5 51t16 72q29 151 120.5 624.5t141.5 741.5q18 104 3 130.5t-95 29.5l-35 2l12 65q80 8 169.5 28.5t148.5 37t73 16.5q15 0 18.5 -15t-3.5 -53l-150 -725h4q114 136 223 203.5t189 67.5q70 0 116 -65t46 -187 q0 -170 -82 -333.5t-221 -258.5q-75 -52 -164.5 -81.5t-124.5 -29.5q-50 0 -111 19q-17 -106 -39 -230q-12 -57 -6.5 -91.5t31 -49.5t84.5 -20l43 -4l-4 -70zM338 129q23 -22 59.5 -37.5t65.5 -15.5q56 0 90 24q74 50 132 211t58 326q0 58 -17 90.5t-40 32.5h-2 q-42 0 -112.5 -58.5t-157.5 -185.5q-28 -133 -76 -387z" />
<glyph unicode="&#xff;" horiz-adv-x="960" d="M-100 -444q166 107 268 192.5t186 192.5q2 124 -21 340.5t-52 353.5q-18 92 -43 92q-30 0 -111 -104l-43 55q68 110 149.5 181t145.5 71q57 0 91 -64t52 -213q28 -203 43 -456h4q51 78 80 126.5t66 118t54.5 128.5t16.5 110q0 18 -3.5 35.5t-6.5 27.5t-9.5 26t-8.5 22 q-13 37 8 71q17 31 46.5 49.5t61.5 18.5q43 0 75.5 -36t33.5 -101q3 -97 -80 -230q-86 -145 -330 -495q-243 -342 -385 -504l-270 -64zM309 1171q0 53 40.5 100.5t105.5 47.5h2q52 0 80 -33.5t28 -81.5q0 -62 -39 -106.5t-102 -44.5q-52 0 -83.5 31.5t-31.5 86.5zM709 1171 q0 53 40 100.5t105 47.5h2q52 0 80.5 -33.5t28.5 -81.5q0 -62 -39.5 -106.5t-102.5 -44.5q-52 0 -83 31.5t-31 86.5z" />
<glyph unicode="&#x152;" horiz-adv-x="1984" d="M131 567q0 229 112 407.5t316.5 277.5t468.5 100q79 0 207 -11.5t172 -11.5h590q-24 -222 -37 -317l-72 -4q-9 130 -45 182q-21 31 -59.5 42t-134.5 11h-84q-58 0 -75 -15.5t-28 -70.5l-80 -416h131q55 0 87 4t56 11t41 28.5t29.5 44t32.5 70.5h74l-82 -418h-72 q-1 44 -2.5 65t-8.5 43.5t-16 30.5t-31.5 15.5t-48 8.5t-71.5 1h-139l-64 -342q-15 -77 -13.5 -116.5t18.5 -59.5q28 -41 163 -41q173 0 246 70q83 79 148 196l69 -24q-77 -227 -123 -328h-632q-60 0 -203 -10q-119 -13 -176 -13q-109 0 -202 19.5t-160 52.5t-120 79.5 t-86.5 98t-55.5 111t-31 115.5t-9 114zM426 569q0 -98 23.5 -186.5t71 -163.5t129 -118t186.5 -40q55 4 114 29q28 13 45 48.5t29 101.5l162 839q13 69 5.5 103t-38.5 53q-54 33 -162 33q-84 0 -165.5 -29t-154 -88t-127 -141t-86.5 -196t-32 -245z" />
<glyph unicode="&#x153;" horiz-adv-x="1433" d="M82 313q1 188 86.5 330.5t212.5 210.5q135 76 252 76q80 0 145 -39t101 -115h2q81 69 176 111.5t178 42.5q97 0 152 -51.5t53 -130.5v-3q0 -222 -535 -366q-4 -46 -4 -49q0 -193 154 -193q128 0 293 152l36 -62q-229 -252 -458 -252q-66 0 -124.5 35.5t-88.5 114.5h-2 q-147 -150 -330 -150q-68 0 -121.5 21t-86 54t-54 78.5t-29.5 90.5t-8 94zM348 303q-1 -102 33.5 -166.5t85.5 -64.5q27 0 51 12q63 27 120.5 180t57.5 371q-3 209 -112 209h-2q-23 0 -52 -13q-27 -12 -55.5 -47t-58 -95t-48.5 -161t-20 -225zM913 461q160 53 227.5 115.5 t67.5 150.5v2q1 49 -22 75.5t-49 26.5h-2q-28 0 -58 -20q-50 -30 -98 -119t-66 -231z" />
<glyph unicode="&#x178;" horiz-adv-x="1298" d="M195 1260l20 69h537l-17 -69l-55 -13q-43 -7 -51 -28t8 -72q53 -176 149 -449q203 305 281 441q33 55 23 77.5t-74 34.5l-45 6l22 72h459l-20 -69q-96 -10 -139.5 -39t-129.5 -134q-76 -98 -299 -428q-40 -60 -55 -124l-53 -261q-9 -45 -12.5 -73t0.5 -51.5t13.5 -36 t32.5 -22t52 -14t76 -7.5l-19 -70h-647l18 70q65 5 97 12t58 30.5t37.5 58t26.5 103.5l52 238q9 44 7 71.5t-16 69.5q-17 48 -63.5 189t-81.5 243q-38 110 -69.5 138t-122.5 37zM526 1542q0 55 40 102.5t104 47.5h2q53 0 81.5 -34t28.5 -83q0 -61 -39.5 -105.5t-101.5 -44.5 q-52 0 -83.5 31t-31.5 86zM956 1542q0 55 40 102.5t106 47.5h2q53 0 80.5 -34t27.5 -83q0 -61 -39.5 -105.5t-101.5 -44.5q-51 0 -82.5 31t-32.5 86z" />
<glyph unicode="&#x2c6;" horiz-adv-x="819" d="M283 1055q11 12 41 46t43 49t38.5 44.5t41.5 48.5t37 45t39.5 50t35.5 48h70q31 -87 151 -337l-61 -50q-26 24 -50.5 51t-62.5 72.5t-45 53.5q-148 -124 -225 -177z" />
<glyph unicode="&#x2dc;" horiz-adv-x="819" d="M244 1077q33 97 82 149t102 52q45 0 129 -41q88 -37 111 -37q29 0 50.5 24t43.5 70l69 -30q-68 -213 -186 -213q-16 0 -35 5t-31.5 9.5t-37.5 15.5t-35 15q-57 28 -100 28q-51 0 -99 -92z" />
<glyph unicode="&#x2000;" horiz-adv-x="889" />
<glyph unicode="&#x2001;" horiz-adv-x="1778" />
<glyph unicode="&#x2002;" horiz-adv-x="889" />
<glyph unicode="&#x2003;" horiz-adv-x="1778" />
<glyph unicode="&#x2004;" horiz-adv-x="592" />
<glyph unicode="&#x2005;" horiz-adv-x="444" />
<glyph unicode="&#x2006;" horiz-adv-x="296" />
<glyph unicode="&#x2007;" horiz-adv-x="296" />
<glyph unicode="&#x2008;" horiz-adv-x="222" />
<glyph unicode="&#x2009;" horiz-adv-x="355" />
<glyph unicode="&#x200a;" horiz-adv-x="98" />
<glyph unicode="&#x2010;" horiz-adv-x="696" d="M84 397l35 146h508l-35 -146h-508z" />
<glyph unicode="&#x2011;" horiz-adv-x="696" d="M84 397l35 146h508l-35 -146h-508z" />
<glyph unicode="&#x2012;" horiz-adv-x="696" d="M84 397l35 146h508l-35 -146h-508z" />
<glyph unicode="&#x2013;" horiz-adv-x="1024" d="M106 406l27 133h815l-28 -133h-814z" />
<glyph unicode="&#x2014;" horiz-adv-x="1927" d="M109 406l26 133h1723l-29 -133h-1720z" />
<glyph unicode="&#x2018;" horiz-adv-x="509" d="M211 1100q0 75 32 137.5t87 105.5t117.5 71.5t134.5 45.5l24 -67q-95 -40 -150.5 -91.5t-58.5 -125.5q0 -79 97 -111q24 -5 24 -43q0 -55 -36.5 -89t-88.5 -34q-83 0 -132.5 62t-49.5 139z" />
<glyph unicode="&#x2019;" horiz-adv-x="483" d="M160 956q204 82 207 215q3 81 -95 113q-26 6 -26 41q0 55 37.5 90t89.5 35q84 0 132 -64t48 -149q0 -72 -31.5 -132.5t-86 -102.5t-117 -70t-134.5 -45z" />
<glyph unicode="&#x201a;" horiz-adv-x="487" d="M-43 -188q203 89 205 213q1 41 -23.5 72t-70.5 46q-25 6 -25 43q0 55 38 91t89 36q84 0 134 -64.5t50 -146.5q0 -75 -31.5 -137.5t-86 -105.5t-118 -71.5t-136.5 -45.5z" />
<glyph unicode="&#x201c;" horiz-adv-x="929" d="M211 1100q0 75 32 137.5t87 105.5t117.5 71.5t134.5 45.5l24 -67q-95 -40 -150.5 -91.5t-58.5 -125.5q0 -79 97 -111q24 -5 24 -43q0 -55 -36.5 -89t-88.5 -34q-83 0 -132.5 62t-49.5 139zM633 1108q1 72 33 133t86.5 103t117 70.5t134.5 45.5l22 -67q-204 -82 -207 -217 q-3 -79 96 -111q25 -9 25 -43q0 -55 -37 -90t-88 -35q-84 0 -133 64t-49 147z" />
<glyph unicode="&#x201d;" horiz-adv-x="903" d="M160 956q204 82 207 215q3 82 -95 111q-26 9 -26 43q0 55 37.5 90t89.5 35q84 0 132 -64t48 -149q0 -72 -31.5 -132.5t-86 -102.5t-117 -70t-134.5 -45zM582 956q95 41 150 91.5t56 123.5q3 82 -94 111q-26 9 -26 43q0 55 37.5 90t89.5 35q83 0 132.5 -63t49.5 -142 q-1 -61 -23 -113.5t-57 -90.5t-84 -69.5t-100 -51t-107 -33.5z" />
<glyph unicode="&#x201e;" horiz-adv-x="897" d="M-43 -188q203 89 205 213q1 41 -24 72t-70 46q-25 6 -25 43q0 55 38 91t89 36q84 0 134 -64.5t50 -146.5q0 -75 -31.5 -137.5t-86 -105.5t-118 -71.5t-136.5 -45.5zM375 -188q62 27 104.5 55t72 69t30.5 89q1 42 -24 72.5t-71 45.5q-24 5 -24 43q0 55 38 91t91 36 q83 0 132.5 -64.5t49.5 -146.5q-1 -75 -33 -137.5t-87 -105.5t-117.5 -71.5t-135.5 -45.5z" />
<glyph unicode="&#x2022;" horiz-adv-x="774" d="M141 455q0 117 79.5 197.5t189.5 80.5h4q109 0 188.5 -80.5t79.5 -197.5q0 -118 -80 -197.5t-192 -79.5q-111 0 -190 79.5t-79 197.5z" />
<glyph unicode="&#x2026;" horiz-adv-x="1904" d="M102 125q0 75 47 124.5t119 49.5q62 0 102 -43t40 -109q0 -78 -49.5 -125t-116.5 -47h-2q-60 0 -100 43.5t-40 106.5zM739 125q0 75 46 124.5t118 49.5q63 0 102 -43t39 -109q0 -78 -49 -125t-114 -47h-2q-60 0 -100 43.5t-40 106.5zM1362 125q0 75 46 124.5t118 49.5 q61 0 101 -43t40 -109q0 -78 -49.5 -125t-116.5 -47h-2q-59 0 -98 43t-39 107z" />
<glyph unicode="&#x202f;" horiz-adv-x="355" />
<glyph unicode="&#x2039;" horiz-adv-x="591" d="M102 463q140 134 361 381l61 -37l-205 -344l121 -346l-69 -31q-163 245 -269 377z" />
<glyph unicode="&#x203a;" horiz-adv-x="593" d="M90 121l203 342l-119 342l68 33q169 -253 268 -375q-187 -184 -360 -381z" />
<glyph unicode="&#x205f;" horiz-adv-x="444" />
<glyph unicode="&#x20ac;" d="M14 510l35 80h123q4 72 23 129h-111l33 82h98q74 232 242.5 367t394.5 135q53 0 103 -11.5t70.5 -20t59.5 -26.5q-9 -158 -22 -268l-66 -8q-23 142 -61 198t-105 56q-86 0 -178 -107.5t-151 -314.5h481l-35 -82h-465q-18 -58 -18 -129h436l-37 -80h-405 q-10 -449 172 -449q64 0 120.5 44.5t153.5 170.5l60 -36q-32 -72 -144 -228q-4 -1 -29.5 -8.5t-32.5 -9.5t-30 -7t-37.5 -6.5t-38.5 -3.5t-49 -2q-420 0 -434 535h-156z" />
<glyph unicode="&#x2122;" horiz-adv-x="987" d="M205 1204q1 22 3.5 63t2.5 54h31q3 -10 10 -10q6 -2 18 -2h224q16 0 26 12h31q0 -12 1 -51.5t1 -65.5h-35q-14 45 -22 51q-11 11 -50 11h-22v-189q0 -40 8 -49t47 -12v-35h-198v35q38 3 45.5 12t7.5 49v189h-19q-41 0 -51 -13q-15 -11 -24 -49h-35zM578 981v35 q22 2 32 7.5t11 20.5q8 32 12 84l6 80q3 39 -5 49t-46 11v41h168l84 -176l88 176h151v-41q-28 -1 -34.5 -10t-6.5 -44l2 -139q0 -38 7.5 -47t39.5 -12v-35h-182v35q33 3 39 10.5t6 40.5l2 180h-4l-121 -262h-34l-101 254h-4l-6 -119q-5 -51 -2 -76q0 -14 10 -19.5t41 -8.5 v-35h-153z" />
<glyph unicode="&#x25fc;" horiz-adv-x="931" d="M0 0v932h932v-932h-932z" />
</font>
</defs>
</svg>
