<?xml version="1.0" standalone="no"?>
<!DOCTYPE svg PUBLIC "-//W3C//DTD SVG 1.1//EN" "http://www.w3.org/Graphics/SVG/1.1/DTD/svg11.dtd" >
<svg xmlns="http://www.w3.org/2000/svg">
<metadata></metadata>
<defs>
<font id="apollon_rgbold" horiz-adv-x="1849" >
<font-face units-per-em="2048" ascent="1413" descent="-635" />
<missing-glyph horiz-adv-x="655" />
<glyph horiz-adv-x="2048" />
<glyph horiz-adv-x="2048" />
<glyph unicode="&#xd;" horiz-adv-x="2048" />
<glyph unicode=" "  horiz-adv-x="655" />
<glyph unicode="&#x09;" horiz-adv-x="655" />
<glyph unicode="&#xa0;" horiz-adv-x="655" />
<glyph unicode="!" horiz-adv-x="768" d="M225 1413h318q-3 -94 -35 -393t-47 -621h-154q-15 322 -47 621t-35 393zM250 0v276h268v-276h-268z" />
<glyph unicode="&#x22;" horiz-adv-x="1069" d="M164 877q44 209 69 340q23 120 15 196h268q-96 -267 -186 -536h-166zM553 877q45 209 70 340q22 117 14 196h268q-96 -267 -186 -536h-166z" />
<glyph unicode="$" horiz-adv-x="1740" d="M106 354q0 52 17.5 103.5t56 107t109 111t168.5 104.5q-95 170 -95 295q0 114 56 199.5t140 126.5t179 41q125 0 202 -76t77 -182q0 -101 -71.5 -193.5t-205.5 -167.5q142 -203 394 -438q86 112 86 209q0 79 -35 119.5t-88 40.5q-45 0 -81.5 -22t-51.5 -58l-43 6 q14 57 39 99t68.5 77t112.5 53.5t163 18.5h280q47 0 72.5 8t50.5 25l8 -5l-117 -217h-251q11 -35 8 -82q-6 -185 -135 -350q202 -168 380 -168q64 0 122.5 23t95.5 55l4 -43q0 -11 -19 -37q-46 -56 -154.5 -111t-217.5 -55q-210 0 -396 160q-110 -76 -233.5 -118t-239.5 -42 q-219 0 -337 109.5t-118 273.5zM371 428q0 -52 18 -102.5t53 -95t96.5 -72t139.5 -27.5q123 0 264 82q-280 259 -428 475q-70 -46 -106.5 -115t-36.5 -145zM586 1196q0 -125 100 -289q174 124 174 275q0 59 -36.5 109t-104.5 50q-56 0 -94.5 -40.5t-38.5 -104.5z" />
<glyph unicode="%" horiz-adv-x="1804" d="M176 1081q0 149 97 249t245 100q75 0 144 -29q32 -12 101 -45t124.5 -50.5t113.5 -17.5q157 0 232 166h242q-143 -215 -420.5 -661.5t-382.5 -634.5q-16 -29 -39 -70t-32 -57.5t-18.5 -36t-13.5 -33.5h-256q115 174 193 293q18 27 97 147t100.5 153t84 129t89.5 140.5 t72 118t77 130t61 112.5q-4 -1 -15.5 -5t-16 -5.5t-16 -3.5t-25 -2.5t-33.5 -0.5q-49 0 -141 35q20 -65 20 -121q0 -147 -96.5 -247.5t-245.5 -100.5q-148 0 -245 101t-97 247zM377 1077q5 -98 41.5 -157.5t103.5 -59.5q68 0 105 62t35 161t-40.5 161t-107.5 61 q-67 -1 -103 -65t-34 -163zM944 332q0 149 97 248.5t245 99.5q149 0 245.5 -99.5t96.5 -248.5q0 -147 -96.5 -247.5t-245.5 -100.5q-148 0 -245 101t-97 247zM1145 328q5 -98 41.5 -157.5t103.5 -59.5q68 0 105 62t35 161t-40 160.5t-108 60.5q-67 -1 -103 -64.5t-34 -162.5 z" />
<glyph unicode="&#x26;" horiz-adv-x="2095" d="M106 354q0 52 17.5 103.5t56 107t109 111t168.5 104.5q-95 170 -95 295q0 114 56 199.5t140 126.5t179 41q125 0 202 -76t77 -182q0 -101 -71.5 -193.5t-205.5 -167.5q142 -203 394 -438q94 122 94 236q0 77 -37.5 112t-93.5 35q-43 0 -80 -28t-53 -66l-43 6 q28 114 111.5 181t230.5 67q38 0 132.5 -4t162 -4t151.5 6.5t149.5 29t108.5 60.5q36 31 53 78t2 102t-69 94l153 84q29 -15 45.5 -52t16.5 -83q0 -149 -115 -287q-170 -205 -500 -213q-103 -2 -206 0q11 -35 8 -82q-6 -185 -135 -350q202 -168 380 -168q64 0 122.5 23 t95.5 55l4 -43q0 -11 -19 -37q-46 -56 -154.5 -111t-217.5 -55q-210 0 -396 160q-110 -76 -233.5 -118t-239.5 -42q-219 0 -337 109.5t-118 273.5zM371 428q0 -52 18 -102.5t53 -95t96.5 -72t139.5 -27.5q123 0 264 82q-280 259 -428 475q-70 -46 -106.5 -115t-36.5 -145z M586 1196q0 -125 100 -289q174 124 174 275q0 59 -36.5 109t-104.5 50q-56 0 -94.5 -40.5t-38.5 -104.5z" />
<glyph unicode="'" horiz-adv-x="679" d="M164 877q44 209 69 340q23 120 15 196h268q-96 -267 -186 -536h-166z" />
<glyph unicode="(" horiz-adv-x="776" d="M102 707q0 393 349 768h147q-242 -340 -242 -768t242 -768h-147q-349 375 -349 768z" />
<glyph unicode=")" horiz-adv-x="776" d="M178 -61q242 340 242 768t-242 768h148q348 -374 348 -768t-348 -768h-148z" />
<glyph unicode="*" horiz-adv-x="1003" d="M152 1087l59 187l209 -86l-14 227h192l-14 -227l209 86l59 -184l-219 -56l145 -174l-155 -112l-121 190l-119 -190l-158 114l144 172z" />
<glyph unicode="+" horiz-adv-x="1206" d="M164 465v174h352v356h174v-356h352v-174h-352v-356h-174v356h-352z" />
<glyph unicode="," horiz-adv-x="548" d="M31 -309q129 470 139 585h252q-35 -135 -98 -280l-136 -305h-157z" />
<glyph unicode="-" horiz-adv-x="731" d="M102 614v185h527v-185h-527z" />
<glyph unicode="." horiz-adv-x="595" d="M164 0v276h268v-276h-268z" />
<glyph unicode="/" horiz-adv-x="1222" d="M102 -66q125 219 366.5 677.5t332.5 656.5q82 177 88 202h231q-126 -222 -365.5 -679t-330.5 -654q-12 -26 -28 -60t-23.5 -50t-16 -35.5t-13 -32.5t-7.5 -25h-234z" />
<glyph unicode="0" horiz-adv-x="1507" d="M154 707q0 100 22 201t71 197.5t118.5 171t174 120t228.5 45.5q87 0 167.5 -22t158 -76t134 -136t91.5 -210.5t35 -290.5q0 -205 -74.5 -372.5t-212.5 -265.5t-313 -98q-133 0 -241.5 45t-189.5 133.5t-125 230.5t-44 327zM457 713q-6 -274 67.5 -424.5t218.5 -153.5 q147 -3 224.5 142.5t83.5 422.5q6 283 -74.5 429.5t-212.5 148.5q-134 2 -217 -135t-90 -430z" />
<glyph unicode="1" horiz-adv-x="964" d="M0 897q79 64 154 134.5t144.5 147.5t106.5 119.5t97 114.5h209q-4 -172 -4 -706q0 -574 10 -707h-322q9 127 15 707q2 154 2 380q-68 -75 -238 -245q-28 6 -88.5 25t-85.5 30z" />
<glyph unicode="2" horiz-adv-x="1271" d="M41 0l16 135q69 51 173.5 144t189.5 188q146 162 214 291t68 252q0 104 -60 164.5t-157 60.5q-122 0 -258 -107q1 -1 -14.5 31t-30.5 64l-16 32q82 80 200.5 133.5t241.5 53.5q180 0 293 -93t113 -266q0 -65 -18.5 -131.5t-59 -138t-87.5 -137.5t-121.5 -150t-141.5 -154 t-166 -169q480 -7 667 14l-43 -217h-348h-655z" />
<glyph unicode="3" horiz-adv-x="1191" d="M51 154l70 116q40 -65 110.5 -102t159.5 -37q137 0 228.5 81.5t91.5 213.5q0 112 -81 191t-233 79q-38 0 -88 -4v119q132 8 223 87t91 198q0 59 -32 100.5t-81.5 57.5t-115.5 2t-128 -60l-76 121q178 125 385 125q156 0 245 -77.5t89 -211.5q0 -108 -74.5 -199.5 t-172.5 -138.5q73 -3 138.5 -26.5t119.5 -67t86 -114.5t32 -161q0 -133 -77.5 -241.5t-215.5 -171t-309 -62.5q-230 0 -348 84q-65 48 -37 99z" />
<glyph unicode="4" horiz-adv-x="1382" d="M82 369v147q146 199 352 460.5t385 465.5h234q-18 -762 -19 -891q35 1 100.5 1.5t118.5 1.5t99 3q-21 -33 -68 -92t-84 -96h-168q0 -239 10 -369h-321q9 157 14 371q-131 0 -352 -1t-301 -1zM276 555q332 -4 467 -4q1 119 5.5 320t5.5 292q-111 -131 -230.5 -283 t-183.5 -238z" />
<glyph unicode="5" horiz-adv-x="1284" d="M133 154l70 116q39 -64 108.5 -101.5t157.5 -37.5q144 0 239 92t95 242q0 140 -76 214.5t-192 74.5q-105 0 -195 -66l-92 66q54 528 41 661q274 -12 647 -4q60 1 91 12.5t58 40.5q-22 -127 -34 -184q-8 -42 -36.5 -64t-94.5 -22h-486q-5 -122 -26 -338q102 57 254 57 q68 0 131.5 -15.5t121.5 -49t101 -82.5t68.5 -120t25.5 -157q0 -103 -40.5 -196t-115.5 -165t-194.5 -114.5t-265.5 -42.5q-99 0 -188.5 24.5t-135.5 59.5q-66 48 -37 99z" />
<glyph unicode="6" horiz-adv-x="1386" d="M164 596q0 192 55.5 351t154 267.5t235.5 168t298 59.5q103 0 190.5 -27.5t121.5 -64.5q46 -52 16 -107l-49 -110q-27 66 -108 112.5t-177 46.5t-173.5 -40t-126 -105t-81 -152.5t-46 -177t-13.5 -184.5q0 -139 23.5 -241.5t64.5 -160t91 -84t110 -26.5q107 0 171 70.5 t64 189.5q0 123 -70.5 198.5t-173.5 75.5q-121 0 -215 -84l-8 27q42 118 138.5 189t222.5 71q158 0 256 -100.5t98 -272.5q0 -80 -21.5 -155.5t-66.5 -140.5t-107.5 -113.5t-150.5 -76.5t-191 -28q-109 0 -199.5 37t-151 98t-102.5 142.5t-60.5 169t-18.5 178.5z" />
<glyph unicode="7" horiz-adv-x="1064" d="M117 1356.5q3 67.5 10 105.5q9 -28 38.5 -39.5t94.5 -11.5q551 0 834 4l-2 -100q-241 -319 -380 -555t-195.5 -408t-65.5 -352h-301q21 155 171.5 444.5t387.5 608.5l100 145l-598 -4q-49 1 -69 13.5t-23 43.5q-5 38 -2 105.5z" />
<glyph unicode="8" horiz-adv-x="1253" d="M113 352q0 80 29 149t79.5 117.5t104 82.5t116.5 59q-100 59 -153 141t-53 174q0 171 123.5 269t312.5 98q157 0 259.5 -78.5t102.5 -212.5q0 -56 -19 -105t-55 -88.5t-69 -66.5t-78 -57q30 -19 98 -66q215 -144 215 -367q0 -189 -150 -309.5t-413 -120.5 q-106 0 -192.5 31.5t-142 85t-85.5 121.5t-30 143zM324 375q0 -104 75.5 -181t186.5 -77q109 0 183.5 67.5t74.5 171.5q0 80 -45 142t-158 135l-88 55q-117 -69 -173 -142t-56 -171zM489 1163q0 -71 43.5 -126.5t174.5 -135.5q135 94 135 221q0 84 -49.5 137.5t-122.5 53.5 q-84 0 -132.5 -45.5t-48.5 -104.5z" />
<glyph unicode="9" horiz-adv-x="1374" d="M150 170l49 111q27 -66 107.5 -113t176.5 -47t173.5 40t126.5 105t81.5 152.5t46 177t13.5 184.5q0 139 -23.5 241.5t-64.5 160t-91 84t-110 26.5q-107 0 -171.5 -71t-64.5 -189q0 -123 70.5 -198.5t173.5 -75.5q121 0 215 84l8 -27q-42 -119 -138 -189.5t-222 -70.5 q-158 0 -256 100.5t-98 272.5q0 101 35 192.5t100.5 164t169 115t231.5 42.5q109 0 200 -39t151 -101.5t102.5 -144.5t61 -165.5t18.5 -166.5q0 -195 -55.5 -356.5t-154.5 -270t-236 -168t-298 -59.5q-103 0 -190 27.5t-121 64.5q-46 52 -16 107z" />
<glyph unicode=":" horiz-adv-x="698" d="M215 0v276h266v-276h-266zM215 717v276h268v-276h-268z" />
<glyph unicode=";" horiz-adv-x="552" d="M39 -309q129 470 139 585h252q-35 -135 -98 -280l-135 -305h-158zM172 717v276h268v-276h-268z" />
<glyph unicode="=" horiz-adv-x="1169" d="M164 287v174h842v-174h-842zM164 643v174h842v-174h-842z" />
<glyph unicode="?" horiz-adv-x="962" d="M164 1190v166q123 86 289 86q90 0 159 -22t108.5 -60t59 -85t19.5 -101q0 -83 -46.5 -165.5t-136.5 -179.5q-100 -106 -136 -165t-36 -121q0 -57 29 -131h-166q-55 86 -55 172q0 79 39 161.5t147 212.5q50 61 70 105t20 92q0 55 -40.5 91t-106.5 36q-56 0 -115.5 -25.5 t-101.5 -66.5zM260 0v276h268v-276h-268z" />
<glyph unicode="A" horiz-adv-x="1339" d="M10 0q58 129 105 246q182 455 436 1179h276q7 -21 45.5 -140t57 -175.5t57.5 -174t65 -194.5t59.5 -175t62 -176.5t53.5 -141.5q35 -89 60.5 -151t33.5 -79l8 -18h-366q-26 105 -103 344l-33 100h-450l-72 -206q-20 -58 -38 -117.5t-26 -90.5l-8 -30h-223zM430 598h342 q-24 73 -49.5 152t-59.5 181t-55 167q-78 -206 -178 -500z" />
<glyph unicode="B" horiz-adv-x="1404" d="M174 1413h170q22 0 185 2t241 2q93 0 165.5 -17.5t119 -46.5t76.5 -69.5t42.5 -83.5t12.5 -92q0 -128 -79.5 -218t-199.5 -114q91 -10 160.5 -47.5t108.5 -92.5q40 -54 58 -116q16 -53 15 -110v-19q-5 -105 -60.5 -195t-148.5 -141q-61 -33 -132.5 -44t-194.5 -11h-508 q14 140 14 707q0 371 -10 503t-35 203zM528 684q-1 -93 -1 -184q0 -182 5 -353q41 -2 89 -2q153 0 220.5 69t67.5 202q0 132 -68 201t-220 69q-52 0 -93 -2zM528 834q43 -3 115 -3q108 0 164.5 58.5t56.5 163.5q0 111 -50 165t-167 54q-80 0 -117 -2q-2 -74 -2 -436z" />
<glyph unicode="C" horiz-adv-x="1576" d="M160 700q0 350 215 546t598 196q240 0 422 -74v-223q-166 151 -414 151q-216 0 -345.5 -153.5t-129.5 -413.5q0 -71 15.5 -148t52.5 -159t90.5 -147t138.5 -106.5t188 -41.5q138 0 247 46t175 116l-31 -162q-7 -36 -17.5 -54.5t-37.5 -29.5q-167 -72 -409 -72 q-118 0 -221 25t-178.5 68t-137.5 102t-102.5 124t-67.5 137.5t-39 140t-12 132.5z" />
<glyph unicode="D" horiz-adv-x="1695" d="M180 1413h160q44 0 203.5 2t267.5 2q130 0 237 -22t181 -59t130.5 -90t89 -108.5t53 -122t27.5 -123.5t7 -120q0 -82 -12.5 -159.5t-43 -157t-76 -147.5t-115 -127.5t-157.5 -101t-207 -63.5q-105 -20 -226 -20h-33q-223 4 -457 4q16 160 16 707q0 371 -10 503t-35 203z M535 707q0 -430 6 -557q102 -5 164 -5q84 0 153 17.5t118.5 47.5t87.5 74.5t61.5 95.5t38.5 114t20.5 125.5t5.5 134.5q0 49 -4.5 94t-18 98.5t-35.5 98.5t-59.5 88t-87 73t-122.5 48t-161 18q-81 0 -163 -4q-4 -254 -4 -561z" />
<glyph unicode="E" horiz-adv-x="1224" d="M195 1414h843v-165q-69 7 -141 8q-36 0 -122 0.5t-222 -0.5q-4 -106 -4 -428q187 -1 265 -1h51q36 0 102 6v-164q-61 5 -102 5t-316 -1q0 -393 4 -518h97q324 0 452 12v-168h-879q17 170 17 707q0 371 -10 503.5t-35 203.5z" />
<glyph unicode="F" horiz-adv-x="1083" d="M195 1414h843v-165q-69 7 -141 8q-36 0 -122 0.5t-222 -0.5q-4 -106 -4 -428q187 -1 265 -1h51q36 0 102 6v-164q-61 5 -102 5t-316 -1q0 -514 16 -674h-342q17 170 17 707q0 371 -10 503.5t-35 203.5z" />
<glyph unicode="G" horiz-adv-x="1660" d="M160 700q0 350 215 546t598 196q240 0 422 -74v-223q-166 151 -414 151q-216 0 -345.5 -153.5t-129.5 -413.5q0 -77 13.5 -154t48 -159.5t87.5 -145t140 -103t196 -40.5q93 0 154 12q0 276 -7 355t-36 120h375q-13 -40 -16 -126t-3 -412q-84 -43 -234 -74t-306 -31 q-168 0 -302.5 47t-217.5 121t-138.5 172.5t-77.5 194.5t-22 194z" />
<glyph unicode="H" horiz-adv-x="1755" d="M221 1413h369q-15 -146 -15 -569h613q-2 414 -14 569h337q-14 -151 -14 -706q0 -547 16 -707h-342q17 166 17 690h-613q0 -524 17 -690h-342q16 160 16 707q0 371 -10 503t-35 203z" />
<glyph unicode="I" horiz-adv-x="794" d="M199 1413h368q-14 -150 -14 -706q0 -547 16 -707h-342q17 170 17 707q0 371 -10 503t-35 203z" />
<glyph unicode="J" horiz-adv-x="960" d="M72 180q22 -11 64 -16q25 -3 46 -3q12 0 23 1q102 11 148 78t50 221q6 209 6 359q0 104 -3 179q-8 214 -19.5 288.5t-34.5 125.5h389q-8 -59 -12 -101t-8 -192.5t-4 -398.5q0 -256 -27 -386.5t-90 -209.5q-55 -69 -145 -105t-189 -36q-92 0 -162 28z" />
<glyph unicode="K" horiz-adv-x="1454" d="M195 1413h360q-6 -252 -6 -655q223 267 508 655h250q-28 -29 -60 -65.5t-73 -86.5t-70.5 -86.5t-80.5 -102t-73.5 -94t-78 -101t-66.5 -86.5q81 -109 418 -543q54 -69 106.5 -131t78.5 -89l26 -28h-426q-78 119 -164 238q-82 110 -295 389q0 -442 10 -627h-336 q17 170 17 707q0 371 -10 503t-35 203z" />
<glyph unicode="L" horiz-adv-x="1036" d="M195 1413h364q-10 -476 -10 -837q0 -234 4 -420h88q295 0 416 12v-168h-834q17 170 17 707q0 371 -10 503t-35 203z" />
<glyph unicode="M" horiz-adv-x="2060" d="M162 0q12 49 24 141q94 699 117 1082q2 35 2 62q0 33 -3 55q-6 42 -30 73h414q232 -649 336 -915q75 194 336 915h411q-23 -31 -29 -72q-3 -21 -3 -53q0 -29 2 -65q33 -533 108 -1073q5 -39 13 -76.5t13 -55.5l5 -18h-344q0 49 -6 141q-20 283 -96 979 q-135 -340 -422 -1120h-115q-35 94 -189 504.5t-233 615.5q-83 -764 -96 -979q-3 -41 -3.5 -76t0.5 -50l1 -15h-213z" />
<glyph unicode="N" horiz-adv-x="1710" d="M170 1413h442q113 -180 212.5 -329.5t249 -365.5t212.5 -308v297q0 525 -18 706h213q-23 -199 -23 -706q0 -418 2 -707h-264q-184 274 -311.5 459t-281 402.5t-179.5 254.5v-409q0 -534 20 -707h-213q21 182 21 707q0 407 -2 505q-2 93 -15.5 130.5t-64.5 70.5z" />
<glyph unicode="O" d="M160 678q0 180 63 326.5t171 241.5q110 95 252 146q140 50 298 50h6q171 -1 311 -55t233.5 -148.5t144.5 -225t51 -284.5q0 -150 -40.5 -275t-112 -213t-170.5 -149.5t-214 -91.5t-244 -31h-11q-88 -1 -172 15q-88 16 -173 51.5t-155.5 93.5t-124 134.5t-83.5 183 t-30 231.5zM518 680q5 -128 32.5 -227.5t68.5 -161.5t97.5 -100.5t115.5 -52.5q46 -10 96 -10q15 0 30 1q66 4 123 25.5t107.5 67.5t83.5 114q34 66 51 168q12 72 12 157q0 35 -2 72q-7 127 -34.5 226t-68.5 161t-97 101q-57 39 -115 53q-46 11 -96 11q-14 0 -29 -1 q-84 -5 -151.5 -39t-121.5 -103q-55 -68 -82 -186q-21 -93 -21 -213q0 -30 1 -63z" />
<glyph unicode="P" horiz-adv-x="1271" d="M190 1413h170q22 0 185 2t241 2q424 0 424 -354q0 -130 -70 -231.5t-182.5 -157t-248.5 -64.5q-15 -1 -28 -1q-26 1 -37 5q-16 6 -28 31l-45 86l2 6h17q158 -1 226 69q72 74 71 212q0 116 -63 186q-62 69 -202 68h-4q-55 0 -75 -4q-6 -111 -6 -598q0 -497 20 -670h-336 q15 150 15 707q0 369 -10 502t-36 204z" />
<glyph unicode="Q" d="M160 678q0 180 63 326.5t171.5 241.5t251.5 146q139 50 298 50h6q171 -1 311 -55t233.5 -148.5t144.5 -225t51 -284.5q0 -264 -119.5 -440.5t-323.5 -257.5q18 -13 114.5 -85t131.5 -96t117.5 -79.5t161.5 -100t174 -92.5q274 -139 524 -160q43 -3 83 -3q196 0 335 83 l-21 -76q-117 -92 -287 -140q-132 -37 -282 -37q-43 0 -86 3q-200 13 -373 97q-108 53 -239.5 139.5t-232.5 163.5t-228.5 174.5t-200.5 148.5q-5 0 -14.5 -1t-14.5 -1h-11q-88 0 -172 15q-88 17 -173 52t-155.5 93t-124 134.5t-83.5 183t-30 231.5zM518 680 q5 -128 32.5 -227.5t68.5 -161.5t97.5 -100.5t115.5 -52.5q46 -10 96 -10q15 0 30 1q66 4 123 25.5t107.5 67.5t84 113.5t50.5 168.5q12 72 12 157q0 35 -2 72q-7 127 -34.5 226t-68.5 161t-97 101t-115 53q-45 11 -96 11q-14 0 -29 -1q-84 -5 -151.5 -39t-122 -103 t-81.5 -186q-21 -94 -21 -213q0 -30 1 -63z" />
<glyph unicode="R" horiz-adv-x="1458" d="M190 1413h166q150 0 416 4h11q69 0 127 -12q62 -13 105.5 -37.5t76 -56.5t51 -71.5t27 -79.5t8.5 -83q0 -124 -66.5 -218t-167.5 -134l-16 -6q83 -117 138 -192t159.5 -206t218.5 -262q73 -83 156.5 -144.5t161.5 -94.5q78 -32 156 -48q70 -14 128 -14h15q65 2 122 17 l-39 -68q-181 -82 -349 -82h-19q-178 5 -331.5 85.5t-285.5 232.5q-98 114 -289 377.5t-231 314.5h-102q0 -462 20 -635h-336q15 150 15 707q0 369 -10 502t-36 204zM541 793q29 -2 114 -2q106 0 164 66.5t58 174.5q0 240 -218 240q-67 0 -116 -2q-2 -74 -2 -477z" />
<glyph unicode="S" horiz-adv-x="1173" d="M113 41l2 209q188 -113 368 -113q62 0 116.5 17t95 61t40.5 107q0 52 -25 94t-101 103t-224 151q-240 147 -240 368q0 63 17.5 120t56 109.5t96 91t143.5 61t191 22.5q97 0 187.5 -17.5t140.5 -38.5v-198q-150 88 -295 88q-106 0 -166.5 -48.5t-60.5 -129.5q0 -18 1 -29 t11 -36.5t29.5 -47.5t60 -54.5t98.5 -64.5q120 -67 196.5 -123.5t117.5 -111.5t56 -105t15 -116q0 -82 -31.5 -158t-93.5 -140t-167.5 -102.5t-239.5 -38.5q-223 0 -395 70z" />
<glyph unicode="T" horiz-adv-x="1015" d="M-20 1237v176h1036v-176q-74 16 -262 16h-101v-200q0 -587 3 -761.5t18 -291.5h-352q15 112 17.5 273.5t2.5 701.5v278h-100q-188 0 -262 -16z" />
<glyph unicode="U" horiz-adv-x="1724" d="M193 1413h368q-2 -159 -2 -325q0 -277 6 -574q2 -104 23.5 -173t64 -105.5t95.5 -51t129 -14.5q84 0 155.5 42t102.5 99q19 34 25.5 89.5t6.5 183.5l2 522q0 181 -8 307h330q-14 -151 -14 -706q0 -547 16 -707h-324v143q-62 -71 -173 -121.5t-242 -50.5q-135 0 -231 38 t-148.5 94.5t-81.5 151.5t-36 177.5t-7 204.5q0 416 -6 557q-5 100 -14.5 144t-36.5 75z" />
<glyph unicode="V" horiz-adv-x="1343" d="M0 1411h365q28 -106 71 -237q186 -568 289 -865q215 589 301 865l72 237h225q-49 -117 -102 -246q-89 -218 -221.5 -573t-219.5 -606h-274q-86 273 -204.5 623t-197.5 554q-25 67 -51 129t-39 90z" />
<glyph unicode="W" horiz-adv-x="2041" d="M0 1413h340q29 -106 66 -237q56 -203 227 -779q50 164 131.5 440.5t99.5 338.5l64 237h291q28 -106 65 -237q56 -203 227 -779q51 168 136.5 457.5t95.5 321.5q16 58 30.5 117.5t20.5 89.5l6 30h221q-59 -149 -112 -317q-284 -885 -350 -1108h-242q-245 826 -309 1032 q-16 -49 -99 -305.5t-136.5 -426t-92.5 -300.5h-242q-212 748 -352 1177z" />
<glyph unicode="X" horiz-adv-x="1392" d="M31 0q110 133 194 248q53 73 123.5 167.5t116.5 157t84 115.5q-33 56 -287 477q-35 56 -75.5 118t-63.5 96l-23 34h410q70 -145 121 -237l57 -104.5l57 -104.5q52 73 146 209l156 237h235q-100 -123 -190 -248q-52 -75 -139 -197t-115 -161q101 -177 342 -563 q34 -55 74 -116t64 -94l23 -34h-401q-76 148 -127 238q-38 65 -93 160.5t-75 129.5q-178 -258 -340 -528h-274z" />
<glyph unicode="Y" horiz-adv-x="1118" d="M-61 1413h360q27 -67 72 -151q30 -55 245 -443q133 239 242 443q19 36 36.5 74t25.5 58l8 19h231q-49 -74 -100 -158q-126 -192 -357 -608q0 -506 15 -647h-338q16 181 16 647q-290 508 -352 608q-25 41 -51 80.5t-40 58.5z" />
<glyph unicode="Z" horiz-adv-x="1290" d="M-10 -4v100q224 330 372.5 564.5t364.5 592.5q-77 1 -149 1q-308 0 -496 -11v170h1051v-100q-356 -547 -721 -1163q492 0 772 16l-17 -170q-400 4 -694.5 4t-482.5 -4z" />
<glyph unicode="[" horiz-adv-x="888" d="M246 -215v1814h499v-141h-231v-1532h231v-141h-499z" />
<glyph unicode="\" horiz-adv-x="1024" d="M104 1470h232q6 -25 88 -202q92 -199 333 -658t365 -676h-233q-3 12 -7.5 25t-13 32.5t-16 35.5t-23.5 50t-28 60q-91 196 -330.5 652.5t-366.5 680.5z" />
<glyph unicode="]" horiz-adv-x="888" d="M143 -74h232v1532h-232v141h500v-1814h-500v141z" />
<glyph unicode="^" horiz-adv-x="1003" d="M322 1546l313 217l313 -217l-180 -39l-133 107l-133 -107z" />
<glyph unicode="_" horiz-adv-x="921" d="M0 0h922v-184h-922v184z" />
<glyph unicode="`" horiz-adv-x="1003" d="M485 1745l209 2l164 -236h-164z" />
<glyph unicode="a" horiz-adv-x="1339" d="M10 0q58 129 105 246q182 455 436 1179h276q7 -21 45.5 -140t57 -175.5t57.5 -174t65 -194.5t59.5 -175t62 -176.5t53.5 -141.5q35 -89 60.5 -151t33.5 -79l8 -18h-366q-26 105 -103 344l-33 100h-450l-72 -206q-20 -58 -38 -117.5t-26 -90.5l-8 -30h-223zM430 598h342 q-24 73 -49.5 152t-59.5 181t-55 167q-78 -206 -178 -500z" />
<glyph unicode="b" horiz-adv-x="1404" d="M184 1413h170q22 0 185 2t241 2q93 0 165.5 -17.5t119 -46.5t76.5 -69.5t42.5 -83.5t12.5 -92q0 -128 -79 -218t-199 -114q91 -10 160.5 -47.5t108.5 -92t57 -116.5q16 -53 16 -110v-19q-5 -105 -60.5 -195t-148.5 -141q-61 -33 -133 -44t-195 -11h-508q14 140 14 707 q0 371 -10 503t-35 203zM539 684q-1 -93 -1 -184q0 -182 5 -353q41 -2 88 -2q153 0 221 69t68 202q0 132 -68 201t-221 69q-51 0 -92 -2zM539 834q43 -3 114 -3q108 0 164.5 58.5t56.5 163.5q0 111 -50 165t-167 54q-79 0 -116 -2q-2 -74 -2 -436z" />
<glyph unicode="c" horiz-adv-x="1505" d="M160 700q0 350 215 546t598 196q240 0 422 -74v-223q-166 151 -414 151q-216 0 -345.5 -153.5t-129.5 -413.5q0 -71 15.5 -148t52.5 -159t90.5 -147t138.5 -106.5t188 -41.5q138 0 247 46t175 116l-31 -162q-7 -36 -17.5 -54.5t-37.5 -29.5q-167 -72 -409 -72 q-118 0 -221 25t-178.5 68t-137.5 102t-102.5 124t-67.5 137.5t-39 140t-12 132.5z" />
<glyph unicode="d" horiz-adv-x="1705" d="M190 1413h160q44 0 203.5 2t267.5 2q130 0 237 -22t181 -59t130.5 -90t89 -108.5t53 -122t27.5 -123.5t7 -120q0 -82 -12.5 -159.5t-43 -157t-76 -147.5t-115 -127.5t-157.5 -101t-207 -63.5q-105 -20 -226 -20h-33q-223 4 -457 4q17 170 17 707q0 369 -10 502t-36 204z M545 707q0 -430 6 -557q102 -5 164 -5q84 0 153 17.5t118.5 47.5t87.5 74.5t61.5 95.5t38.5 114t20.5 125.5t5.5 134.5q0 71 -9 134t-40 136.5t-82 125.5t-142.5 87t-213.5 35q-82 0 -164 -4q-4 -254 -4 -561z" />
<glyph unicode="e" horiz-adv-x="1224" d="M195 1414h843v-165q-69 7 -141 8q-36 0 -122 0.5t-222 -0.5q-4 -106 -4 -428q187 -1 265 -1h51q36 0 102 6v-164q-61 5 -102 5t-316 -1q0 -393 4 -518h97q324 0 452 12v-168h-879q17 170 17 707q0 371 -10 503.5t-35 203.5z" />
<glyph unicode="f" horiz-adv-x="1083" d="M205 1413h844v-164q-69 7 -141 8q-37 1 -123 1t-222 -1q-4 -106 -4 -428q187 -1 265 -1h51q36 1 102 6v-164q-61 5 -102 5t-316 -1q0 -514 16 -674h-342q17 170 17 707q0 371 -10 503t-35 203z" />
<glyph unicode="g" horiz-adv-x="1650" d="M160 700q0 350 215 546t598 196q240 0 422 -74v-223q-166 151 -414 151q-216 0 -345.5 -153.5t-129.5 -413.5q0 -77 13.5 -154t48 -159.5t87.5 -145t140 -103t196 -40.5q93 0 154 12q0 276 -7 355t-36 120h375q-13 -40 -16 -126t-3 -412q-84 -43 -234 -74t-306 -31 q-168 0 -302.5 47t-217.5 121t-138.5 172.5t-77.5 194.5t-22 194z" />
<glyph unicode="h" horiz-adv-x="1755" d="M231 1413h369q-14 -137 -14 -569h612q-2 414 -14 569h338q-15 -161 -15 -706q0 -537 17 -707h-342q16 156 16 690h-612q0 -534 16 -690h-342q16 160 16 707q0 371 -10 503t-35 203z" />
<glyph unicode="i" horiz-adv-x="794" d="M199 1413h368q-14 -150 -14 -706q0 -547 16 -707h-342q17 170 17 707q0 371 -10 503t-35 203z" />
<glyph unicode="j" horiz-adv-x="862" d="M68 -147q83 31 126.5 72.5t65.5 110t31 193.5q13 174 13 426q0 156 -5 342q-4 147 -12 233t-16.5 116.5t-24.5 66.5h387q-18 -130 -25 -1042q-1 -132 -26 -236.5t-79.5 -190t-148 -138.5t-223.5 -70z" />
<glyph unicode="k" horiz-adv-x="1454" d="M205 1413h360q-6 -252 -6 -655q223 267 508 655h250q-28 -29 -60 -65.5t-73 -86.5t-70.5 -86.5t-80.5 -102t-73.5 -94t-78 -101t-66.5 -86.5q81 -109 418 -543q54 -69 106.5 -131t78.5 -89l26 -28h-426q-78 119 -164 238q-82 110 -295 389q0 -442 10 -627h-336 q17 170 17 707q0 371 -10 503t-35 203z" />
<glyph unicode="l" horiz-adv-x="1036" d="M205 1413h364q-10 -476 -10 -837q0 -234 4 -420h88q295 0 416 12v-168h-834q17 170 17 707q0 371 -10 503t-35 203z" />
<glyph unicode="m" horiz-adv-x="2060" d="M172 0q13 49 25 141q92 686 116 1082q2 37 2 65q-1 31 -3 53q-6 41 -29 72h413q232 -649 336 -915q75 194 336 915h412q-24 -31 -30 -73q-3 -23 -3 -55q0 -27 2 -62q32 -521 109 -1073q5 -39 12.5 -76.5t12.5 -55.5l5 -18h-344q0 49 -6 141q-20 283 -96 979 q-135 -340 -422 -1120h-115q-35 94 -189 504.5t-233 615.5q-83 -764 -96 -979q-3 -41 -3.5 -76t0.5 -50l1 -15h-213z" />
<glyph unicode="n" horiz-adv-x="1710" d="M170 1413h442q113 -180 212.5 -329.5t249 -365.5t212.5 -308v297q0 525 -18 706h213q-23 -199 -23 -706q0 -418 2 -707h-264q-184 274 -311.5 459t-281 402.5t-179.5 254.5v-409q0 -534 20 -707h-213q21 182 21 707q0 407 -2 505q-2 93 -15.5 130.5t-64.5 70.5z" />
<glyph unicode="o" d="M160 678q0 180 63 326.5t171 241.5q110 95 252 146q140 50 298 50h6q171 -1 311 -55t233.5 -148.5t144.5 -225t51 -284.5q0 -150 -40.5 -275t-112 -213t-170.5 -149.5t-214 -91.5t-244 -31h-11q-88 -1 -172 15q-88 16 -173 51.5t-155.5 93.5t-124 134.5t-83.5 183 t-30 231.5zM518 680q5 -128 32.5 -227.5t68.5 -161.5t97.5 -100.5t115.5 -52.5q46 -10 96 -10q15 0 30 1q66 4 123 25.5t107.5 67.5t83.5 114q34 66 51 168q12 72 12 157q0 35 -2 72q-7 127 -34.5 226t-68.5 161t-97 101q-57 39 -115 53q-46 11 -96 11q-14 0 -29 -1 q-84 -5 -151.5 -39t-121.5 -103q-55 -68 -82 -186q-21 -93 -21 -213q0 -30 1 -63z" />
<glyph unicode="p" horiz-adv-x="1271" d="M190 1413h170q22 0 185 2t241 2q424 0 424 -354q0 -130 -70 -231.5t-182.5 -157t-248.5 -64.5q-15 -1 -28 -1q-26 0 -37 5q-16 6 -28 31l-45 86l2 6h17q158 0 226 69q71 74 71 212q0 116 -63 186q-62 68 -202 68h-4q-55 0 -75 -4q-6 -111 -6 -598q0 -497 20 -670h-336 q15 150 15 707q0 369 -10 502t-36 204z" />
<glyph unicode="q" d="M160 678q0 180 63 326.5t171.5 241.5t251.5 146q139 50 298 50h6q171 -1 311 -55t233.5 -148.5t144.5 -225t51 -284.5q0 -236 -96 -403t-265 -260q121 -67 281 -138q176 -80 362 -105q69 -9 133 -9q107 0 197 26l-18 -57q-124 -100 -285 -133q-83 -18 -168 -18 q-81 0 -163 16q-170 31 -337 121q-51 28 -332 200q-47 -6 -94 -6h-9q-108 0 -209 23q-105 24 -201.5 79t-168.5 136.5t-114.5 204t-42.5 272.5zM518 680q5 -128 32.5 -227.5t68.5 -161.5t97.5 -100.5t115.5 -52.5q46 -10 96 -10q15 0 30 1q66 4 123 25.5t107.5 67.5 t84 113.5t50.5 168.5q12 72 12 157q0 35 -2 72q-7 127 -34.5 226t-68.5 161t-97 101t-115 53q-45 11 -96 11q-14 0 -29 -1q-84 -5 -151.5 -39t-122 -103t-81.5 -186q-21 -94 -21 -213q0 -30 1 -63z" />
<glyph unicode="r" horiz-adv-x="1417" d="M190 1413h166q150 0 416 4h11q69 0 127 -12q62 -13 105.5 -37.5t76 -56.5t51 -71.5t27 -79.5t8.5 -83q0 -124 -66.5 -218t-167.5 -134q38 -59 81 -123t118 -174.5t129 -189.5q36 -53 80 -112.5t70 -92.5l26 -33h-401q-74 133 -125 213q-66 100 -163 249.5t-112 172.5 h-110q0 -462 20 -635h-336q15 150 15 707q0 369 -10 502t-36 204zM541 793q29 -2 114 -2q106 0 164 66.5t58 174.5q0 240 -218 240q-67 0 -116 -2q-2 -74 -2 -477z" />
<glyph unicode="s" horiz-adv-x="1173" d="M123 41l2 209q188 -113 369 -113q45 0 87.5 10.5t80 31t60.5 58t23 85.5q0 52 -25 94t-101 103t-224 151q-239 146 -239 368q0 79 28.5 149t86.5 128.5t157.5 92.5t230.5 34q97 0 187.5 -17.5t140.5 -38.5v-198q-150 88 -295 88q-106 0 -166.5 -48.5t-60.5 -129.5 q0 -23 3.5 -39t20 -47.5t61.5 -68.5t116 -77q120 -67 196.5 -123.5t117.5 -111.5t56 -105t15 -116q0 -65 -19 -127t-61.5 -119t-103.5 -99.5t-151 -68t-198 -25.5q-223 0 -395 70z" />
<glyph unicode="t" horiz-adv-x="1015" d="M-10 1237v176h1036v-176q-74 16 -262 16h-100v-278q0 -536 2.5 -699.5t17.5 -275.5h-352q15 112 17.5 273.5t2.5 701.5v278h-100q-188 0 -262 -16z" />
<glyph unicode="u" horiz-adv-x="1724" d="M193 1413h368q-2 -159 -2 -325q0 -277 6 -574q2 -104 23.5 -173t64 -105.5t95.5 -51t129 -14.5q84 0 155.5 42t102.5 99q19 34 25.5 89.5t6.5 183.5l2 522q0 181 -8 307h330q-14 -151 -14 -706q0 -547 16 -707h-324v143q-62 -71 -173 -121.5t-242 -50.5q-135 0 -231 38 t-148.5 94.5t-81.5 151.5t-36 177.5t-7 204.5q0 416 -6 557q-5 100 -14.5 144t-36.5 75z" />
<glyph unicode="v" horiz-adv-x="1343" d="M10 1411h365q28 -106 71 -237q186 -568 289 -865q215 589 301 865l72 237h225q-49 -117 -102 -246q-88 -215 -220 -570t-220 -609h-275q-88 278 -205.5 626t-195.5 551q-25 67 -51.5 129t-39.5 90z" />
<glyph unicode="w" horiz-adv-x="2041" d="M10 1413h340q29 -106 66 -237q56 -203 227 -779q50 164 131.5 440.5t99.5 338.5l64 237h291q28 -106 65 -237q43 -155 228 -779q50 164 131.5 440.5t99.5 338.5q16 58 30.5 117.5t20.5 89.5l6 30h222q-60 -149 -113 -317q-284 -885 -350 -1108h-242q-245 826 -309 1032 q-16 -49 -99 -305.5t-136.5 -426t-92.5 -300.5h-241q-206 724 -353 1177z" />
<glyph unicode="x" horiz-adv-x="1392" d="M41 0q111 133 195 248q277 376 323 440q-33 56 -287 477l-161 248h409q70 -145 121 -237q99 -180 115 -209q25 35 76 109t69 100l156 237h235q-100 -123 -190 -248q-52 -75 -139.5 -197t-114.5 -161q101 -177 342 -563q34 -55 74.5 -116t63.5 -94l24 -34h-402 q-76 148 -127 238q-38 65 -93 160.5t-75 129.5q-178 -258 -340 -528h-274z" />
<glyph unicode="y" horiz-adv-x="1118" d="M-51 1413h360q27 -67 72 -151q3 -6 246 -443q105 189 241 443q19 36 36.5 74t25.5 58l8 19h231q-49 -74 -100 -158q-119 -182 -356 -608q0 -515 14 -647h-338q17 192 17 647q-276 483 -353 608q-25 41 -51 80.5t-40 58.5z" />
<glyph unicode="z" horiz-adv-x="1290" d="M0 -4v100q224 330 372.5 564.5t364.5 592.5q-77 1 -149 1q-308 0 -496 -11v170h1051v-100q-356 -547 -721 -1163q492 0 772 16l-16 -170q-400 4 -695 4t-483 -4z" />
<glyph unicode="|" horiz-adv-x="393" d="M102 -143v1697h189v-1697h-189z" />
<glyph unicode="~" horiz-adv-x="1427" d="M362 1589q22 67 76.5 116.5t116.5 55.5q74 7 186 -39q104 -44 160 -36q30 4 49.5 20t34.5 47l80 -24q-15 -75 -70.5 -128.5t-122.5 -56.5q-62 -4 -163 37q-107 43 -154 43q-60 0 -104 -63z" />
<glyph unicode="&#xa1;" horiz-adv-x="768" d="M225 0q3 94 35 393t47 621h154q15 -322 47 -621t35 -393h-318zM250 1137v276h268v-276h-268z" />
<glyph unicode="&#xa8;" horiz-adv-x="1247" d="M369 1626q0 42 26.5 70t67.5 28q40 0 67 -28.5t27 -69.5q0 -36 -27.5 -64t-66.5 -28q-40 0 -67 28t-27 64zM696 1626q0 40 28.5 69t66.5 29q41 0 69.5 -29t28.5 -69q0 -37 -28.5 -65.5t-69.5 -28.5q-38 0 -66.5 28.5t-28.5 65.5z" />
<glyph unicode="&#xab;" horiz-adv-x="1314" d="M117 670l407 520l187 -123l-308 -397l308 -398l-187 -122zM588 670l407 520l187 -123l-308 -397l308 -398l-187 -122z" />
<glyph unicode="&#xad;" horiz-adv-x="731" d="M102 614v185h527v-185h-527z" />
<glyph unicode="&#xae;" horiz-adv-x="1024" d="M164 993q0 119 59 220.5t161 161t222 59.5t222 -59.5t161.5 -161t59.5 -220.5q0 -183 -130 -313.5t-313 -130.5t-312.5 130.5t-129.5 313.5zM227 993q0 -157 111 -269t268 -112t268 112t111 269t-111 268t-268 111t-268 -111t-111 -268zM449 1237h67q6 0 46 1t69 1 q63 0 94 -30.5t31 -73.5q0 -77 -80 -121q10 -14 26.5 -39.5t35.5 -52.5t44 -62l66 -86h-109q-27 43 -45 70q-25 36 -55.5 84.5t-40.5 62.5q-18 -2 -51 -2q0 -157 6 -215h-96q6 58 6 232v157q0 49 -14 74zM547 1032q16 -2 41 -2q43 0 64.5 24.5t21.5 63.5q0 82 -92 82 q-19 0 -33 -2q-2 -25 -2 -166z" />
<glyph unicode="&#xb4;" horiz-adv-x="1044" d="M506 1511l164 236l209 -2l-209 -234h-164z" />
<glyph unicode="&#xbb;" horiz-adv-x="1314" d="M133 272l307 398l-307 397l186 123l408 -520l-408 -520zM604 272l307 398l-307 397l187 123l407 -520l-407 -520z" />
<glyph unicode="&#xbf;" horiz-adv-x="962" d="M164 240q0 83 46 165.5t136 178.5q100 106 136 165t36 121q0 57 -29 131h166q56 -88 56 -172q0 -79 -39.5 -161.5t-147.5 -212.5q-50 -61 -70 -105t-20 -92q0 -55 41 -91t107 -36q56 0 115.5 25.5t101.5 66.5v-166q-123 -86 -289 -86q-175 0 -260.5 77t-85.5 192z M434 1137v276h268v-276h-268z" />
<glyph unicode="&#xc0;" horiz-adv-x="1339" d="M10 0q58 129 105 246q182 455 436 1179h276q7 -21 45.5 -140t57 -175.5t57.5 -174t65 -194.5t59.5 -175t62 -176.5t53.5 -141.5q35 -89 60.5 -151t33.5 -79l8 -18h-366q-26 105 -103 344l-33 100h-450l-72 -206q-20 -58 -38 -117.5t-26 -90.5l-8 -30h-223zM403 1745 l209 2l164 -236h-164zM430 598h342q-24 73 -49.5 152t-59.5 181t-55 167q-78 -206 -178 -500z" />
<glyph unicode="&#xc1;" horiz-adv-x="1339" d="M10 0q58 129 105 246q182 455 436 1179h276q7 -21 45.5 -140t57 -175.5t57.5 -174t65 -194.5t59.5 -175t62 -176.5t53.5 -141.5q35 -89 60.5 -151t33.5 -79l8 -18h-366q-26 105 -103 344l-33 100h-450l-72 -206q-20 -58 -38 -117.5t-26 -90.5l-8 -30h-223zM430 598h342 q-24 73 -49.5 152t-59.5 181t-55 167q-78 -206 -178 -500zM561 1511l164 236l209 -2l-209 -234h-164z" />
<glyph unicode="&#xc2;" horiz-adv-x="1339" d="M10 0q58 129 105 246q182 455 436 1179h276q7 -21 45.5 -140t57 -175.5t57.5 -174t65 -194.5t59.5 -175t62 -176.5t53.5 -141.5q35 -89 60.5 -151t33.5 -79l8 -18h-366q-26 105 -103 344l-33 100h-450l-72 -206q-20 -58 -38 -117.5t-26 -90.5l-8 -30h-223zM371 1546 l313 217l313 -217l-180 -39l-133 107l-133 -107zM430 598h342q-24 73 -49.5 152t-59.5 181t-55 167q-78 -206 -178 -500z" />
<glyph unicode="&#xc3;" horiz-adv-x="1339" d="M10 0q58 129 105 246q182 455 436 1179h276q7 -21 45.5 -140t57 -175.5t57.5 -174t65 -194.5t59.5 -175t62 -176.5t53.5 -141.5q35 -89 60.5 -151t33.5 -79l8 -18h-366q-26 105 -103 344l-33 100h-450l-72 -206q-20 -58 -38 -117.5t-26 -90.5l-8 -30h-223zM334 1589 q22 67 76 116.5t116 55.5q74 7 187 -39q103 -44 159 -36q30 4 49.5 20t34.5 47l80 -24q-15 -75 -70 -128.5t-122 -56.5q-63 -5 -164 37q-107 43 -154 43q-60 0 -104 -63zM430 598h342q-24 73 -49.5 152t-59.5 181t-55 167q-78 -206 -178 -500z" />
<glyph unicode="&#xc4;" horiz-adv-x="1339" d="M10 0q58 129 105 246q182 455 436 1179h276q7 -21 45.5 -140t57 -175.5t57.5 -174t65 -194.5t59.5 -175t62 -176.5t53.5 -141.5q35 -89 60.5 -151t33.5 -79l8 -18h-366q-26 105 -103 344l-33 100h-450l-72 -206q-20 -58 -38 -117.5t-26 -90.5l-8 -30h-223zM430 598h342 q-24 73 -49.5 152t-59.5 181t-55 167q-78 -206 -178 -500zM444 1626q0 42 27 70t68 28q40 0 67 -28.5t27 -69.5q0 -36 -27.5 -64t-66.5 -28q-40 0 -67.5 28t-27.5 64zM772 1626q0 40 28 69t66 29q41 0 70 -29t29 -69q0 -37 -29 -65.5t-70 -28.5q-38 0 -66 28.5t-28 65.5z " />
<glyph unicode="&#xc5;" horiz-adv-x="1339" d="M10 0q58 129 105 246q182 455 436 1179h276q7 -21 45.5 -140t57 -175.5t57.5 -174t65 -194.5t59.5 -175t62 -176.5t53.5 -141.5q35 -89 60.5 -151t33.5 -79l8 -18h-366q-26 105 -103 344l-33 100h-450l-72 -206q-20 -58 -38 -117.5t-26 -90.5l-8 -30h-223zM430 598h342 q-24 73 -49.5 152t-59.5 181t-55 167q-78 -206 -178 -500zM526 1677q0 71 51 121.5t121 50.5t121 -50.5t51 -121.5t-51 -121.5t-121 -50.5t-121 50.5t-51 121.5zM586 1677q0 -47 32.5 -80.5t79.5 -33.5t80 33.5t33 80.5t-33 81t-80 34t-79.5 -33.5t-32.5 -81.5z" />
<glyph unicode="&#xc6;" horiz-adv-x="1857" d="M-147 0q92 133 213 340q342 578 569 995q26 53 -8 72l1054 6v-164q-69 7 -141 8t-344 0q-4 -106 -4 -440q275 -1 316 -1t102 5v-164q-66 5 -102 5.5t-316 -0.5q0 -381 4 -506q402 -2 549 12v-168h-883q21 178 21 662h-398q-27 -55 -87.5 -174t-102.5 -205 q-74 -154 -119 -283h-323zM575 817h308v443q-42 -9 -67.5 -39t-94.5 -144q-84 -142 -146 -260z" />
<glyph unicode="&#xc7;" horiz-adv-x="1576" d="M160 700q0 350 215 546t598 196q240 0 422 -74v-223q-166 151 -414 151q-216 0 -345.5 -153.5t-129.5 -413.5q0 -71 15.5 -148t52.5 -159t90.5 -147t138.5 -106.5t188 -41.5q138 0 247 46t175 116l-31 -162q-7 -36 -17.5 -54.5t-37.5 -29.5q-115 -50 -291 -66l-379 -294 l-194 108l295 193q-128 21 -232.5 77t-171 130t-111.5 164t-64 176t-19 169z" />
<glyph unicode="&#xc8;" horiz-adv-x="1224" d="M195 1413h843v-164q-69 7 -141 8t-344 0q-4 -106 -4 -428q280 -1 316 -0.5t102 5.5v-164q-61 5 -102 5t-316 -1q0 -393 4 -518q402 -2 549 12v-168h-879q17 170 17 707q0 371 -10 503t-35 203zM352 1745l209 2l164 -236h-164z" />
<glyph unicode="&#xc9;" horiz-adv-x="1224" d="M195 1413h843v-164q-69 7 -141 8t-344 0q-4 -106 -4 -428q280 -1 316 -0.5t102 5.5v-164q-61 5 -102 5t-316 -1q0 -393 4 -518q402 -2 549 12v-168h-879q17 170 17 707q0 371 -10 503t-35 203zM496 1511l163 236l209 -2l-209 -234h-163z" />
<glyph unicode="&#xca;" horiz-adv-x="1224" d="M195 1413h843v-164q-69 7 -141 8t-344 0q-4 -106 -4 -428q280 -1 316 -0.5t102 5.5v-164q-61 5 -102 5t-316 -1q0 -393 4 -518q402 -2 549 12v-168h-879q17 170 17 707q0 371 -10 503t-35 203zM311 1546l314 217l313 -217l-180 -39l-133 107l-133 -107z" />
<glyph unicode="&#xcb;" horiz-adv-x="1224" d="M195 1413h843v-164q-69 7 -141 8t-344 0q-4 -106 -4 -428q280 -1 316 -0.5t102 5.5v-164q-61 5 -102 5t-316 -1q0 -393 4 -518q402 -2 549 12v-168h-879q17 170 17 707q0 371 -10 503t-35 203zM397 1626q0 42 27 70t68 28q40 0 67 -28.5t27 -69.5q0 -36 -27.5 -64 t-66.5 -28q-40 0 -67.5 28t-27.5 64zM725 1626q0 40 28 69t66 29q41 0 70 -29t29 -69q0 -37 -29 -65.5t-70 -28.5q-38 0 -66 28.5t-28 65.5z" />
<glyph unicode="&#xcc;" horiz-adv-x="794" d="M125 1724l209 2l164 -235h-164zM199 1413h368q-14 -150 -14 -706q0 -547 16 -707h-342q17 170 17 707q0 371 -10 503t-35 203z" />
<glyph unicode="&#xcd;" horiz-adv-x="794" d="M199 1413h368q-14 -150 -14 -706q0 -547 16 -707h-342q17 170 17 707q0 371 -10 503t-35 203zM291 1491l164 235l209 -2l-209 -233h-164z" />
<glyph unicode="&#xce;" horiz-adv-x="794" d="M78 1526l313 217l314 -217l-181 -39l-133 106l-133 -106zM199 1413h368q-14 -150 -14 -706q0 -547 16 -707h-342q17 170 17 707q0 371 -10 503t-35 203z" />
<glyph unicode="&#xcf;" horiz-adv-x="794" d="M133 1606q0 42 26.5 70t67.5 28q40 0 67.5 -28.5t27.5 -69.5q0 -36 -28 -64.5t-67 -28.5q-40 0 -67 28t-27 65zM199 1413h368q-14 -150 -14 -706q0 -547 16 -707h-342q17 170 17 707q0 371 -10 503t-35 203zM461 1606q0 40 28 69t66 29q41 0 69.5 -29t28.5 -69 q0 -38 -28.5 -66.5t-69.5 -28.5q-38 0 -66 29t-28 66z" />
<glyph unicode="&#xd0;" horiz-adv-x="1705" d="M55 643v139h181q-1 320 -11.5 441.5t-34.5 189.5h160q44 0 203.5 2t267.5 2q130 0 237 -22t181 -59t130.5 -90t89 -108.5t53 -122t27.5 -123.5t7 -120q0 -82 -12.5 -159.5t-43 -157t-76 -147.5t-115 -127.5t-157.5 -101t-207 -64t-259 -19.5q-223 4 -457 4q15 140 17 643 h-181zM545 643q0 -378 6 -493q102 -5 164 -5q84 0 153 17.5t118.5 47.5t87.5 74.5t61.5 95.5t38.5 114t20.5 125.5t5.5 134.5q0 71 -9 134t-40 136.5t-82 125.5t-142.5 87t-213.5 35q-82 0 -164 -4q-4 -230 -4 -486h262v-139h-262z" />
<glyph unicode="&#xd1;" horiz-adv-x="1710" d="M170 1413h442q113 -180 212.5 -329.5t249 -365.5t212.5 -308v297q0 525 -18 706h213q-23 -199 -23 -706q0 -418 2 -707h-264q-184 274 -311.5 459t-281 402.5t-179.5 254.5v-409q0 -534 20 -707h-213q21 182 21 707q0 407 -2 505q-2 93 -15.5 130.5t-64.5 70.5zM541 1589 q22 67 76 116.5t116 55.5q74 7 187 -39q103 -44 159 -36q30 4 49.5 20t34.5 47l80 -24q-15 -75 -70 -128.5t-122 -56.5q-63 -5 -164 37q-107 43 -154 43q-60 0 -104 -63z" />
<glyph unicode="&#xd2;" d="M160 678q0 180 63 326.5t171.5 241.5t251 146t304.5 50q171 -1 311 -55t233.5 -148.5t144.5 -225t51 -284.5q0 -150 -40.5 -275t-112 -213t-170.5 -149.5t-214 -91.5t-244 -31q-94 -1 -182.5 15.5t-173.5 51.5t-155.5 93t-124 134.5t-83.5 183t-30 231.5zM518 680 q5 -128 32.5 -227.5t68.5 -161.5t97.5 -100.5t115.5 -52t126 -9.5q66 4 123 25.5t107.5 67.5t84 113.5t50.5 169t10 228.5t-34.5 226t-68.5 161t-97 101t-114.5 53t-125.5 10q-84 -5 -151.5 -39t-122 -103t-81.5 -186.5t-20 -275.5zM674 1745l209 2l164 -236h-164z" />
<glyph unicode="&#xd3;" d="M160 678q0 180 63 326.5t171.5 241.5t251 146t304.5 50q171 -1 311 -55t233.5 -148.5t144.5 -225t51 -284.5q0 -150 -40.5 -275t-112 -213t-170.5 -149.5t-214 -91.5t-244 -31q-94 -1 -182.5 15.5t-173.5 51.5t-155.5 93t-124 134.5t-83.5 183t-30 231.5zM518 680 q5 -128 32.5 -227.5t68.5 -161.5t97.5 -100.5t115.5 -52t126 -9.5q66 4 123 25.5t107.5 67.5t84 113.5t50.5 169t10 228.5t-34.5 226t-68.5 161t-97 101t-114.5 53t-125.5 10q-84 -5 -151.5 -39t-122 -103t-81.5 -186.5t-20 -275.5zM854 1511l164 236l209 -2l-209 -234h-164 z" />
<glyph unicode="&#xd4;" d="M160 678q0 180 63 326.5t171.5 241.5t251 146t304.5 50q171 -1 311 -55t233.5 -148.5t144.5 -225t51 -284.5q0 -150 -40.5 -275t-112 -213t-170.5 -149.5t-214 -91.5t-244 -31q-94 -1 -182.5 15.5t-173.5 51.5t-155.5 93t-124 134.5t-83.5 183t-30 231.5zM518 680 q5 -128 32.5 -227.5t68.5 -161.5t97.5 -100.5t115.5 -52t126 -9.5q66 4 123 25.5t107.5 67.5t84 113.5t50.5 169t10 228.5t-34.5 226t-68.5 161t-97 101t-114.5 53t-125.5 10q-84 -5 -151.5 -39t-122 -103t-81.5 -186.5t-20 -275.5zM627 1546l313 217l313 -217l-180 -39 l-133 107l-133 -107z" />
<glyph unicode="&#xd5;" d="M160 678q0 180 63 326.5t171.5 241.5t251 146t304.5 50q171 -1 311 -55t233.5 -148.5t144.5 -225t51 -284.5q0 -150 -40.5 -275t-112 -213t-170.5 -149.5t-214 -91.5t-244 -31q-94 -1 -182.5 15.5t-173.5 51.5t-155.5 93t-124 134.5t-83.5 183t-30 231.5zM518 680 q5 -128 32.5 -227.5t68.5 -161.5t97.5 -100.5t115.5 -52t126 -9.5q66 4 123 25.5t107.5 67.5t84 113.5t50.5 169t10 228.5t-34.5 226t-68.5 161t-97 101t-114.5 53t-125.5 10q-84 -5 -151.5 -39t-122 -103t-81.5 -186.5t-20 -275.5zM588 1589q22 67 76 116.5t116 55.5 q74 7 187 -39q103 -44 159 -36q30 4 49.5 20t34.5 47l80 -24q-15 -75 -70 -128.5t-122 -56.5q-63 -5 -164 37q-107 43 -154 43q-60 0 -104 -63z" />
<glyph unicode="&#xd6;" d="M160 678q0 180 63 326.5t171.5 241.5t251 146t304.5 50q171 -1 311 -55t233.5 -148.5t144.5 -225t51 -284.5q0 -150 -40.5 -275t-112 -213t-170.5 -149.5t-214 -91.5t-244 -31q-94 -1 -182.5 15.5t-173.5 51.5t-155.5 93t-124 134.5t-83.5 183t-30 231.5zM518 680 q5 -128 32.5 -227.5t68.5 -161.5t97.5 -100.5t115.5 -52t126 -9.5q66 4 123 25.5t107.5 67.5t84 113.5t50.5 169t10 228.5t-34.5 226t-68.5 161t-97 101t-114.5 53t-125.5 10q-84 -5 -151.5 -39t-122 -103t-81.5 -186.5t-20 -275.5zM709 1626q0 42 26.5 70t67.5 28 q40 0 67 -28.5t27 -69.5q0 -36 -27.5 -64t-66.5 -28q-40 0 -67 28t-27 64zM1036 1626q0 40 28 69t66 29q41 0 70 -29t29 -69q0 -37 -29 -65.5t-70 -28.5q-38 0 -66 28.5t-28 65.5z" />
<glyph unicode="&#xd7;" horiz-adv-x="1495" d="M266 819l123 123l359 -358l358 358l123 -123l-359 -358l357 -357l-123 -122l-356 356l-357 -356l-123 122l357 357z" />
<glyph unicode="&#xd9;" horiz-adv-x="1724" d="M193 1413h368q-6 -424 4 -899q2 -104 23.5 -173t64 -105.5t95.5 -51t129 -14.5q84 0 155.5 42t102.5 99q19 34 25.5 89.5t6.5 183.5l2 522q0 181 -8 307h330q-14 -151 -14 -706q0 -547 16 -707h-324v143q-62 -71 -173 -121.5t-242 -50.5q-135 0 -231 38t-148.5 94.5 t-81.5 151.5t-36 177.5t-7 204.5q0 416 -6 557q-5 100 -14.5 144t-36.5 75zM637 1745l209 2l164 -236h-164z" />
<glyph unicode="&#xda;" horiz-adv-x="1724" d="M193 1413h368q-6 -424 4 -899q2 -104 23.5 -173t64 -105.5t95.5 -51t129 -14.5q84 0 155.5 42t102.5 99q19 34 25.5 89.5t6.5 183.5l2 522q0 181 -8 307h330q-14 -151 -14 -706q0 -547 16 -707h-324v143q-62 -71 -173 -121.5t-242 -50.5q-135 0 -231 38t-148.5 94.5 t-81.5 151.5t-36 177.5t-7 204.5q0 416 -6 557q-5 100 -14.5 144t-36.5 75zM754 1511l164 236l208 -2l-208 -234h-164z" />
<glyph unicode="&#xdb;" horiz-adv-x="1724" d="M193 1413h368q-6 -424 4 -899q2 -104 23.5 -173t64 -105.5t95.5 -51t129 -14.5q84 0 155.5 42t102.5 99q19 34 25.5 89.5t6.5 183.5l2 522q0 181 -8 307h330q-14 -151 -14 -706q0 -547 16 -707h-324v143q-62 -71 -173 -121.5t-242 -50.5q-135 0 -231 38t-148.5 94.5 t-81.5 151.5t-36 177.5t-7 204.5q0 416 -6 557q-5 100 -14.5 144t-36.5 75zM571 1546l314 217l313 -217l-180 -39l-133 107l-133 -107z" />
<glyph unicode="&#xdc;" horiz-adv-x="1724" d="M193 1413h368q-6 -424 4 -899q2 -104 23.5 -173t64 -105.5t95.5 -51t129 -14.5q84 0 155.5 42t102.5 99q19 34 25.5 89.5t6.5 183.5l2 522q0 181 -8 307h330q-14 -151 -14 -706q0 -547 16 -707h-324v143q-62 -71 -173 -121.5t-242 -50.5q-135 0 -231 38t-148.5 94.5 t-81.5 151.5t-36 177.5t-7 204.5q0 416 -6 557q-5 100 -14.5 144t-36.5 75zM625 1626q0 42 26.5 70t67.5 28q40 0 67 -28.5t27 -69.5q0 -36 -27.5 -64t-66.5 -28q-40 0 -67 28t-27 64zM952 1626q0 40 28.5 69t66.5 29q41 0 69.5 -29t28.5 -69q0 -37 -28.5 -65.5t-69.5 -28.5 q-38 0 -66.5 28.5t-28.5 65.5z" />
<glyph unicode="&#xdd;" horiz-adv-x="1118" d="M-51 1413h360q27 -67 72 -151q3 -6 246 -443q105 189 241 443q19 36 36.5 74t25.5 58l8 19h231q-49 -74 -100 -158q-119 -182 -356 -608q0 -515 14 -647h-338q17 192 17 647q-276 483 -353 608q-25 41 -51 80.5t-40 58.5zM506 1511l164 236l209 -2l-209 -234h-164z" />
<glyph unicode="&#xe0;" horiz-adv-x="1339" d="M10 0q58 129 105 246q182 455 436 1179h276q7 -21 45.5 -140t57 -175.5t57.5 -174t65 -194.5t59.5 -175t62 -176.5t53.5 -141.5q35 -89 60.5 -151t33.5 -79l8 -18h-366q-26 105 -103 344l-33 100h-450l-72 -206q-20 -58 -38 -117.5t-26 -90.5l-8 -30h-223zM430 598h342 q-24 73 -49.5 152t-59.5 181t-55 167q-78 -206 -178 -500zM455 1745l209 2l163 -236h-163z" />
<glyph unicode="&#xe1;" horiz-adv-x="1339" d="M10 0q58 129 105 246q182 455 436 1179h276q7 -21 45.5 -140t57 -175.5t57.5 -174t65 -194.5t59.5 -175t62 -176.5t53.5 -141.5q35 -89 60.5 -151t33.5 -79l8 -18h-366q-26 105 -103 344l-33 100h-450l-72 -206q-20 -58 -38 -117.5t-26 -90.5l-8 -30h-223zM430 598h342 q-24 73 -49.5 152t-59.5 181t-55 167q-78 -206 -178 -500zM588 1511l164 236l209 -2l-209 -234h-164z" />
<glyph unicode="&#xe2;" horiz-adv-x="1339" d="M10 0q58 129 105 246q182 455 436 1179h276q7 -21 45.5 -140t57 -175.5t57.5 -174t65 -194.5t59.5 -175t62 -176.5t53.5 -141.5q35 -89 60.5 -151t33.5 -79l8 -18h-366q-26 105 -103 344l-33 100h-450l-72 -206q-20 -58 -38 -117.5t-26 -90.5l-8 -30h-223zM371 1546 l313 217l313 -217l-180 -39l-133 107l-133 -107zM430 598h342q-24 73 -49.5 152t-59.5 181t-55 167q-78 -206 -178 -500z" />
<glyph unicode="&#xe3;" horiz-adv-x="1339" d="M10 0q58 129 105 246q182 455 436 1179h276q7 -21 45.5 -140t57 -175.5t57.5 -174t65 -194.5t59.5 -175t62 -176.5t53.5 -141.5q35 -89 60.5 -151t33.5 -79l8 -18h-366q-26 105 -103 344l-33 100h-450l-72 -206q-20 -58 -38 -117.5t-26 -90.5l-8 -30h-223zM362 1589 q22 67 76.5 116.5t116.5 55.5q74 7 186 -39q104 -44 160 -36q30 4 49.5 20t34.5 47l80 -24q-15 -75 -70.5 -128.5t-122.5 -56.5q-62 -4 -163 37q-107 43 -154 43q-60 0 -104 -63zM430 598h342q-24 73 -49.5 152t-59.5 181t-55 167q-78 -206 -178 -500z" />
<glyph unicode="&#xe4;" horiz-adv-x="1339" d="M10 0q58 129 105 246q182 455 436 1179h276q7 -21 45.5 -140t57 -175.5t57.5 -174t65 -194.5t59.5 -175t62 -176.5t53.5 -141.5q35 -89 60.5 -151t33.5 -79l8 -18h-366q-26 105 -103 344l-33 100h-450l-72 -206q-20 -58 -38 -117.5t-26 -90.5l-8 -30h-223zM430 598h342 q-24 73 -49.5 152t-59.5 181t-55 167q-78 -206 -178 -500zM446 1626q0 42 27 70t68 28q40 0 67 -28.5t27 -69.5q0 -36 -27.5 -64t-66.5 -28q-40 0 -67.5 28t-27.5 64zM774 1626q0 40 28 69t66 29q41 0 70 -29t29 -69q0 -37 -29 -65.5t-70 -28.5q-38 0 -66 28.5t-28 65.5z " />
<glyph unicode="&#xe5;" horiz-adv-x="1339" d="M10 0q58 129 105 246q182 455 436 1179h276q7 -21 45.5 -140t57 -175.5t57.5 -174t65 -194.5t59.5 -175t62 -176.5t53.5 -141.5q35 -89 60.5 -151t33.5 -79l8 -18h-366q-26 105 -103 344l-33 100h-450l-72 -206q-20 -58 -38 -117.5t-26 -90.5l-8 -30h-223zM430 598h342 q-24 73 -49.5 152t-59.5 181t-55 167q-78 -206 -178 -500zM516 1669v8q0 50 29 97q3 3 8 10t8 10l12 10q12 11 19 15q2 1 5 4t5 4q3 1 9.5 4t9.5 4q20 8 32 10q4 2 15 2q6 2 20 2q11 0 35 -4q4 0 12 -4q26 -7 37 -14q1 -1 3 -2t3 -2q2 0 6 -4q16 -12 25 -21q12 -10 25 -31 q1 -1 2 -3t2 -3q1 -3 4 -9t4 -9q2 -3 3 -6t1.5 -7t1.5 -6q4 -8 4 -12q2 -4 2 -14q2 -4 2 -15v-14q-4 -26 -8 -41q-9 -27 -14 -37q-16 -27 -54 -57q-20 -12 -30 -16q-24 -10 -31 -11q-10 -2 -29 -2h-26q-24 3 -47 13q-3 2 -9.5 5t-9.5 5q-23 14 -31 22q-16 16 -26 31 q-29 45 -29 88zM575 1667q3 -50 41 -80q14 -11 31 -18q4 -1 11.5 -3t11.5 -3h18q17 0 23 2q22 3 41 16q17 11 30 31q4 6 11 20q1 3 3 10.5t3 10.5q0 4 1 12t1 12q0 13 -2 19v4q-1 2 -2 6t-2 6q0 2 -1 5t-1 5q-5 5 -5 9q-12 21 -30 36q-1 1 -3 2.5t-3 2.5q-2 1 -6.5 4t-6.5 4 t-6 2t-6 2l-8 4q-4 0 -8 2h-4q-6 2 -19 2h-10q-23 -3 -43 -12q-2 -1 -5 -4t-5 -4q-10 -6 -27 -23q-1 -1 -2 -4t-2 -4q-16 -22 -19 -55v-19z" />
<glyph unicode="&#xe6;" horiz-adv-x="1857" d="M-147 0q92 133 213 340q342 578 569 995q26 53 -8 72l1054 6v-164q-69 7 -141 8t-344 0q-4 -106 -4 -440q275 -1 316 -1t102 5v-164q-66 5 -102 5.5t-316 -0.5q0 -381 4 -506q402 -2 549 12v-168h-883q21 178 21 662h-398q-27 -55 -87.5 -174t-102.5 -205 q-74 -154 -119 -283h-323zM575 817h308v443q-42 -9 -67.5 -39t-94.5 -144q-84 -142 -146 -260z" />
<glyph unicode="&#xe7;" horiz-adv-x="1474" d="M160 700q0 350 215 546t598 196q240 0 422 -74v-223q-166 151 -414 151q-216 0 -345.5 -153.5t-129.5 -413.5q0 -71 15.5 -148t52.5 -159t90.5 -147t138.5 -106.5t188 -41.5q138 0 247 46t175 116l-31 -162q-7 -36 -17.5 -54.5t-37.5 -29.5q-120 -55 -313 -68l-377 -292 l-195 108l301 197q-125 22 -226.5 79t-166.5 130t-109 162t-62.5 173.5t-18.5 167.5z" />
<glyph unicode="&#xe8;" horiz-adv-x="1224" d="M195 1413h843v-164q-69 7 -141 8t-344 0q-4 -106 -4 -428q280 -1 316 -0.5t102 5.5v-164q-61 5 -102 5t-316 -1q0 -393 4 -518q402 -2 549 12v-168h-879q17 170 17 707q0 371 -10 503t-35 203zM352 1745l209 2l164 -236h-164z" />
<glyph unicode="&#xe9;" horiz-adv-x="1224" d="M195 1413h843v-164q-69 7 -141 8t-344 0q-4 -106 -4 -428q280 -1 316 -0.5t102 5.5v-164q-61 5 -102 5t-316 -1q0 -393 4 -518q402 -2 549 12v-168h-879q17 170 17 707q0 371 -10 503t-35 203zM496 1511l163 236l209 -2l-209 -234h-163z" />
<glyph unicode="&#xea;" horiz-adv-x="1224" d="M195 1413h843v-164q-69 7 -141 8t-344 0q-4 -106 -4 -428q280 -1 316 -0.5t102 5.5v-164q-61 5 -102 5t-316 -1q0 -393 4 -518q402 -2 549 12v-168h-879q17 170 17 707q0 371 -10 503t-35 203zM311 1554l314 218l313 -218l-180 -38l-133 106l-133 -106z" />
<glyph unicode="&#xeb;" horiz-adv-x="1224" d="M195 1413h843v-164q-69 7 -141 8t-344 0q-4 -106 -4 -428q280 -1 316 -0.5t102 5.5v-164q-61 5 -102 5t-316 -1q0 -393 4 -518q402 -2 549 12v-168h-879q17 170 17 707q0 371 -10 503t-35 203zM397 1640q0 42 27 70.5t68 28.5q40 0 67 -29t27 -70q0 -36 -27.5 -64 t-66.5 -28q-40 0 -67.5 28t-27.5 64zM725 1640q0 40 28 69.5t66 29.5q41 0 70 -29.5t29 -69.5q0 -37 -29 -65.5t-70 -28.5q-38 0 -66 28.5t-28 65.5z" />
<glyph unicode="&#xec;" horiz-adv-x="794" d="M117 1745l209 2l163 -236h-163zM199 1413h368q-14 -150 -14 -706q0 -547 16 -707h-342q17 170 17 707q0 371 -10 503t-35 203z" />
<glyph unicode="&#xed;" horiz-adv-x="794" d="M199 1413h368q-14 -150 -14 -706q0 -547 16 -707h-342q17 170 17 707q0 371 -10 503t-35 203zM301 1511l164 236l209 -2l-209 -234h-164z" />
<glyph unicode="&#xee;" horiz-adv-x="794" d="M78 1546l313 217l314 -217l-181 -39l-133 107l-133 -107zM199 1413h368q-14 -150 -14 -706q0 -547 16 -707h-342q17 170 17 707q0 371 -10 503t-35 203z" />
<glyph unicode="&#xef;" horiz-adv-x="794" d="M133 1626q0 42 26.5 70t67.5 28q40 0 67.5 -28.5t27.5 -69.5q0 -36 -28 -64t-67 -28q-40 0 -67 28t-27 64zM199 1413h368q-14 -150 -14 -706q0 -547 16 -707h-342q17 170 17 707q0 371 -10 503t-35 203zM461 1626q0 40 28 69t66 29q41 0 69.5 -29t28.5 -69 q0 -37 -28.5 -65.5t-69.5 -28.5q-38 0 -66 28.5t-28 65.5z" />
<glyph unicode="&#xf0;" horiz-adv-x="1695" d="M55 643v139h170q-1 322 -11 443t-34 188h160q44 0 203.5 2t267.5 2q130 0 237 -22t181 -59t130.5 -90t89 -108.5t53 -122t27.5 -123.5t7 -120q0 -82 -12.5 -159.5t-43 -157t-76 -147.5t-115 -127.5t-157.5 -101t-207 -64t-259 -19.5q-223 4 -457 4q14 130 16 643h-170z M535 643q0 -378 6 -493q102 -5 164 -5q84 0 153 17.5t118.5 47.5t87.5 74.5t61.5 95.5t38.5 114t20.5 125.5t5.5 134.5q0 49 -4.5 94t-18 98.5t-35.5 98.5t-59.5 88t-87 73t-122.5 48t-161 18q-81 0 -163 -4q-4 -230 -4 -486h272v-139h-272z" />
<glyph unicode="&#xf1;" horiz-adv-x="1710" d="M170 1413h442q113 -180 212.5 -329.5t249 -365.5t212.5 -308v297q0 525 -18 706h213q-23 -199 -23 -706q0 -418 2 -707h-264q-184 274 -311.5 459t-281 402.5t-179.5 254.5v-409q0 -534 20 -707h-213q21 182 21 707q0 407 -2 505q-2 93 -15.5 130.5t-64.5 70.5zM526 1589 q22 67 76.5 116.5t116.5 55.5q74 7 186 -39q104 -44 160 -36q30 4 49.5 20t34.5 47l80 -24q-15 -75 -70.5 -128.5t-122.5 -56.5q-63 -5 -164 37q-40 16 -56.5 22.5t-45 13.5t-51.5 7q-61 0 -105 -63z" />
<glyph unicode="&#xf2;" d="M160 678q0 180 63 326.5t171.5 241.5t251 146t304.5 50q171 -1 311 -55t233.5 -148.5t144.5 -225t51 -284.5q0 -150 -40.5 -275t-112 -213t-170.5 -149.5t-214 -91.5t-244 -31q-94 -1 -182.5 15.5t-173.5 51.5t-155.5 93t-124 134.5t-83.5 183t-30 231.5zM518 680 q5 -128 32.5 -227.5t68.5 -161.5t97.5 -100.5t115.5 -52t126 -9.5q66 4 123 25.5t107.5 67.5t84 113.5t50.5 169t10 228.5t-34.5 226t-68.5 161t-97 101t-114.5 53t-125.5 10q-84 -5 -151.5 -39t-122 -103t-81.5 -186.5t-20 -275.5zM662 1745l208 2l164 -236h-164z" />
<glyph unicode="&#xf3;" d="M160 678q0 180 63 326.5t171.5 241.5t251 146t304.5 50q171 -1 311 -55t233.5 -148.5t144.5 -225t51 -284.5q0 -150 -40.5 -275t-112 -213t-170.5 -149.5t-214 -91.5t-244 -31q-94 -1 -182.5 15.5t-173.5 51.5t-155.5 93t-124 134.5t-83.5 183t-30 231.5zM518 680 q5 -128 32.5 -227.5t68.5 -161.5t97.5 -100.5t115.5 -52t126 -9.5q66 4 123 25.5t107.5 67.5t84 113.5t50.5 169t10 228.5t-34.5 226t-68.5 161t-97 101t-114.5 53t-125.5 10q-84 -5 -151.5 -39t-122 -103t-81.5 -186.5t-20 -275.5zM883 1511l164 236l208 -2l-208 -234h-164 z" />
<glyph unicode="&#xf4;" d="M160 678q0 180 63 326.5t171.5 241.5t251 146t304.5 50q171 -1 311 -55t233.5 -148.5t144.5 -225t51 -284.5q0 -150 -40.5 -275t-112 -213t-170.5 -149.5t-214 -91.5t-244 -31q-94 -1 -182.5 15.5t-173.5 51.5t-155.5 93t-124 134.5t-83.5 183t-30 231.5zM518 680 q5 -128 32.5 -227.5t68.5 -161.5t97.5 -100.5t115.5 -52t126 -9.5q66 4 123 25.5t107.5 67.5t84 113.5t50.5 169t10 228.5t-34.5 226t-68.5 161t-97 101t-114.5 53t-125.5 10q-84 -5 -151.5 -39t-122 -103t-81.5 -186.5t-20 -275.5zM633 1546l313 217l314 -217l-181 -39 l-133 107l-133 -107z" />
<glyph unicode="&#xf5;" d="M160 678q0 180 63 326.5t171.5 241.5t251 146t304.5 50q171 -1 311 -55t233.5 -148.5t144.5 -225t51 -284.5q0 -150 -40.5 -275t-112 -213t-170.5 -149.5t-214 -91.5t-244 -31q-94 -1 -182.5 15.5t-173.5 51.5t-155.5 93t-124 134.5t-83.5 183t-30 231.5zM518 680 q5 -128 32.5 -227.5t68.5 -161.5t97.5 -100.5t115.5 -52t126 -9.5q66 4 123 25.5t107.5 67.5t84 113.5t50.5 169t10 228.5t-34.5 226t-68.5 161t-97 101t-114.5 53t-125.5 10q-84 -5 -151.5 -39t-122 -103t-81.5 -186.5t-20 -275.5zM590 1589q22 67 76 116.5t116 55.5 q74 7 187 -39q103 -44 159 -36q30 4 49.5 20t34.5 47l80 -24q-15 -75 -70 -128.5t-122 -56.5q-63 -5 -164 37q-107 43 -154 43q-60 0 -104 -63z" />
<glyph unicode="&#xf6;" d="M160 678q0 180 63 326.5t171.5 241.5t251 146t304.5 50q171 -1 311 -55t233.5 -148.5t144.5 -225t51 -284.5q0 -150 -40.5 -275t-112 -213t-170.5 -149.5t-214 -91.5t-244 -31q-94 -1 -182.5 15.5t-173.5 51.5t-155.5 93t-124 134.5t-83.5 183t-30 231.5zM518 680 q5 -128 32.5 -227.5t68.5 -161.5t97.5 -100.5t115.5 -52t126 -9.5q66 4 123 25.5t107.5 67.5t84 113.5t50.5 169t10 228.5t-34.5 226t-68.5 161t-97 101t-114.5 53t-125.5 10q-84 -5 -151.5 -39t-122 -103t-81.5 -186.5t-20 -275.5zM709 1626q0 42 26.5 70t67.5 28 q40 0 67 -28.5t27 -69.5q0 -36 -27.5 -64t-66.5 -28q-40 0 -67 28t-27 64zM1036 1626q0 40 28 69t66 29q41 0 70 -29t29 -69q0 -37 -29 -65.5t-70 -28.5q-38 0 -66 28.5t-28 65.5z" />
<glyph unicode="&#xf9;" horiz-adv-x="1724" d="M193 1413h368q-6 -424 4 -899q2 -104 23.5 -173t64 -105.5t95.5 -51t129 -14.5q84 0 155.5 42t102.5 99q19 34 25.5 89.5t6.5 183.5l2 522q0 181 -8 307h330q-14 -151 -14 -706q0 -547 16 -707h-324v143q-62 -71 -173 -121.5t-242 -50.5q-135 0 -231 38t-148.5 94.5 t-81.5 151.5t-36 177.5t-7 204.5q0 416 -6 557q-5 100 -14.5 144t-36.5 75zM608 1745l209 2l164 -236h-164z" />
<glyph unicode="&#xfa;" horiz-adv-x="1724" d="M193 1413h368q-6 -424 4 -899q2 -104 23.5 -173t64 -105.5t95.5 -51t129 -14.5q84 0 155.5 42t102.5 99q19 34 25.5 89.5t6.5 183.5l2 522q0 181 -8 307h330q-14 -151 -14 -706q0 -547 16 -707h-324v143q-62 -71 -173 -121.5t-242 -50.5q-135 0 -231 38t-148.5 94.5 t-81.5 151.5t-36 177.5t-7 204.5q0 416 -6 557q-5 100 -14.5 144t-36.5 75zM764 1511l164 236l209 -2l-209 -234h-164z" />
<glyph unicode="&#xfb;" horiz-adv-x="1724" d="M193 1413h368q-6 -424 4 -899q2 -104 23.5 -173t64 -105.5t95.5 -51t129 -14.5q84 0 155.5 42t102.5 99q19 34 25.5 89.5t6.5 183.5l2 522q0 181 -8 307h330q-14 -151 -14 -706q0 -547 16 -707h-324v143q-62 -71 -173 -121.5t-242 -50.5q-135 0 -231 38t-148.5 94.5 t-81.5 151.5t-36 177.5t-7 204.5q0 416 -6 557q-5 100 -14.5 144t-36.5 75zM553 1546l313 217l314 -217l-181 -39l-133 107l-133 -107z" />
<glyph unicode="&#xfc;" horiz-adv-x="1724" d="M193 1413h368q-6 -424 4 -899q2 -104 23.5 -173t64 -105.5t95.5 -51t129 -14.5q84 0 155.5 42t102.5 99q19 34 25.5 89.5t6.5 183.5l2 522q0 181 -8 307h330q-14 -151 -14 -706q0 -547 16 -707h-324v143q-62 -71 -173 -121.5t-242 -50.5q-135 0 -231 38t-148.5 94.5 t-81.5 151.5t-36 177.5t-7 204.5q0 416 -6 557q-5 100 -14.5 144t-36.5 75zM627 1626q0 42 26.5 70t67.5 28q40 0 67 -28.5t27 -69.5q0 -36 -27.5 -64t-66.5 -28q-40 0 -67 28t-27 64zM954 1626q0 40 28.5 69t66.5 29q41 0 69.5 -29t28.5 -69q0 -37 -28.5 -65.5t-69.5 -28.5 q-38 0 -66.5 28.5t-28.5 65.5z" />
<glyph unicode="&#xfd;" horiz-adv-x="1118" d="M-51 1413h360q27 -67 72 -151q3 -6 246 -443q105 189 241 443q19 36 36.5 74t25.5 58l8 19h231q-49 -74 -100 -158q-119 -182 -356 -608q0 -515 14 -647h-338q17 192 17 647q-276 483 -353 608q-25 41 -51 80.5t-40 58.5zM506 1511l164 236l209 -2l-209 -234h-164z" />
<glyph unicode="&#xff;" horiz-adv-x="1118" d="M-51 1413h360q27 -67 72 -151q3 -6 246 -443q105 189 241 443q19 36 36.5 74t25.5 58l8 19h231q-49 -74 -100 -158q-119 -182 -356 -608q0 -515 14 -647h-338q17 192 17 647q-276 483 -353 608q-25 41 -51 80.5t-40 58.5zM369 1626q0 42 26.5 70t67.5 28q40 0 67 -28.5 t27 -69.5q0 -36 -27.5 -64t-66.5 -28q-40 0 -67 28t-27 64zM696 1626q0 40 28.5 69t66.5 29q41 0 69.5 -29t28.5 -69q0 -37 -28.5 -65.5t-69.5 -28.5q-38 0 -66.5 28.5t-28.5 65.5z" />
<glyph unicode="&#x152;" horiz-adv-x="2320" d="M160 678q0 144 41.5 268t114.5 214t170.5 154.5t210.5 96t235 31.5q244 0 414 -160q-3 91 -11 131h799v-164q-69 7 -141 8t-344 0q-4 -106 -4 -428q280 -1 315.5 -0.5t101.5 5.5v-164q-61 5 -103 5t-317 -1q0 -299 7 -518q402 -2 549 12v-168h-863q7 53 13 131 q-170 -159 -443 -162q-94 -1 -182.5 15.5t-173 51.5t-154.5 93t-123 134.5t-82.5 183t-29.5 231.5zM518 680q5 -128 32.5 -227.5t68.5 -161.5t97.5 -100.5t115.5 -52t126 -9.5q66 4 123 25.5t107.5 67.5t84 113.5t50.5 169t10 228.5t-34.5 226t-68.5 161t-97 101t-114.5 53 t-125.5 10q-84 -5 -151.5 -39t-122 -103t-81.5 -186.5t-20 -275.5z" />
<glyph unicode="&#x153;" horiz-adv-x="2320" d="M160 678q0 144 41.5 268t114.5 214t170.5 154.5t210.5 96t235 31.5q244 0 414 -160q-3 91 -11 131h799v-164q-69 7 -141 8t-344 0q-4 -106 -4 -428q280 -1 315.5 -0.5t101.5 5.5v-164q-61 5 -103 5t-317 -1q0 -299 7 -518q402 -2 549 12v-168h-863q7 53 13 131 q-170 -159 -443 -162q-94 -1 -182.5 15.5t-173 51.5t-154.5 93t-123 134.5t-82.5 183t-29.5 231.5zM518 680q5 -128 32.5 -227.5t68.5 -161.5t97.5 -100.5t115.5 -52t126 -9.5q66 4 123 25.5t107.5 67.5t84 113.5t50.5 169t10 228.5t-34.5 226t-68.5 161t-97 101t-114.5 53 t-125.5 10q-84 -5 -151.5 -39t-122 -103t-81.5 -186.5t-20 -275.5z" />
<glyph unicode="&#x178;" horiz-adv-x="1118" d="M-51 1413h360q27 -67 72 -151q3 -6 246 -443q105 189 241 443q19 36 36.5 74t25.5 58l8 19h231q-49 -74 -100 -158q-119 -182 -356 -608q0 -515 14 -647h-338q17 192 17 647q-276 483 -353 608q-25 41 -51 80.5t-40 58.5zM369 1626q0 42 26.5 70t67.5 28q40 0 67 -28.5 t27 -69.5q0 -36 -27.5 -64t-66.5 -28q-40 0 -67 28t-27 64zM696 1626q0 40 28.5 69t66.5 29q41 0 69.5 -29t28.5 -69q0 -37 -28.5 -65.5t-69.5 -28.5q-38 0 -66.5 28.5t-28.5 65.5z" />
<glyph unicode="&#x2c6;" horiz-adv-x="1003" d="M322 1546l313 217l313 -217l-180 -39l-133 107l-133 -107z" />
<glyph unicode="&#x2dc;" horiz-adv-x="1044" d="M432 1589q22 67 76.5 116.5t116.5 55.5q74 7 186 -39q104 -44 160 -36q30 4 49.5 20t34.5 47l80 -24q-15 -75 -70.5 -128.5t-122.5 -56.5q-63 -5 -164 37q-40 16 -56.5 22.5t-45 13.5t-51.5 7q-61 0 -105 -63z" />
<glyph unicode="&#x2000;" horiz-adv-x="924" />
<glyph unicode="&#x2001;" />
<glyph unicode="&#x2002;" horiz-adv-x="924" />
<glyph unicode="&#x2003;" />
<glyph unicode="&#x2004;" horiz-adv-x="616" />
<glyph unicode="&#x2005;" horiz-adv-x="462" />
<glyph unicode="&#x2006;" horiz-adv-x="308" />
<glyph unicode="&#x2007;" horiz-adv-x="308" />
<glyph unicode="&#x2008;" horiz-adv-x="231" />
<glyph unicode="&#x2009;" horiz-adv-x="369" />
<glyph unicode="&#x200a;" horiz-adv-x="102" />
<glyph unicode="&#x2010;" horiz-adv-x="731" d="M102 614v185h527v-185h-527z" />
<glyph unicode="&#x2011;" horiz-adv-x="731" d="M102 614v185h527v-185h-527z" />
<glyph unicode="&#x2012;" horiz-adv-x="731" d="M102 614v185h527v-185h-527z" />
<glyph unicode="&#x2013;" horiz-adv-x="1058" d="M102 614v185h854v-185h-854z" />
<glyph unicode="&#x2014;" horiz-adv-x="1447" d="M102 614v185h1244v-185h-1244z" />
<glyph unicode="&#x2018;" horiz-adv-x="679" d="M164 1413h268q-8 -79 14 -196l70 -340h-166q-40 120 -86.5 254t-73.5 208z" />
<glyph unicode="&#x2019;" horiz-adv-x="679" d="M164 877q44 209 69 340q23 120 15 196h268q-96 -267 -186 -536h-166z" />
<glyph unicode="&#x201c;" horiz-adv-x="1069" d="M164 1413h268q-8 -79 14 -196l70 -340h-166q-40 120 -86.5 254t-73.5 208zM553 1413h268q-8 -76 15 -196l69 -340h-166q-40 120 -86.5 254t-72.5 208z" />
<glyph unicode="&#x201d;" horiz-adv-x="1069" d="M164 877q44 209 69 340q23 120 15 196h268q-96 -267 -186 -536h-166zM553 877q45 209 70 340q22 117 14 196h268q-96 -267 -186 -536h-166z" />
<glyph unicode="&#x2026;" horiz-adv-x="1538" d="M164 0v276h268v-276h-268zM635 0v276h268v-276h-268zM1106 0v276h268v-276h-268z" />
<glyph unicode="&#x202f;" horiz-adv-x="369" />
<glyph unicode="&#x2039;" horiz-adv-x="843" d="M117 670l407 520l187 -123l-308 -397l308 -398l-187 -122z" />
<glyph unicode="&#x203a;" horiz-adv-x="843" d="M133 272l307 398l-307 397l186 123l408 -520l-408 -520z" />
<glyph unicode="&#x205f;" horiz-adv-x="462" />
<glyph unicode="&#x20ac;" horiz-adv-x="1507" d="M37 584l47 131h137q0 28 4 82h-110l47 131h90q49 170 174 288t296 173t378 55q192 0 358 -51l-59 -164q-164 63 -305 63q-194 0 -326.5 -93.5t-179.5 -270.5h696l-47 -131h-672q-2 -23 -2 -68v-14h643l-47 -131h-586q35 -206 166.5 -325.5t350.5 -119.5q187 0 325 58 l-51 -181q-130 -45 -334 -45q-173 0 -309.5 37.5t-222 96.5t-145.5 142.5t-87.5 164t-38.5 172.5h-190z" />
<glyph unicode="&#x25fc;" horiz-adv-x="1413" d="M0 0v1413h1413v-1413h-1413z" />
</font>
</defs>
</svg>
